<svg class="main-svg" xmlns="http://www.w3.org/2000/svg" xmlns:xlink="http://www.w3.org/1999/xlink" width="1200" height="600" style="" viewBox="0 0 1200 600"><rect x="0" y="0" width="1200" height="600" style="fill: rgb(255, 255, 255); fill-opacity: 1;"/><defs id="defs-c24a35"><g class="clips"><clipPath id="clipc24a35xyplot" class="plotclip"><rect width="1040" height="502"/></clipPath><clipPath id="clipc24a35xy2plot" class="plotclip"><rect width="1040" height="502"/></clipPath><clipPath class="axesclip" id="clipc24a35x"><rect x="60" y="0" width="1040" height="600"/></clipPath><clipPath class="axesclip" id="clipc24a35y"><rect x="0" y="60" width="1200" height="502"/></clipPath><clipPath class="axesclip" id="clipc24a35xy"><rect x="60" y="60" width="1040" height="502"/></clipPath><clipPath class="axesclip" id="clipc24a35y2"><rect x="0" y="60" width="1200" height="502"/></clipPath><clipPath class="axesclip" id="clipc24a35xy2"><rect x="60" y="60" width="1040" height="502"/></clipPath></g><g class="gradients"/><g class="patterns"/></defs><g class="bglayer"><rect class="bg" x="50" y="50" width="1060" height="522" style="fill: rgb(229, 236, 246); fill-opacity: 1; stroke-width: 0;"/></g><g class="layer-below"><g class="imagelayer"/><g class="shapelayer"/></g><g class="cartesianlayer"><g class="subplot xy"><g class="layer-subplot"><g class="shapelayer"/><g class="imagelayer"/></g><g class="gridlayer"><g class="x"><path class="xgrid crisp" transform="translate(127.69,0)" d="M0,60v502" style="stroke: rgb(255, 255, 255); stroke-opacity: 1; stroke-width: 1px;"/><path class="xgrid crisp" transform="translate(241.55,0)" d="M0,60v502" style="stroke: rgb(255, 255, 255); stroke-opacity: 1; stroke-width: 1px;"/><path class="xgrid crisp" transform="translate(355.4,0)" d="M0,60v502" style="stroke: rgb(255, 255, 255); stroke-opacity: 1; stroke-width: 1px;"/><path class="xgrid crisp" transform="translate(469.57,0)" d="M0,60v502" style="stroke: rgb(255, 255, 255); stroke-opacity: 1; stroke-width: 1px;"/><path class="xgrid crisp" transform="translate(583.43,0)" d="M0,60v502" style="stroke: rgb(255, 255, 255); stroke-opacity: 1; stroke-width: 1px;"/><path class="xgrid crisp" transform="translate(697.29,0)" d="M0,60v502" style="stroke: rgb(255, 255, 255); stroke-opacity: 1; stroke-width: 1px;"/><path class="xgrid crisp" transform="translate(811.15,0)" d="M0,60v502" style="stroke: rgb(255, 255, 255); stroke-opacity: 1; stroke-width: 1px;"/><path class="xgrid crisp" transform="translate(925.31,0)" d="M0,60v502" style="stroke: rgb(255, 255, 255); stroke-opacity: 1; stroke-width: 1px;"/><path class="xgrid crisp" transform="translate(1039.17,0)" d="M0,60v502" style="stroke: rgb(255, 255, 255); stroke-opacity: 1; stroke-width: 1px;"/></g><g class="y"><path class="ygrid crisp" transform="translate(0,544.4)" d="M60,0h1040" style="stroke: rgb(255, 255, 255); stroke-opacity: 1; stroke-width: 1px;"/><path class="ygrid crisp" transform="translate(0,493.38)" d="M60,0h1040" style="stroke: rgb(255, 255, 255); stroke-opacity: 1; stroke-width: 1px;"/><path class="ygrid crisp" transform="translate(0,442.37)" d="M60,0h1040" style="stroke: rgb(255, 255, 255); stroke-opacity: 1; stroke-width: 1px;"/><path class="ygrid crisp" transform="translate(0,340.34)" d="M60,0h1040" style="stroke: rgb(255, 255, 255); stroke-opacity: 1; stroke-width: 1px;"/><path class="ygrid crisp" transform="translate(0,289.33000000000004)" d="M60,0h1040" style="stroke: rgb(255, 255, 255); stroke-opacity: 1; stroke-width: 1px;"/><path class="ygrid crisp" transform="translate(0,238.31)" d="M60,0h1040" style="stroke: rgb(255, 255, 255); stroke-opacity: 1; stroke-width: 1px;"/><path class="ygrid crisp" transform="translate(0,187.3)" d="M60,0h1040" style="stroke: rgb(255, 255, 255); stroke-opacity: 1; stroke-width: 1px;"/><path class="ygrid crisp" transform="translate(0,136.29000000000002)" d="M60,0h1040" style="stroke: rgb(255, 255, 255); stroke-opacity: 1; stroke-width: 1px;"/><path class="ygrid crisp" transform="translate(0,85.27)" d="M60,0h1040" style="stroke: rgb(255, 255, 255); stroke-opacity: 1; stroke-width: 1px;"/></g><g class="y2"><path class="y2grid crisp" transform="translate(0,510.63)" d="M60,0h1040" style="stroke: rgb(214, 221, 230); stroke-opacity: 1; stroke-width: 1px;"/><path class="y2grid crisp" transform="translate(0,439.44)" d="M60,0h1040" style="stroke: rgb(214, 221, 230); stroke-opacity: 1; stroke-width: 1px;"/><path class="y2grid crisp" transform="translate(0,368.25)" d="M60,0h1040" style="stroke: rgb(214, 221, 230); stroke-opacity: 1; stroke-width: 1px;"/><path class="y2grid crisp" transform="translate(0,297.06)" d="M60,0h1040" style="stroke: rgb(214, 221, 230); stroke-opacity: 1; stroke-width: 1px;"/><path class="y2grid crisp" transform="translate(0,225.87)" d="M60,0h1040" style="stroke: rgb(214, 221, 230); stroke-opacity: 1; stroke-width: 1px;"/><path class="y2grid crisp" transform="translate(0,154.68)" d="M60,0h1040" style="stroke: rgb(214, 221, 230); stroke-opacity: 1; stroke-width: 1px;"/><path class="y2grid crisp" transform="translate(0,83.49)" d="M60,0h1040" style="stroke: rgb(214, 221, 230); stroke-opacity: 1; stroke-width: 1px;"/></g></g><g class="zerolinelayer"><path class="yzl zl crisp" transform="translate(0,391.36)" d="M60,0h1040" style="stroke: rgb(255, 255, 255); stroke-opacity: 1; stroke-width: 2px;"/></g><path class="xlines-below"/><path class="ylines-below"/><g class="overlines-below"><path class="xy2-x"/><path class="xy2-y"/></g><g class="xaxislayer-below"/><g class="yaxislayer-below"/><g class="overaxes-below"><g class="xy2-x"/><g class="xy2-y"/></g><g class="plot" transform="translate(60,60)" clip-path="url(#clipc24a35xyplot)"><g class="scatterlayer mlayer"><g class="trace scatter trace7adcee" style="stroke-miterlimit: 2; opacity: 1;"><g class="fills"/><g class="errorbars"/><g class="lines"><path class="js-line" d="M118.22,258.78L118.54,273.01L119.47,274.64L120.41,284.95L120.72,299.33L121.97,301.66L122.28,299.64L123.84,296.57L124.15,293.75L124.78,293.41L125.09,292.31L126.65,287.19L126.96,284.73L127.27,278.51L128.21,277.23L128.52,277.44L128.83,276.78L129.14,275.15L129.45,272.81L130.39,272.81L131.64,257.96L132.57,259.3L133.82,250.38L134.76,249.8L135.69,237.94L136,239.31L136.94,232.65L137.88,249.91L138.19,249.41L139.12,249.73L139.75,250.05L140.06,248.61L140.37,246.92L141.31,248.13L141.93,247.57L142.24,249.47L142.56,250.36L143.49,250.56L143.8,251.61L144.12,251.24L144.43,268.75L144.74,285.85L145.99,308.63L146.61,315.17L146.92,322.38L147.86,326.13L148.17,332.81L149.11,349.47L150.04,347.41L151.29,346.46L152.23,346.83L155.66,354.99L156.59,353.97L157.84,351.05L158.78,350.21L159.09,349.25L159.4,344.5L160.02,338.44L160.96,338.76L162.21,346.21L163.14,346.77L165.64,339.3L165.95,338.04L166.26,334.65L166.57,335.95L167.51,334.4L167.82,333.15L168.13,334.16L168.45,334.29L168.76,333.7L169.69,333.9L172.19,338.57L172.5,345.03L172.81,345.1L173.13,347.58L174.69,356.57L175,355.99L178.43,357.19L178.74,357.19L179.68,358.31L180.61,358.08L180.92,358.21L181.24,361.77L183.11,361.83L183.42,365.46L184.04,366.55L184.98,366.86L186.23,366.88L187.16,366.88L188.41,368.36L189.35,369.64L190.59,371L191.53,370.79L191.84,370.29L192.15,370.59L192.47,370.9L192.78,370.86L193.71,371.61L194.65,374.19L194.96,372.18L195.9,372.31L198.7,369.88L199.33,367.25L200.26,367.51L202.45,360.7L202.76,361.13L203.07,360.94L203.38,362.02L203.7,362.19L204.63,361.16L205.88,363.59L206.81,364.14L208.06,365.72L209,365.42L209.93,365.84L210.25,365.85L211.81,365.85L212.12,366.63L212.43,365.26L213.37,366.76L213.99,367.44L214.3,369.82L215.55,376.35L215.86,377.91L216.8,383.64L217.73,383.97L218.36,385.47L218.67,388.72L220.23,392.56L220.54,397.28L222.1,402.13L222.41,402.23L222.72,402.29L223.04,403.38L223.35,405.08L224.28,405.4L224.91,406.57L225.22,408.03L225.53,408.78L226.47,408.92L227.4,410.04L227.71,412.77L228.65,413.62L228.96,415.81L229.9,418.46L230.83,419.47L232.08,420.72L233.02,421.27L233.64,423.12L233.95,423.98L236.14,425.39L236.45,427.09L238.63,431.39L239.57,433.5L240.5,436.36L240.82,436.09L241.75,437.3L242.06,437.55L242.38,439.01L244.87,449.66L245.18,450.83L247.05,451.13L247.37,451.82L249.55,453.41L250.49,453.56L251.42,452.33L251.73,453.27L253.61,454.92L253.92,453.62L255.79,445.62L256.1,446.85L257.04,447.03L257.35,446.4L257.66,457.65L259.22,447.77L259.84,448.32L260.16,448.5L261.4,447.7L261.72,447.16L262.65,444.77L263.59,444.41L264.84,446.87L266.08,446.78L266.39,446.58L268.89,447.46L270.76,448.74L271.07,449.61L272.95,450.72L273.26,450.65L274.82,451.43L275.13,452.29L275.75,454.01L276.69,453.86L277,454.02L277.31,455.11L277.62,456.07L279.5,456.56L280.12,457.03L282.3,457.62L286.36,458.92L286.67,459.19L296.96,456.81L297.28,456.12L300.71,454.83L301.02,454.69L301.96,452.38L302.89,452.19L304.14,452.48L305.07,454.25L305.39,453.62L305.7,453.8L306.01,454.08L310.07,452.9L310.38,454.58L311.63,455.3L311.94,455.34L312.87,455.29L313.81,454.46L314.43,453.68L314.75,454.54L315.99,455.2L316.3,457.5L317.24,458.85L318.18,458.93L319.42,459.42L320.36,459.91L321.61,458.74L322.54,458.46L322.86,457.72L323.17,457.95L323.48,458.26L325.35,457.75L325.66,457.71L325.97,457.38L326.91,457.54L327.85,458.29L328.16,458.81L330.34,459.94L331.28,459.46L332.53,463.36L333.77,462.49L334.4,461.83L334.71,462.12L335.64,461.56L336.27,461.15L336.58,461.86L336.89,462.53L337.83,462.71L338.76,463.66L339.08,462.86L342.82,461.41L343.13,461.68L346.56,458.71L346.87,456.57L347.81,447.84L348.75,446.7L349.99,430.36L350.93,430.09L351.55,430.03L351.87,451.62L352.18,429.39L353.11,427.45L354.36,427.72L355.3,428.11L355.61,427.8L355.92,425.8L356.23,425.2L356.54,425.59L357.48,425.16L357.79,426.12L358.1,425.26L358.42,421.65L358.73,419.53L359.66,418.71L360.29,417.85L360.6,416.85L362.47,410.18L362.78,406.89L365.28,402.63L366.21,402.5L367.15,398.51L367.46,399.25L368.4,397.72L369.02,397.67L369.33,394.92L369.65,393.25L370.58,392.55L371.83,386.95L372.77,386.48L373.08,387.44L373.39,392.09L374.95,393.9L375.26,387.86L375.57,384.16L377.13,382.96L377.44,364.38L378.07,371L378.38,369.44L379.63,359.5L379.94,355.43L380.56,344.08L383.68,318.46L384.93,305.3L385.87,301.45L386.18,300.22L386.49,293.92L387.11,287.16L388.05,285.31L388.67,282.74L388.99,284.86L390.86,280.27L391.17,279.03L393.04,269.65L393.35,263.56L394.91,260.96L395.22,257.87L395.85,250.82L396.78,249.48L398.03,242.41L398.97,241.7L399.59,238.7L399.9,237.79L401.46,228.79L401.78,224.21L402.4,220.37L403.34,219.09L404.58,216.87L405.52,214.41L406.45,211.43L406.77,209.6L408.95,205.93L410.2,205.66L411.13,190.26L412.07,189.65L412.38,188.37L412.69,182.89L413.32,178.37L414.25,176.01L414.57,175.34L414.88,176.19L415.19,176.49L416.44,176.27L416.75,176.36L417.37,176.36L419.87,170.25L420.8,167.82L421.12,161.4L422.05,157.69L422.99,158.1L423.61,159.38L423.92,158.92L424.24,152.34L425.79,149.46L426.11,155.02L427.35,154.05L427.67,157.77L429.54,146.12L429.85,145.36L430.79,138.4L431.72,138.09L432.66,136.07L432.97,135.22L433.91,134.95L434.22,133.05L434.84,136.67L435.15,136.32L436.09,136.16L436.4,136.16L436.71,134.19L437.34,130.13L438.9,129.51L439.21,129.51L439.52,127.55L441.08,125.86L441.39,126.7L441.7,128.22L442.64,127.55L444.82,117.34L445.13,117.34L445.45,117.34L445.76,112.68L447.63,100.18L447.94,100.9L449.81,99.44L450.13,100.46L450.44,100.63L451.37,97.87L452.62,89.24L453.56,87.87L454.81,84.94L456.36,84.25L456.68,83.55L456.99,75.4L457.92,74.51L458.24,71.85L459.17,60.61L460.11,59.77L460.73,64.85L461.04,64.01L461.36,75.26L462.6,78.32L462.92,79.83L464.79,116.58L465.1,116.41L465.72,114.78L466.66,36.53L467.28,115.48L467.59,113.49L467.91,112.57L469.78,101.28L470.09,96.26L471.03,96.84L471.34,95.66L471.65,95.35L471.96,91.01L472.27,85.89L473.21,90.81L473.83,93.57L474.15,93.42L474.46,92.97L475.7,94.11L476.02,100.5L476.33,100.79L476.64,107.85L477.89,109.33L478.2,107.66L478.82,103.56L479.76,104.47L480.38,101.87L480.7,102.64L481.01,102.34L481.94,102.64L482.26,100.65L482.57,100.94L482.88,100.36L483.19,94.98L485.37,103.87L486.31,102.91L486.62,102.44L486.93,102.83L487.25,104.33L487.56,104.3L488.49,106.26L488.81,105.01L489.12,105.77L489.43,112.72L489.74,117.78L490.68,119.55L490.99,120.59L491.3,134.47L491.93,133.63L492.86,142.07L494.11,171.63L497.23,189.22L497.54,183.43L497.85,190.78L498.16,193.06L498.48,186.98L499.41,188.84L500.66,194.09L501.6,188.97L502.84,175.8L503.78,176.22L504.09,176.89L504.4,175.88L504.72,176.22L505.03,175.41L505.96,175.93L507.21,181.7L508.15,180.1L509.08,177.09L509.39,178.09L510.95,179.96L511.27,178.39L511.58,178.02L512.51,181.79L513.76,191.32L514.7,192.51L517.19,209.29L517.5,209.99L518.13,210.65L519.06,212.17L520.31,217.82L521.25,219.41L522.18,222.71L522.5,224.43L523.74,224.79L524.06,226.79L525.93,246.19L526.24,248.07L526.86,257.16L527.8,257.81L529.05,262.91L529.98,264.33L531.23,267.78L532.17,268.54L533.41,275.83L534.35,275.93L534.66,276.55L534.97,275.76L535.28,275.85L535.6,274.65L536.53,274.73L539.65,274.97L539.96,272.31L541.21,272.72L541.52,269.9L542.15,269.36L543.08,269.7L544.33,267.52L545.27,267.48L546.51,276.18L547.45,275.66L548.07,275.83L548.39,276.85L548.7,275.23L549.63,275.18L549.95,274.8L550.26,275.32L550.57,277.36L552.44,278.88L554,280.01L554.94,280.27L555.25,277.43L556.5,276.39L556.81,277.03L557.12,277.03L557.43,276.92L558.37,278.33L559.62,278.49L561.18,278.58L561.49,282.19L561.8,281.14L562.74,283.34L563.98,288.81L564.92,290.59L565.54,291.56L565.85,292.1L566.17,292.28L567.1,291.75L568.04,288.23L568.35,288.23L569.91,288.23L570.22,292.78L571.78,295L572.09,295.9L572.72,300.9L573.65,300.9L573.97,300.9L574.28,302.15L574.9,303.72L576.15,304.56L578.02,308.89L578.33,308.89L580.83,311.95L581.14,313.11L583.32,318.54L583.64,322.64L585.51,323.7L585.82,326.7L587.38,329.39L587.69,332.92L589.25,334.09L589.56,332.14L589.87,332.86L590.19,329.67L591.12,329.83L591.43,331.03L593.31,330.15L593.62,330.79L593.93,330.95L594.24,332.41L595.49,332.81L595.8,332.17L596.42,332.17L596.74,334.64L598.92,336.69L599.86,338.89L600.48,339.98L600.79,342.72L601.1,343.57L602.04,343.81L603.29,349.51L604.22,349.8L604.85,350.83L605.16,353.02L605.47,354.82L606.72,355.44L607.65,359.23L610.77,371.84L611.4,374.44L611.71,379.49L612.96,384.15L613.27,384.85L614.21,392.98L615.14,395.37L616.39,399.1L617.32,399.1L618.57,403.66L619.51,404.3L620.76,407.58L621.69,408.87L622.94,412.29L623.88,412.98L625.12,415.99L626.06,415.98L626.37,416.09L626.68,415.19L626.99,414.63L627.31,414.82L628.24,415.01L631.05,419.74L631.36,419.49L634.79,421.36L635.1,420.83L636.04,420.76L637.6,419.96L637.91,420.11L638.22,418.92L639.78,419.02L640.1,418.76L641.34,418.92L641.66,420.56L642.59,423.28L643.53,424.08L650.08,423.83L650.39,424.6L651.33,425.29L652.26,426.86L653.2,436.09L653.51,436.44L654.45,436.57L654.76,439.41L656.63,441.76L656.94,442.08L657.88,443.3L658.81,443.24L659.12,444.13L659.44,441.98L661,441.44L661.31,442.5L662.24,445.42L663.18,445.21L665.67,450.11L665.99,451.68L666.3,452.41L667.55,452.35L667.86,452.67L668.17,455.27L668.79,459.11L669.73,459.4L670.98,461.07L671.91,460.72L674.41,463.64L676.28,462.81L677.22,462.81L677.53,462.26L679.4,462.31L679.71,462.54L680.65,462.97L680.96,465.08L681.9,465.77L682.83,466L684.08,468.84L685.01,469.07L685.95,469.61L687.2,470.07L689.38,470.67L689.69,470.86L690.63,473.8L691.57,474.03L694.69,475.92L695,476.9L696.24,476.73L696.56,472.95L697.18,462.87L698.12,461.52L698.74,454.17L699.05,450.56L700.3,447.48L700.61,448.12L700.92,449.43L701.24,447.56L701.55,448.46L703.11,452.28L703.42,453.41L704.67,453.39L704.98,452.63L706.85,452.55L707.16,451.81L707.79,450.98L708.1,451.74L711.84,453.11L712.15,453.11L712.47,453.52L713.4,453.17L714.34,453.19L714.65,453.55L715.9,452.98L716.21,452.54L716.52,452.92L717.77,452.92L719.02,452.91L719.95,452.6L720.58,452.85L720.89,452.09L721.2,451.65L722.14,451.64L725.25,449.85L725.57,449.15L727.44,448.23L727.75,448.23L730.87,448.85L731.18,449.55L732.12,448.81L733.05,448.9L733.37,449.13L733.68,448.03L734.3,447.87L735.24,448.05L735.55,448.09L735.86,447.34L736.48,446.5L737.42,446.62L738.04,446.01L738.36,446.9L742.72,444.31L743.04,442.44L744.6,441.01L744.91,438.95L747.09,434.05L747.4,433.76L750.83,430.8L751.46,429.53L751.77,427.64L752.71,427.03L753.95,424.97L754.89,424.08L757.7,404.43L761.44,401.9L762.69,399.63L763.62,399.94L764.56,397.23L764.87,397.87L765.81,395.96L766.12,387.86L766.43,387.72L766.74,386.55L767.99,383.5L768.3,376.49L768.61,375.28L768.93,366.6L771.42,345.31L772.36,344.5L772.67,344.61L772.98,345.89L773.61,344.74L774.54,345.4L774.85,343.88L775.16,346.74L775.48,346.52L775.79,345.28L777.04,347.83L777.35,350.49L777.66,349.57L777.97,350.58L778.91,348.88L780.16,342.91L781.4,338.53L782.03,333.53L782.34,333.83L783.28,332.24L784.21,334.91L784.52,334.76L785.46,333.88L785.77,334.64L786.08,334.5L786.39,333.46L786.71,331.96L787.64,331.66L788.58,329.81L790.45,328.53L790.76,329.94L791.07,329.3L792.01,329.61L793.26,327.66L794.19,328.61L794.51,328.44L794.82,329.57L795.44,329.4L796.38,328.07L797.62,324.01L798.56,322.8L799.18,322.96L799.5,321.92L799.81,322.43L800.74,321.73L801.06,323.25L801.37,322.72L801.68,322.2L803.24,318.41L803.55,315.83L804.18,317.18L805.11,317.66L805.73,318.51L807.29,318.32L807.92,319.84L808.23,319.08L808.54,316.99L809.79,317.7L810.1,327.19L810.73,348.59L811.66,351.1L812.91,373.46L813.85,375.96L816.03,369.8L816.34,369.09L817.28,364.96L818.21,365.3L818.84,366.53L819.15,367.6L819.46,369.43L820.4,370.04L821.02,371L821.33,370.61L821.64,369.82L823.83,373.66L824.76,373.66L825.07,373.66L825.39,369.51L826.95,365.31L827.26,365L828.19,354.88L829.13,353.31L830.38,351.63L831.31,351.65L831.63,350.85L831.94,351.65L832.25,351.65L832.56,353.26L833.5,352.98L834.12,353.16L834.43,354.44L834.75,354.15L835.68,354.79L836.3,354.95L839.11,349.21L841.3,342.96L842.23,342.96L843.17,342.05L843.48,342.21L844.73,342.9L845.04,341.65L846.91,344.64L847.22,344.04L849.72,339.96L850.03,339.32L851.9,338.54L852.21,336.92L854.4,335.09L855.33,333.39L856.27,325.07L856.58,305.36L857.52,303.66L857.83,299.05L858.14,298.36L858.45,302.63L858.76,308.37L859.7,310.53L860.01,313.37L860.32,312.13L860.64,305.14L862.82,295.9L863.13,295.46L864.07,291.74L864.69,292.31L865,293.56L866.25,293.05L866.56,290.41L866.87,289.74L867.19,290.35L867.5,290.79L868.43,290L868.75,291.28L869.37,288.71L869.68,276.93L870.93,269.57L871.24,271.46L871.55,272L871.87,272.09L872.8,267.15L874.05,240.76L874.99,236.84L875.3,235.09L875.61,227.46L875.92,226.74L876.23,215.24L880.29,191.5L880.6,177.21L881.85,145.41L882.16,129.92L883.72,133.21L884.03,130.23L884.66,134.73L884.97,140.98L885.9,140.98L886.21,137.14L887.15,128.61L888.09,125.62L888.4,127.38L888.71,118.69L889.33,124.98L890.27,126.64L890.89,118.21L891.21,120.87L891.52,125.28L892.77,124.76L893.08,123.51L893.39,116.01L894.95,113.75L895.88,100.47L896.82,93.98L897.76,78.52L898.07,80.02L899,77.64L899.63,75.84L899.94,71.9L900.25,70.37L901.19,70.37L901.5,69.45L901.81,69.9L902.12,71.72L904.31,61.99L904.62,62.2L905.55,62.34L905.87,60.4L906.18,62.89L906.49,63.04L906.8,64.93L907.74,64.89L908.67,59.86L908.99,61.29L909.92,62.39L910.23,60.73L911.17,60.06L912.11,59.4L912.42,59.4L912.73,58.25L913.04,58.25L913.35,60.53L914.6,59.52L914.91,57.29L915.54,59.26L916.78,62.53L917.1,61.86L917.41,58.05L918.97,52.9L919.28,49.3L919.59,48.91L919.9,44.97L920.84,43.77L921.15,41.05L922.09,33.26L923.02,33.75L923.96,31.67L924.27,27.5L925.21,26.64L925.52,27.46L926.14,25.1L926.45,26.2L927.7,26.14L928.01,29.19L928.33,29.81L928.64,27.92L929.57,28.41L929.89,27.64L930.82,25.62L931.76,30.25L932.69,35.11L933.01,35.12L933.94,36.63L934.25,51.74L935.19,63.79L936.12,61.11L936.75,58.53L937.06,59.95L937.37,58.57L938.31,59.13L938.62,61.56L938.93,72.26L940.49,84.23L940.8,87.28L941.74,106.05L942.68,109.54L943.92,119.46L944.86,119.35L945.79,123.34L946.11,121.07L948.29,123.44L949.23,121.06L949.85,123.3L950.16,127.41L953.59,146.97L953.91,141.97L954.22,134.47L954.53,136.5L954.84,138.62L956.4,142.67L956.71,137.69L957.02,138.91L957.96,137.12L958.27,136.73L958.58,138.78L960.77,134.72L961.08,136.85L961.39,136.85L962.33,138.46L964.51,147.84L964.82,146.96L965.76,149.88L966.69,152.14L967.01,152.82L967.32,151.72L967.63,149.8L967.94,146.77L968.88,145.79L969.81,158.99L970.13,188.09L971.06,191.1L971.37,198.39L971.69,199.66L972,195.37L972.31,192.11L973.25,192.25L973.56,184.85L973.87,187.25L974.18,199.19L974.49,198.63L975.43,203.97L975.74,208.45L976.05,205.84L976.36,205.98L976.68,206.48L977.61,211.61L978.55,207.83L978.86,212.29L980.11,216.79L980.42,216.23L980.73,214.24L981.04,214.82L981.98,214.28L982.92,236.96L983.23,248.09L984.48,255.49L984.79,254L985.1,254.53L987.59,293.36L990.71,294.53L991.96,314.47L992.9,316.17L993.21,316.08L993.52,318.14L993.83,319.2L994.15,327.54L995.39,350.85L995.7,359.09L996.33,369.19L997.26,371.25L998.51,378.03L999.45,378.62L1000.07,379.01L1000.38,381.13L1000.7,381.13L1001.63,382.11L1001.94,381.11L1002.26,381.84L1002.57,377.83L1003.82,373.41L1004.13,373.41L1004.44,374.35L1004.75,373.94L1005.06,370.66L1006.62,371.93L1006.93,375.69L1009.43,382.6L1010.37,383.7L1011.3,388.14L1011.61,387.39L1012.55,387.92L1013.17,388.84L1013.49,390.45L1015.98,397.01L1017.85,398.94L1018.16,399.92L1019.1,400.34L1019.72,401.13L1020.04,400.13L1021.28,399.56L1021.6,399.11L1022.22,399.7L1022.53,399.3L1023.47,398.86L1024.09,398.11L1024.4,398.5L1024.72,398.5L1026.27,399.25L1026.59,399.54L1028.77,398.96L1029.08,400.02L1030.95,398.95L1031.27,400.02L1032.2,400.18L1032.51,401.6L1034.39,402.76L1034.7,403.04L1035.32,404.03L1035.63,405.17L1037.19,405.96L1037.5,406.89L1039.06,410.76L1039.38,410.78L1040,411.98" style="vector-effect: non-scaling-stroke; fill: none; stroke: rgb(31, 119, 180); stroke-opacity: 1; stroke-width: 2px; opacity: 1;"/></g><g class="points"/><g class="text"/></g></g></g><g class="overplot"><g class="xy2" transform="translate(60,60)" clip-path="url(#clipc24a35xy2plot)"><g class="scatterlayer mlayer"><g class="trace scatter trace73348c" style="stroke-miterlimit: 2; opacity: 1;"><g class="fills"/><g class="errorbars"/><g class="lines"><path class="js-line" d="M0,468.43L2.81,469.96L4.99,471.9L6.24,470.68L6.86,473.51L8.11,474.84L8.42,473.18L9.05,472.07L9.36,470.99L11.54,469.88L12.48,471.62L13.41,468.94L13.73,469.23L14.66,469.34L15.28,469.2L15.6,473.88L17.16,474.08L17.47,473.28L19.03,474.19L19.34,473.42L19.96,472.62L20.28,473.91L21.52,474.5L21.84,475.7L22.46,475.59L23.4,476.04L23.71,475.42L24.02,476.02L24.33,476.19L26.2,476.9L26.51,476.02L27.76,475.45L28.07,476.24L28.7,474.28L29.01,474.59L29.95,474.59L30.88,472.82L31.19,473.31L32.75,472.08L33.07,472.54L34.94,471.6L36.5,471.48L38.68,473.45L41.18,472.02L41.49,472.59L41.8,471.42L42.11,470.23L43.05,470.45L43.98,468.63L44.3,467.4L45.54,467.17L45.85,468.43L47.41,468.74L47.73,468.29L48.66,469.14L49.6,469.51L50.53,470.11L50.85,470.45L52.72,471.91L53.03,471.45L53.97,471.34L54.9,473.28L55.21,472.96L56.15,472.85L57.4,471.25L58.33,472.19L59.58,471.57L60.52,471.71L61.76,473.11L62.7,473.02L63.95,473.36L64.88,472.94L67.38,472.08L68,472.91L68.31,473.48L69.25,473.62L69.87,473.08L70.19,474.02L72.06,471.74L72.37,470.05L72.68,471.14L73.62,471.14L73.93,471.37L74.24,470.6L75.8,472.91L76.11,472.88L76.42,473.31L79.23,472.88L81.1,472.05L81.42,470.8L84.54,471.37L84.85,471.57L85.78,470.28L86.72,470.4L87.03,470.37L87.34,469.37L87.65,468L87.97,468.29L88.9,467.74L89.21,468.29L89.53,466.4L90.15,467.92L91.09,467.32L91.4,467.12L91.71,467.97L92.02,468.06L92.33,468.97L93.27,468.66L93.58,467.29L93.89,467.37L94.21,466.43L95.76,463.87L96.08,464.66L96.7,465.43L97.95,464.84L98.26,464.35L98.57,465.29L99.82,464.04L100.13,463.32L100.44,464.35L100.76,462.73L102.32,463.18L102.63,463.61L102.94,463.18L103.25,465.04L104.19,463.92L104.5,464.49L104.81,464.49L106.37,465.75L106.68,464.78L107.31,463.32L107.62,463.61L108.55,463.1L110.74,462.9L111.05,463.32L112.92,462.9L113.23,462.24L114.17,463.18L115.42,461.24L116.35,461.67L117.29,461.33L117.6,461.07L117.91,461.56L118.22,461.61L119.78,461.18L120.1,460.93L120.41,459.96L120.72,461.5L121.97,462.55L122.28,461.84L122.59,461.87L122.9,461.13L123.84,460.81L124.15,459.16L125.09,457.05L126.02,457.16L126.65,457.88L126.96,456.36L127.27,456.76L128.21,455.75L128.52,456.3L128.83,460.79L129.14,462.92L129.45,462.1L130.39,462.25L131.33,460.91L131.64,462.48L132.89,461.93L133.2,461.4L133.51,463.5L133.82,462.92L134.76,462.01L135.07,464.08L135.69,463.76L136,464.11L137.56,462.54L137.88,461.96L139.12,462.13L139.44,461.34L140.37,461.08L141.31,461.52L142.56,460.76L143.49,460.76L144.12,459.57L144.43,460.03L144.74,460.06L146.61,460.88L146.92,462.51L147.86,462.8L148.17,462.1L148.79,460.82L149.11,461.99L150.35,462.51L150.67,461.78L150.98,463.18L151.29,463.09L152.23,463.65L152.54,462.98L155.03,461.75L155.34,462.13L155.66,465.13L156.59,464.46L156.9,463.09L157.22,463.3L157.53,461.4L158.78,460.96L159.09,459.45L160.02,460.06L160.96,459.54L161.58,458.87L161.9,460.26L162.21,457.61L163.14,457.96L164.08,458.25L164.39,458.19L165.64,457.09L165.95,457.52L166.57,456.5L167.51,457.93L168.45,455.45L168.76,454.58L170.01,455.02L170.32,454.23L170.63,454.23L170.94,453.38L172.19,456.01L172.5,454.96L176.24,457.84L176.56,459.3L178.43,456.59L178.74,457.06L179.68,456.77L180.61,456.56L181.24,456.56L182.8,458.43L183.11,459.54L183.42,458.63L183.73,458.22L184.98,461.2L185.29,460.44L185.6,460.41L185.91,455.07L186.23,455.92L187.16,455.92L188.41,451.87L189.35,451.37L189.66,451.28L189.97,452.04L190.59,455.6L191.53,454.93L192.47,452.83L192.78,454.46L193.71,455.72L194.03,452.25L194.96,449.39L195.9,449.39L198.7,448.81L199.02,449.86L199.33,450.29L200.26,450L201.51,451.58L202.45,453.44L202.76,454.61L203.07,453.32L203.38,453.21L204.63,451.02L204.94,450.93L205.88,449.59L206.81,449.51L207.13,450.38L207.44,454.23L207.75,454.17L208.06,454.93L210.25,452.74L211.49,453.62L211.81,454.17L212.12,453.47L212.43,453.3L213.68,454.23L213.99,453.27L214.61,454.11L215.55,453.97L215.86,453.79L216.17,452.3L217.73,447.73L218.04,448.89L218.67,450.55L219.92,450.9L220.85,450.76L221.16,450.23L223.04,450.64L223.35,450.2L224.91,450.15L225.22,451.14L226.78,451.08L227.09,450.09L229.27,452.83L229.59,454.81L230.83,455.77L231.15,455.25L232.08,452.8L233.02,454L233.95,452.54L234.27,453.59L236.14,451.6L236.45,452.92L237.38,454.49L237.7,453.5L238.63,452.17L239.57,452.8L239.88,452.74L240.19,454.94L240.5,454.97L240.82,453.92L242.06,453.22L242.38,453.95L243,452.53L243.94,452.92L244.25,452.98L244.56,454.97L244.87,454.7L245.18,456.71L246.12,456.74L246.43,455.99L247.05,453.53L247.37,455.3L249.55,458.55L250.49,456.8L251.73,460.51L252.67,460.81L254.85,465.38L255.16,465.38L256.1,461.65L257.04,462.01L257.35,463.42L257.66,461.83L259.22,462.64L259.53,461.5L259.84,462.01L260.16,462.55L262.34,459.66L262.65,459.81L263.59,460.05L263.9,461.8L264.84,461.5L266.08,461.98L266.39,459.39L268.89,454.88L269.2,455.78L270.14,455.36L270.45,455.81L270.76,454.61L271.07,455.78L271.39,455.15L272.32,454.94L273.57,454.22L274.51,455.15L275.13,455.39L275.44,456.17L276.69,455.33L277,453.31L277.31,450.97L277.62,452.68L279.5,453.89L280.12,455.96L282.3,453.13L284.49,454.28L285.42,453.34L285.73,451.78L286.05,452.05L286.36,452.83L286.67,451.69L287.61,451.9L288.85,455.09L289.79,454.97L290.41,452.14L290.73,452.74L291.04,452.83L294.47,452.38L294.78,452.98L296.65,455.78L296.96,457.62L297.59,459.21L298.52,458.85L299.15,460.2L299.46,456.17L299.77,458.34L300.71,458.34L301.02,456.65L301.33,458.37L301.64,457.65L301.96,455.84L302.89,456.26L303.83,456.74L304.14,454.58L305.39,453.95L305.7,452.86L306.01,451.93L306.32,453.38L309.44,454.91L309.75,451.6L310.69,450.28L311.63,449.73L311.94,451.42L312.25,451.36L312.56,450.55L312.87,450.31L313.81,450.97L314.43,447.75L314.75,447.93L315.06,447.66L316.93,447.39L317.24,445.55L318.18,445.94L318.49,446.97L319.42,443.48L320.36,443.81L321.61,444.41L322.54,444.71L323.17,442.21L323.48,443L323.79,443.24L325.97,445.76L326.91,445.07L327.22,444.89L327.53,443.09L327.85,445.7L328.16,445.22L329.09,445.1L329.72,446.24L330.03,446.12L330.34,446.4L331.59,446.58L331.9,445.85L332.53,450.85L333.77,451.66L334.71,451.39L335.64,451.51L336.27,451.96L336.58,452.65L336.89,453.16L337.83,452.29L338.14,452.77L338.45,451.06L338.76,451.87L339.08,449.89L341.26,447.21L342.2,447.21L342.51,447.45L342.82,445.85L343.13,446.06L343.44,445.01L344.38,445.19L344.69,443.42L345,442.6L346.56,444.71L346.87,444.89L347.19,444.08L347.81,444.05L348.75,442.48L349.68,441.16L349.99,444.56L350.93,444.09L351.24,442.97L352.18,439.01L353.11,439.01L353.74,440.19L354.05,439.69L354.36,438.38L355.3,436.91L355.61,437.63L355.92,437.88L357.48,435.54L357.79,436.7L358.73,435.23L359.66,434.85L359.98,433.39L360.6,433.98L360.91,435.1L361.85,432.48L362.16,433.92L362.78,433.17L363.1,431.95L364.34,430.05L364.66,430.61L364.97,430.86L366.21,430.08L366.53,431.05L366.84,431.36L367.15,430.8L367.46,432.42L369.02,433.2L369.33,432.54L371.21,432.11L371.52,431.42L371.83,430.86L372.77,430.86L373.39,428.74L373.7,428.83L374.01,432.57L374.95,431.33L375.26,432.89L375.57,432.48L377.13,428.39L377.44,428.49L377.76,426.61L378.07,426.11L378.38,427.8L379.32,428.67L379.63,426.92L380.25,426.92L380.56,426.33L383.68,424.18L384,425.89L384.31,423.96L384.62,426.52L384.93,426.11L385.87,426.39L386.18,425.49L388.36,423.33L388.67,424.4L389.3,425.77L390.23,424.74L391.48,427.42L392.42,423.96L392.73,423.99L393.04,426.33L393.35,429.92L393.67,428.39L394.6,431.76L395.22,428.61L395.54,429.83L395.85,429.83L397.72,428.52L398.03,429.23L399.59,429.14L399.9,432.7L402.09,428.05L402.4,427.8L403.34,428.49L403.65,427.05L404.58,429.8L405.52,430.45L406.14,430.86L406.45,432.11L406.77,431.14L407.7,431.14L408.64,430.89L408.95,432.08L412.07,428.05L412.38,427.95L412.69,427.64L413.01,430.39L413.32,429.92L414.25,429.92L416.75,425.61L417.06,424.08L417.37,424.71L419.87,425.15L420.8,425.46L421.12,426.55L421.74,427.52L422.05,425.96L424.24,420.87L425.17,420.87L425.48,420.9L425.79,421.71L426.11,422.71L426.42,422.18L427.35,423.4L427.98,423.24L428.29,425.46L429.54,425.52L429.85,424.08L430.79,424.86L431.72,423.49L432.03,424.4L432.35,422.21L432.97,420.09L433.91,419.28L434.22,420.43L434.84,420.18L435.15,419.4L436.4,417.72L436.71,419.03L437.02,418.59L437.34,419.31L438.9,419.12L440.46,420.31L440.77,420.68L441.7,422.46L442.64,421.84L443.26,423.15L443.58,422.59L443.89,421.68L445.76,418.75L446.07,418.59L450.13,410.82L450.44,411.41L451.69,412.47L452,414.38L452.62,411.94L453.56,411.32L456.36,411.44L456.68,409.79L457.92,408.23L458.24,408.1L458.55,408.01L458.86,406.85L459.17,410.1L460.11,411.82L461.36,409.85L462.29,408.79L462.6,409.04L462.92,407.23L463.54,407.16L464.48,406.12L465.41,410.34L465.72,409.86L467.28,410.31L467.59,411.34L469.15,408.52L469.47,407.53L470.09,405.73L471.03,406.82L471.34,406.95L471.65,405.22L472.27,407.01L473.21,405.83L474.46,406.98L475.39,406.66L476.33,407.21L476.64,406.44L477.58,404L477.89,404.29L478.2,405.06L478.51,408.65L478.82,406.09L479.76,406.37L480.07,405.19L480.38,405.45L480.7,407.21L481.94,406.6L482.26,404.87L483.19,403.81L484.13,404.07L486.31,402.63L486.62,403.81L487.25,401.6L487.56,401.73L488.49,400.64L488.81,400.58L489.12,401.63L489.43,402.11L489.74,401.25L490.68,399.91L490.99,399.17L491.3,400.71L491.61,399.36L491.93,400.87L492.86,403.11L493.49,402.53L493.8,403.17L494.11,401.57L497.54,397.02L497.85,392.6L499.41,390.87L499.72,389.72L500.04,388.92L500.35,390.3L502.53,389.88L502.84,386.84L505.03,386.71L505.96,385.94L506.59,385.94L506.9,388.47L508.15,387.29L508.46,387.77L508.77,388.79L509.08,387L509.39,387.1L510.33,386.65L511.58,384.15L512.51,390.23L512.83,390.75L513.14,395.61L513.76,394.69L514.7,395.68L515.32,397.95L515.63,396.89L515.94,396.93L516.88,395.74L517.82,395.65L518.13,395.33L520,396.19L520.31,394.91L521.25,394.91L521.56,397.09L521.87,396.67L522.18,394.56L522.5,394.85L523.74,390.46L524.68,385.85L525.61,385.91L526.55,390.43L526.86,389.91L527.8,389.91L529.98,373.29L530.29,373.61L530.92,377.39L531.23,375.41L532.17,376.43L532.48,378.1L532.79,376.72L533.1,376.27L534.35,384.28L534.66,382.23L535.28,392.57L535.6,389.02L536.53,385.62L536.84,386.1L537.16,383.96L539.65,386.07L539.96,381.24L540.9,379.6L541.21,382.13L541.84,385.01L542.15,384.09L543.08,382.55L543.4,382.39L543.71,380.27L544.02,381.56L544.33,379.03L546.2,376.72L546.51,377.81L548.07,378.67L548.39,381.91L548.7,385.46L549.63,380.05L550.26,385.11L550.57,381.68L550.88,381.68L551.82,385.72L552.44,381.11L554,383.89L554.94,381.4L555.25,385.24L556.18,384.53L556.5,386.33L556.81,387.58L557.12,395.23L557.43,397.09L558.37,397.73L558.68,397.73L558.99,399.58L559.62,399.58L561.18,400.93L561.8,398.24L562.74,398.69L563.98,394.01L564.92,393.88L566.17,398.78L567.1,395.42L567.73,394.85L568.04,396.06L569.29,395.97L569.6,399.62L570.53,396.29L571.47,393.82L572.72,397.15L573.65,397.7L573.97,396.29L574.28,396.77L574.59,398.21L574.9,397.92L576.15,401.54L576.46,399.01L577.08,399.75L578.02,401.55L578.33,401.71L578.64,404.84L579.27,401.38L580.2,401.45L580.83,401.94L581.14,401.28L582.39,397.2L582.7,396.87L583.01,400.03L583.32,398.91L583.64,397.4L584.57,397.33L584.88,396.51L585.19,395.29L585.51,390.68L585.82,387.65L586.75,387.61L587.07,388.77L587.38,387.12L587.69,387.35L588,385.27L588.94,386.46L589.25,386.06L589.56,384.42L591.12,386.53L591.43,385.97L591.75,383.56L592.06,383.99L592.37,386.66L593.31,387.71L593.62,387.05L593.93,388.57L595.49,389.72L595.8,387.12L596.42,387.81L596.74,385.97L597.67,385.01L597.98,382.31L598.3,376.44L598.92,378.19L599.86,378.19L601.1,373.97L602.04,374.83L602.35,375.06L602.66,377.07L602.98,378.75L603.29,375.52L604.54,378.32L604.85,376.81L605.16,376.31L605.47,376.68L606.72,376.31L607.03,375.98L607.34,374.37L607.65,376.35L610.77,386.89L611.09,387.09L611.4,392.19L611.71,393.54L612.02,391.17L612.96,394.17L613.27,390.02L614.21,395.16L615.14,394.27L615.76,401.65L616.39,401.02L617.32,402.14L618.26,393.18L618.57,394.07L619.51,395.06L620.13,392.75L620.44,394.33L621.69,399.74L622,398.62L622.63,394.93L622.94,400.36L624.19,404.41L624.5,402.67L625.12,403.36L626.06,400.46L626.37,400.59L626.68,396.61L627.31,397.99L628.24,394.23L629.49,401.51L630.43,401.81L631.05,398.68L631.36,398.85L631.67,401.48L632.61,402.5L632.92,400.72L633.86,404.18L634.79,405.57L635.1,405.57L635.42,400.72L635.73,400.66L636.04,399.47L637.6,401.51L637.91,408.63L638.22,406.62L639.16,405.76L639.47,406.72L639.78,404.51L640.41,401.22L641.34,404.02L641.97,404.41L642.59,400.46L643.53,400.46L643.84,402.01L644.15,401.61L644.46,397.82L644.78,396.18L645.71,398.48L646.02,402.14L646.33,398.68L646.65,397.89L646.96,398.06L650.08,395.68L650.39,394.53L650.7,396.21L651.01,396.44L652.26,396.34L652.57,395.12L653.51,392.06L654.45,391.43L655.07,391.86L655.38,393.18L655.69,392.06L656.63,392.85L657.56,394.56L657.88,395.98L659.44,392.65L659.75,393.94L660.06,391.2L661,390.54L661.62,390.54L661.93,386.62L663.18,390.31L663.49,388.73L663.8,389.39L664.12,388.93L664.43,386.89L665.99,384.15L666.3,383.33L668.17,382.24L668.48,383.13L668.79,381.55L669.73,381.45L670.35,375.59L670.67,372.26L670.98,372.26L671.91,373.08L672.54,372.23L672.85,375.29L673.16,377.07L674.1,377.43L676.9,377.86L677.22,379.34L678.46,386.79L678.78,383.56L679.09,383.56L679.4,385.01L680.65,394.46L680.96,392.36L681.58,396.41L681.9,395.98L682.83,395.98L683.14,397.79L683.46,397.66L683.77,396.51L685.33,393.15L685.64,395.88L687.51,390.18L687.82,391.83L688.13,391.86L688.45,397.17L689.38,397.76L689.69,392.65L690.01,392.03L690.32,388.37L690.63,388.34L691.57,386.76L691.88,390.34L692.19,389.8L692.5,388.07L692.81,389.49L693.75,382.03L695,386.92L695.93,388.99L698.12,380.54L698.43,380.71L698.74,381.18L699.05,375.91L700.3,371.15L700.61,371.76L700.92,371.35L701.24,374.46L701.55,375L702.48,373.38L704.67,387.13L704.98,382.43L705.29,382.43L705.6,380.27L706.85,383.45L707.16,380.47L707.47,385.24L707.79,383.78L708.1,381.49L709.35,380.13L709.66,377.97L710.28,383.48L711.22,382.16L711.53,382.13L711.84,381.11L712.47,377.8L713.4,377.8L713.71,380.88L714.03,376.05L714.34,372.36L714.65,374.15L715.58,373.68L716.21,372.43L716.52,372.94L717.77,371.15L718.7,369.28L719.02,372.78L720.26,371.93L720.58,368.9L720.89,363.98L721.2,367.21L722.14,363.91L724.63,359.22L724.94,356.44L726.81,350.63L727.13,351.51L727.44,352.8L727.75,354.4L728.69,351.95L729.93,348.11L730.87,347.5L731.49,345.46L731.81,346.41L733.68,339.58L733.99,339.48L734.3,342.34L735.24,343.12L735.55,344.65L735.86,342.17L736.17,343.53L736.48,340.77L737.42,340.33L737.73,339.18L738.67,342.47L739.6,339.18L739.92,339.62L740.23,338.74L740.54,338.74L740.85,341.45L742.1,342.51L742.41,341.15L743.04,335.17L743.97,336.8L744.28,336.59L744.6,331.91L744.91,322.7L745.22,323.92L746.15,322.94L746.47,320.59L746.78,321.03L747.09,323.82L747.4,323.92L748.34,322.93L748.96,324.51L749.27,322.83L749.59,322.11L750.52,324.2L750.83,323.34L751.46,316.72L751.77,323.48L752.71,325.77L753.64,319.48L753.95,320.75L754.89,316.65L755.2,315.76L755.51,322.35L755.82,321.12L756.14,321.7L757.07,321.7L757.38,322.87L757.7,322.49L761.44,334.72L762.38,323.62L762.69,329.83L763.62,327.03L763.94,321.43L764.25,318.12L764.56,319.14L764.87,323.04L765.81,323.04L766.12,329.9L766.43,324.92L766.74,328.88L767.05,331.92L768.3,337.83L768.61,333.83L768.93,339.78L769.24,337.9L770.17,330.59L770.49,334.34L770.8,326.83L772.36,344.76L772.67,335.61L773.29,355.49L773.61,343.4L774.54,368.44L774.85,356L775.48,370.77L775.79,368.56L776.72,366.05L777.66,350.19L777.97,360.37L778.91,357.24L779.22,357.34L779.53,361.75L779.84,356.17L780.16,359.86L781.4,350.7L781.72,348.81L782.03,355.49L782.34,355.49L783.28,354.04L784.52,337.04L785.46,340.82L785.77,345.02L786.08,339.59L786.39,340.65L786.71,340.34L787.64,337.66L787.95,340.24L788.27,334.32L788.58,338.97L790.45,342.41L791.07,339.72L792.01,341.48L792.63,346.57L792.95,342.51L793.26,350.43L794.19,343.3L795.44,350.43L796.38,350.43L797,343.75L797.31,348.78L797.62,348.6L798.56,346.19L799.81,331.84L800.74,330.57L801.37,323.75L801.68,332.39L801.99,329.09L802.93,329.02L803.24,329.78L803.55,327.02L803.86,327.43L804.18,330.34L805.42,325.32L805.73,325.94L807.29,326.6L807.92,325.11L808.23,318.88L808.54,318.88L809.48,307.6L809.79,311.65L810.1,305.14L810.41,297.56L810.73,300.78L811.66,296.55L811.97,290.01L812.6,291.29L812.91,291.95L813.85,290.25L814.16,287.07L814.47,284.57L814.78,288.59L816.03,233.61L816.34,255.53L816.65,235.62L816.96,245.11L817.28,248.71L818.21,248.5L818.52,244.21L818.84,239.22L819.15,243.07L819.46,244.76L820.4,245.32L820.71,252L821.02,246.98L821.33,250.75L821.64,250.37L822.58,244.21L822.89,246.91L823.2,249.92L823.52,255.91L823.83,250.61L824.76,248.67L825.39,238.81L825.7,242.79L826.01,243.34L826.95,247.46L827.26,239.5L827.57,237.35L827.88,240.78L828.19,248.64L829.13,248.64L829.44,254.14L829.75,246.94L830.07,248.67L830.38,248.95L831.31,243.13L831.63,224.61L831.94,234.03L832.25,237.1L832.56,242.94L833.5,241.69L833.81,242.07L834.12,250.97L836.3,240.02L839.11,213.22L840.05,205.81L840.36,210.23L841.3,220.45L842.23,217.46L842.54,215.03L843.17,215.2L843.48,214.85L844.73,220.41L845.04,230.36L845.35,226.74L845.66,230.29L846.6,223.89L847.85,204.08L848.78,212.35L849.09,217.11L849.41,205.92L849.72,209.6L850.03,197.78L850.97,176.75L851.28,189.13L851.59,184.89L851.9,186L852.21,190.45L853.15,180.72L853.46,185.9L854.4,178.6L855.33,184.58L856.58,161.25L857.52,152.01L858.76,160.21L859.7,161.84L860.32,156.14L860.64,159.46L861.88,156.22L862.2,159.32L862.51,159.95L862.82,152.24L864.07,151.61L864.38,153.67L865,141.53L866.25,132.26L866.87,118.62L867.19,98.32L867.5,107.88L868.43,94.24L868.75,92.85L869.06,105.99L869.37,80.81L869.68,85.07L870.62,85.07L871.55,53.92L871.87,71.43L872.8,66.62L873.11,80.12L874.05,98.01L874.99,80.08L875.3,73.87L875.92,74.88L876.23,76.17L877.79,55.56L880.29,52.28L880.6,45.2L881.54,55.98L882.78,82.59L883.72,71.47L884.66,118.69L884.97,100.52L886.53,124.83L886.84,101.29L887.15,109.24L888.09,106.52L888.4,105.58L888.71,106.4L889.02,121.3L889.33,124.35L890.27,111.93L890.89,140.68L891.21,135.47L891.52,114.1L892.45,121.69L892.77,119.31L893.08,108.08L893.39,85.27L894.95,93.53L895.26,102.45L895.57,90.07L895.88,92.27L897.44,99.12L897.76,107.83L898.07,106.12L899,118.15L899.32,119.73L899.63,111.16L899.94,118.43L900.25,106.82L901.19,96.75L901.5,97.62L901.81,103.25L902.12,105.21L902.44,113.47L904.62,113.15L905.55,128.96L905.87,127.07L906.18,143.3L906.49,141.42L906.8,128.44L907.74,137.74L908.05,134.1L908.36,128.65L908.67,125.57L908.99,130.57L911.17,111.3L912.11,111.3L912.73,105.74L913.04,113.19L913.35,103.78L914.29,108.29L914.6,116.33L914.91,112.1L915.22,108.22L915.54,108.18L916.78,103.99L917.41,103.88L917.72,115.56L918.66,121.35L918.97,120.69L919.28,114.65L920.84,102.16L921.15,99.99L921.46,100.23L921.78,106.34L922.09,104.62L923.02,104.62L923.34,100.62L923.65,106.93L923.96,108.27L924.27,98.83L925.83,85.39L926.14,109.46L926.45,115.74L927.39,117.11L928.01,108.27L928.33,112.86L928.64,112.06L929.57,116.06L929.89,123.46L930.82,112.58L931.76,111.81L932.69,103.53L933.01,107.07L933.94,107.04L934.25,113.56L936.12,119.63L936.44,131.98L936.75,134.3L937.06,134.05L937.37,142.47L938.62,128.48L938.93,111.21L939.56,106.09L940.49,104.34L940.8,104.27L941.12,99.18L941.43,98.02L941.74,86.86L942.68,86.86L942.99,84.3L943.3,94.16L943.92,90.37L944.86,88.09L945.79,96.65L946.11,107.35L948.29,114.78L949.23,112.98L949.85,128.93L950.16,128.82L952.66,134.49L953.59,133.71L953.91,137.45L954.53,125.62L954.84,117.52L955.78,115.83L956.09,110.13L957.02,119.74L957.96,121.82L958.27,119.92L958.58,121.43L958.9,113.47L959.21,121.61L960.14,120.13L960.77,120.51L961.08,107.21L961.39,107.17L962.33,96.23L962.64,93.16L962.95,105.77L963.26,105.8L963.58,104.04L964.82,106.19L965.13,102.74L965.76,84.44L966.69,82.71L967.94,109.67L968.88,101.96L969.19,109.46L969.5,97.21L969.81,93.45L970.13,101.79L971.06,102.46L971.37,91.26L971.69,93.09L972,101.19L972.31,102.49L973.25,112.03L973.56,112.49L973.87,98.02L974.49,111.05L975.43,115.93L976.05,93.47L976.68,95.66L977.61,88.52L978.86,96.96L980.11,50.74L981.04,85.7L981.98,80.37L983.23,25.1L984.16,25.1L985.41,82.06L986.35,77.01L987.28,110.84L987.59,106.5L990.71,89.9L991.34,78.56L991.65,81.43L991.96,94.49L992.9,98.87L993.21,82.1L993.52,85.34L993.83,98.91L994.15,100.49L995.08,100.49L997.26,143.93L997.58,140.26L997.89,134.75L998.2,137.64L998.51,150.82L999.45,171.19L999.76,168.68L1000.07,151.2L1001.63,171.16L1001.94,161.3L1002.88,143.52L1003.82,142.81L1004.13,142.39L1004.44,148.38L1004.75,139.27L1005.06,143.48L1006,144.9L1006.31,134.55L1006.62,143.48L1006.93,152.24L1007.25,157.45L1008.81,163.16L1010.68,176.42L1010.99,162.02L1011.61,173.15L1012.55,171.7L1012.86,169.29L1013.17,170.85L1013.49,175.64L1013.8,182.65L1014.73,180.67L1015.36,201.87L1015.67,184.29L1015.98,192.4L1017.85,195.17L1018.16,197.01L1019.1,212.36L1019.41,206.97L1019.72,210.48L1020.04,210.98L1020.35,199.39L1021.28,201.34L1021.6,191.02L1021.91,200.91L1022.22,202.04L1023.47,197.47L1023.78,207.33L1024.72,189.43L1025.65,189.43L1026.59,180.32L1027.83,191.76L1028.15,189.18L1028.46,190.49L1028.77,199.78L1030.02,218.56L1030.33,212.75L1030.64,205.87L1030.95,220.97L1031.27,219.26L1032.2,219.26L1032.51,212.32L1032.83,219.58L1033.14,222.39L1033.45,215.99L1034.39,216.2L1035.63,247.74L1036.57,247.74L1037.19,252.86L1037.5,234.74L1037.82,231.68L1038.75,240.23L1039.06,240.26L1039.38,232.47L1040,217.02" style="vector-effect: non-scaling-stroke; fill: none; stroke: rgb(255, 127, 14); stroke-opacity: 1; stroke-width: 2px; opacity: 1;"/></g><g class="points"/><g class="text"/></g></g></g></g><path class="xlines-above crisp" style="fill: none;" d="M0,0"/><path class="ylines-above crisp" style="fill: none;" d="M0,0"/><g class="overlines-above"><path class="xy2-x crisp" style="fill: none;" d="M0,0"/><path class="xy2-y crisp" style="fill: none;" d="M0,0"/></g><g class="xaxislayer-above"><g class="xtick"><text text-anchor="middle" x="0" y="585" transform="translate(127.69,0)" style="font-family: 'Open Sans', verdana, arial, sans-serif; font-size: 12px; fill: rgb(68, 68, 68); fill-opacity: 1; white-space: pre; opacity: 1;">2014-01-01</text></g><g class="xtick"><text text-anchor="middle" x="0" y="585" style="font-family: 'Open Sans', verdana, arial, sans-serif; font-size: 12px; fill: rgb(68, 68, 68); fill-opacity: 1; white-space: pre; opacity: 1;" transform="translate(241.55,0)">2015-01-01</text></g><g class="xtick"><text text-anchor="middle" x="0" y="585" style="font-family: 'Open Sans', verdana, arial, sans-serif; font-size: 12px; fill: rgb(68, 68, 68); fill-opacity: 1; white-space: pre; opacity: 1;" transform="translate(355.4,0)">2016-01-01</text></g><g class="xtick"><text text-anchor="middle" x="0" y="585" style="font-family: 'Open Sans', verdana, arial, sans-serif; font-size: 12px; fill: rgb(68, 68, 68); fill-opacity: 1; white-space: pre; opacity: 1;" transform="translate(469.57,0)">2017-01-01</text></g><g class="xtick"><text text-anchor="middle" x="0" y="585" style="font-family: 'Open Sans', verdana, arial, sans-serif; font-size: 12px; fill: rgb(68, 68, 68); fill-opacity: 1; white-space: pre; opacity: 1;" transform="translate(583.43,0)">2018-01-01</text></g><g class="xtick"><text text-anchor="middle" x="0" y="585" style="font-family: 'Open Sans', verdana, arial, sans-serif; font-size: 12px; fill: rgb(68, 68, 68); fill-opacity: 1; white-space: pre; opacity: 1;" transform="translate(697.29,0)">2019-01-01</text></g><g class="xtick"><text text-anchor="middle" x="0" y="585" style="font-family: 'Open Sans', verdana, arial, sans-serif; font-size: 12px; fill: rgb(68, 68, 68); fill-opacity: 1; white-space: pre; opacity: 1;" transform="translate(811.15,0)">2020-01-01</text></g><g class="xtick"><text text-anchor="middle" x="0" y="585" style="font-family: 'Open Sans', verdana, arial, sans-serif; font-size: 12px; fill: rgb(68, 68, 68); fill-opacity: 1; white-space: pre; opacity: 1;" transform="translate(925.31,0)">2021-01-01</text></g><g class="xtick"><text text-anchor="middle" x="0" y="585" style="font-family: 'Open Sans', verdana, arial, sans-serif; font-size: 12px; fill: rgb(68, 68, 68); fill-opacity: 1; white-space: pre; opacity: 1;" transform="translate(1039.17,0)">2022-01-01</text></g></g><g class="yaxislayer-above"><g class="ytick"><text text-anchor="end" x="49" y="4.199999999999999" transform="translate(0,544.4)" style="font-family: 'Open Sans', verdana, arial, sans-serif; font-size: 12px; fill: rgb(68, 68, 68); fill-opacity: 1; white-space: pre; opacity: 1;">−60</text></g><g class="ytick"><text text-anchor="end" x="49" y="4.199999999999999" style="font-family: 'Open Sans', verdana, arial, sans-serif; font-size: 12px; fill: rgb(68, 68, 68); fill-opacity: 1; white-space: pre; opacity: 1;" transform="translate(0,493.38)">−40</text></g><g class="ytick"><text text-anchor="end" x="49" y="4.199999999999999" style="font-family: 'Open Sans', verdana, arial, sans-serif; font-size: 12px; fill: rgb(68, 68, 68); fill-opacity: 1; white-space: pre; opacity: 1;" transform="translate(0,442.37)">−20</text></g><g class="ytick"><text text-anchor="end" x="49" y="4.199999999999999" style="font-family: 'Open Sans', verdana, arial, sans-serif; font-size: 12px; fill: rgb(68, 68, 68); fill-opacity: 1; white-space: pre; opacity: 1;" transform="translate(0,391.36)">0</text></g><g class="ytick"><text text-anchor="end" x="49" y="4.199999999999999" style="font-family: 'Open Sans', verdana, arial, sans-serif; font-size: 12px; fill: rgb(68, 68, 68); fill-opacity: 1; white-space: pre; opacity: 1;" transform="translate(0,340.34)">20</text></g><g class="ytick"><text text-anchor="end" x="49" y="4.199999999999999" style="font-family: 'Open Sans', verdana, arial, sans-serif; font-size: 12px; fill: rgb(68, 68, 68); fill-opacity: 1; white-space: pre; opacity: 1;" transform="translate(0,289.33000000000004)">40</text></g><g class="ytick"><text text-anchor="end" x="49" y="4.199999999999999" style="font-family: 'Open Sans', verdana, arial, sans-serif; font-size: 12px; fill: rgb(68, 68, 68); fill-opacity: 1; white-space: pre; opacity: 1;" transform="translate(0,238.31)">60</text></g><g class="ytick"><text text-anchor="end" x="49" y="4.199999999999999" style="font-family: 'Open Sans', verdana, arial, sans-serif; font-size: 12px; fill: rgb(68, 68, 68); fill-opacity: 1; white-space: pre; opacity: 1;" transform="translate(0,187.3)">80</text></g><g class="ytick"><text text-anchor="end" x="49" y="4.199999999999999" style="font-family: 'Open Sans', verdana, arial, sans-serif; font-size: 12px; fill: rgb(68, 68, 68); fill-opacity: 1; white-space: pre; opacity: 1;" transform="translate(0,136.29000000000002)">100</text></g><g class="ytick"><text text-anchor="end" x="49" y="4.199999999999999" style="font-family: 'Open Sans', verdana, arial, sans-serif; font-size: 12px; fill: rgb(68, 68, 68); fill-opacity: 1; white-space: pre; opacity: 1;" transform="translate(0,85.27)">120</text></g></g><g class="overaxes-above"><g class="xy2-x"/><g class="xy2-y"><g class="y2tick"><text text-anchor="start" x="1111" y="4.199999999999999" transform="translate(0,510.63)" style="font-family: 'Open Sans', verdana, arial, sans-serif; font-size: 12px; fill: rgb(255, 0, 0); fill-opacity: 1; white-space: pre; opacity: 1;">20</text></g><g class="y2tick"><text text-anchor="start" x="1111" y="4.199999999999999" style="font-family: 'Open Sans', verdana, arial, sans-serif; font-size: 12px; fill: rgb(255, 0, 0); fill-opacity: 1; white-space: pre; opacity: 1;" transform="translate(0,439.44)">40</text></g><g class="y2tick"><text text-anchor="start" x="1111" y="4.199999999999999" style="font-family: 'Open Sans', verdana, arial, sans-serif; font-size: 12px; fill: rgb(255, 0, 0); fill-opacity: 1; white-space: pre; opacity: 1;" transform="translate(0,368.25)">60</text></g><g class="y2tick"><text text-anchor="start" x="1111" y="4.199999999999999" style="font-family: 'Open Sans', verdana, arial, sans-serif; font-size: 12px; fill: rgb(255, 0, 0); fill-opacity: 1; white-space: pre; opacity: 1;" transform="translate(0,297.06)">80</text></g><g class="y2tick"><text text-anchor="start" x="1111" y="4.199999999999999" style="font-family: 'Open Sans', verdana, arial, sans-serif; font-size: 12px; fill: rgb(255, 0, 0); fill-opacity: 1; white-space: pre; opacity: 1;" transform="translate(0,225.87)">100</text></g><g class="y2tick"><text text-anchor="start" x="1111" y="4.199999999999999" style="font-family: 'Open Sans', verdana, arial, sans-serif; font-size: 12px; fill: rgb(255, 0, 0); fill-opacity: 1; white-space: pre; opacity: 1;" transform="translate(0,154.68)">120</text></g><g class="y2tick"><text text-anchor="start" x="1111" y="4.199999999999999" style="font-family: 'Open Sans', verdana, arial, sans-serif; font-size: 12px; fill: rgb(255, 0, 0); fill-opacity: 1; white-space: pre; opacity: 1;" transform="translate(0,83.49)">140</text></g></g></g></g><g class="subplot xy2"/></g><g class="polarlayer"/><g class="ternarylayer"/><g class="geolayer"/><g class="funnelarealayer"/><g class="pielayer"/><g class="iciclelayer"/><g class="treemaplayer"/><g class="sunburstlayer"/><g class="glimages"/><defs id="topdefs-c24a35"><g class="clips"/><clipPath id="legendc24a35"><rect width="138" height="48" x="0" y="0"/></clipPath></defs><g class="layer-above"><g class="imagelayer"/><g class="shapelayer"/></g><g class="infolayer"><g class="legend" pointer-events="all" transform="translate(164,110.19999999999999)"><rect class="bg" shape-rendering="crispEdges" style="stroke: rgb(68, 68, 68); stroke-opacity: 1; fill: rgb(255, 255, 255); fill-opacity: 1; stroke-width: 0px;" width="138" height="48" x="0" y="0"/><g class="scrollbox" transform="" clip-path="url(#legendc24a35)"><g class="groups"><g class="traces" style="opacity: 1;" transform="translate(0,14.5)"><text class="legendtext" text-anchor="start" x="40" y="4.680000000000001" style="font-family: 'Open Sans', verdana, arial, sans-serif; font-size: 12px; fill: rgb(68, 68, 68); fill-opacity: 1; white-space: pre;">DRAM spot yoy</text><g class="layers" style="opacity: 1;"><g class="legendfill"/><g class="legendlines"><path class="js-line" d="M5,0h30" style="fill: none; stroke: rgb(31, 119, 180); stroke-opacity: 1; stroke-width: 2px;"/></g><g class="legendsymbols"><g class="legendpoints"/></g></g><rect class="legendtoggle" x="0" y="-9.5" width="132.28125" height="19" style="fill: rgb(0, 0, 0); fill-opacity: 0;"/></g><g class="traces" style="opacity: 1;" transform="translate(0,33.5)"><text class="legendtext" text-anchor="start" x="40" y="4.680000000000001" style="font-family: 'Open Sans', verdana, arial, sans-serif; font-size: 12px; fill: rgb(68, 68, 68); fill-opacity: 1; white-space: pre;">TSM</text><g class="layers" style="opacity: 1;"><g class="legendfill"/><g class="legendlines"><path class="js-line" d="M5,0h30" style="fill: none; stroke: rgb(255, 127, 14); stroke-opacity: 1; stroke-width: 2px;"/></g><g class="legendsymbols"><g class="legendpoints"/></g></g><rect class="legendtoggle" x="0" y="-9.5" width="132.28125" height="19" style="fill: rgb(0, 0, 0); fill-opacity: 0;"/></g></g></g><rect class="scrollbar" rx="20" ry="3" width="0" height="0" style="fill: rgb(128, 139, 164); fill-opacity: 1;" x="0" y="0"/></g><g class="g-gtitle"><text class="gtitle" x="600" y="30" text-anchor="middle" dy="0em" style="font-family: 'Open Sans', verdana, arial, sans-serif; font-size: 17px; fill: rgb(68, 68, 68); opacity: 1; font-weight: normal; white-space: pre;"><tspan style="font-weight:bold">TSM vs. DRAM spot price YOY</tspan></text></g><g class="g-xtitle"/><g class="g-ytitle"/><g class="g-y2title"/></g></svg>