<svg class="main-svg" xmlns="http://www.w3.org/2000/svg" xmlns:xlink="http://www.w3.org/1999/xlink" width="800" height="400" style="" viewBox="0 0 800 400"><rect x="0" y="0" width="800" height="400" style="fill: rgb(255, 255, 255); fill-opacity: 1;"/><defs id="defs-9002a4"><g class="clips"><clipPath id="clip9002a4xyplot" class="plotclip"><rect width="640" height="302"/></clipPath><clipPath id="clip9002a4xy2plot" class="plotclip"><rect width="640" height="302"/></clipPath><clipPath class="axesclip" id="clip9002a4x"><rect x="60" y="0" width="640" height="400"/></clipPath><clipPath class="axesclip" id="clip9002a4y"><rect x="0" y="60" width="800" height="302"/></clipPath><clipPath class="axesclip" id="clip9002a4xy"><rect x="60" y="60" width="640" height="302"/></clipPath><clipPath class="axesclip" id="clip9002a4y2"><rect x="0" y="60" width="800" height="302"/></clipPath><clipPath class="axesclip" id="clip9002a4xy2"><rect x="60" y="60" width="640" height="302"/></clipPath></g><g class="gradients"/><g class="patterns"/></defs><g class="bglayer"><rect class="bg" x="50" y="50" width="660" height="322" style="fill: rgb(229, 236, 246); fill-opacity: 1; stroke-width: 0;"/></g><g class="layer-below"><g class="imagelayer"/><g class="shapelayer"/></g><g class="cartesianlayer"><g class="subplot xy"><g class="layer-subplot"><g class="shapelayer"/><g class="imagelayer"/></g><g class="gridlayer"><g class="x"><path class="xgrid crisp" transform="translate(101.66,0)" d="M0,60v302" style="stroke: rgb(255, 255, 255); stroke-opacity: 1; stroke-width: 1px;"/><path class="xgrid crisp" transform="translate(241.79,0)" d="M0,60v302" style="stroke: rgb(255, 255, 255); stroke-opacity: 1; stroke-width: 1px;"/><path class="xgrid crisp" transform="translate(382.11,0)" d="M0,60v302" style="stroke: rgb(255, 255, 255); stroke-opacity: 1; stroke-width: 1px;"/><path class="xgrid crisp" transform="translate(522.24,0)" d="M0,60v302" style="stroke: rgb(255, 255, 255); stroke-opacity: 1; stroke-width: 1px;"/><path class="xgrid crisp" transform="translate(662.57,0)" d="M0,60v302" style="stroke: rgb(255, 255, 255); stroke-opacity: 1; stroke-width: 1px;"/></g><g class="y"><path class="ygrid crisp" transform="translate(0,336.07)" d="M60,0h640" style="stroke: rgb(255, 255, 255); stroke-opacity: 1; stroke-width: 1px;"/><path class="ygrid crisp" transform="translate(0,182.62)" d="M60,0h640" style="stroke: rgb(255, 255, 255); stroke-opacity: 1; stroke-width: 1px;"/><path class="ygrid crisp" transform="translate(0,105.89)" d="M60,0h640" style="stroke: rgb(255, 255, 255); stroke-opacity: 1; stroke-width: 1px;"/></g><g class="y2"><path class="y2grid crisp" transform="translate(0,331.1)" d="M60,0h640" style="stroke: rgb(214, 221, 230); stroke-opacity: 1; stroke-width: 1px;"/><path class="y2grid crisp" transform="translate(0,288.27)" d="M60,0h640" style="stroke: rgb(214, 221, 230); stroke-opacity: 1; stroke-width: 1px;"/><path class="y2grid crisp" transform="translate(0,245.44)" d="M60,0h640" style="stroke: rgb(214, 221, 230); stroke-opacity: 1; stroke-width: 1px;"/><path class="y2grid crisp" transform="translate(0,202.61)" d="M60,0h640" style="stroke: rgb(214, 221, 230); stroke-opacity: 1; stroke-width: 1px;"/><path class="y2grid crisp" transform="translate(0,159.78)" d="M60,0h640" style="stroke: rgb(214, 221, 230); stroke-opacity: 1; stroke-width: 1px;"/><path class="y2grid crisp" transform="translate(0,116.96000000000001)" d="M60,0h640" style="stroke: rgb(214, 221, 230); stroke-opacity: 1; stroke-width: 1px;"/><path class="y2grid crisp" transform="translate(0,74.13)" d="M60,0h640" style="stroke: rgb(214, 221, 230); stroke-opacity: 1; stroke-width: 1px;"/></g></g><g class="zerolinelayer"><path class="yzl zl crisp" transform="translate(0,259.34000000000003)" d="M60,0h640" style="stroke: rgb(255, 255, 255); stroke-opacity: 1; stroke-width: 2px;"/></g><path class="xlines-below"/><path class="ylines-below"/><g class="overlines-below"><path class="xy2-x"/><path class="xy2-y"/></g><g class="xaxislayer-below"/><g class="yaxislayer-below"/><g class="overaxes-below"><g class="xy2-x"/><g class="xy2-y"/></g><g class="plot" transform="translate(60,60)" clip-path="url(#clip9002a4xyplot)"><g class="scatterlayer mlayer"><g class="trace scatter trace6cf05a" style="stroke-miterlimit: 2; opacity: 1;"><g class="fills"/><g class="errorbars"/><g class="lines"><path class="js-line" d="M72.75,155.68L73.71,166.73L73.91,167.04L74.87,181.52L75.06,181.48L75.25,180.26L77.74,173.91L77.94,172.77L78.9,166.78L79.09,166.91L79.28,166.51L80.43,161.59L80.62,157.54L81.01,155.19L81.58,155.99L83.5,143.14L83.7,143.97L84.27,139.96L84.85,150.34L85.04,150.04L85.61,150.24L86,150.43L86.19,149.56L86.38,148.55L86.96,149.28L87.15,148.94L87.34,148.94L87.53,150.08L88.49,151.36L88.69,151.14L88.88,161.68L90.03,187.15L90.22,189.6L91.76,210.24L92.33,209L93.1,208.43L93.68,208.65L95.79,213.56L96.36,212.94L97.13,211.19L97.71,210.69L98.09,207.25L98.28,203.61L99.05,203.8L99.24,205.36L100.4,208.61L100.59,208.17L103.28,200.42L103.47,201.03L104.62,201.23L104.81,201.99L105.96,203.68L106.15,207.57L106.35,207.61L106.54,209.1L107.5,214.51L107.88,214.27L108.46,214.46L109.99,214.88L110.19,214.99L110.57,215.55L111.15,215.42L111.34,215.5L111.53,217.64L112.68,217.68L112.87,219.86L114.22,220.96L114.41,220.98L115.18,220.71L115.37,221.13L115.94,221.6L116.52,222.38L117.29,223.19L117.86,223.07L118.63,223.11L119.21,223.56L119.78,225.11L119.98,223.9L120.55,223.98L122.28,222.52L122.47,221.17L123.62,219.91L123.82,218.64L124.58,217L124.78,217.25L124.97,217.14L125.35,217.89L125.93,217.27L126.69,218.73L127.27,219.06L128.04,220.01L128.61,219.83L129.38,220.09L130.15,220.09L130.53,220.56L130.73,219.74L131.88,222.48L132.07,224.63L135.52,236.16L135.72,239L137.06,242.02L137.25,242.67L138.21,244L138.4,244.59L139.56,246.32L139.75,246.43L139.94,246.68L140.13,248.32L140.71,248.83L140.9,250.15L141.48,251.74L142.05,252.35L143.4,253.43L143.59,253.66L144.16,255.26L144.93,255.78L145.31,255.91L145.51,256.93L147.43,260.79L147.62,261.5L148,262.51L148.19,262.35L148.77,263.08L149.15,264.11L149.35,265.2L151.46,271.3L151.65,271.06L152.99,272.55L153.19,272.22L154.15,272.86L154.34,272.31L154.72,272.12L154.91,272.69L155.49,273.05L156.06,273.68L156.26,272.89L156.83,270.6L157.41,268.08L157.6,268.82L158.18,268.93L158.37,268.55L158.56,275.32L159.52,269.38L160.1,269.82L160.29,269.45L161.06,269.01L161.25,268.31L162.21,267.35L162.4,267.79L162.98,268.83L163.74,268.78L163.94,268.66L165.47,269.19L166.62,269.96L166.81,270.48L168.35,271.18L168.93,271.34L170.27,273.04L170.46,273.14L170.85,274.37L172,274.66L174.3,275.46L174.49,275.5L176.22,276.09L176.41,276.25L184.48,274.15L185.05,273.62L185.63,272.58L185.82,272.15L187.16,272.21L187.74,273.28L188.51,273.08L190.43,272.65L190.81,272.46L191,273.47L191.96,273.93L192.15,273.73L193.11,273.4L193.31,273.22L193.5,272.93L193.69,273.45L193.88,273.76L194.46,273.85L194.65,275.23L195.99,276.27L196.18,276.29L197.14,276.68L197.34,276.32L197.53,276.48L197.91,275.97L198.49,275.81L199.26,275.55L200.02,275.36L201.94,276.02L202.52,276.33L203.1,276.89L203.29,276.69L203.86,276.41L204.63,278.75L205.4,278.23L206.74,277.55L206.93,277.42L208.28,278.86L208.47,278.94L209.43,278.05L209.62,278.11L212.12,276.88L212.31,276.54L213.27,275.96L213.46,274.67L215.38,258.9L215.96,258.74L216.34,258.7L216.53,271.69L217.3,257.15L217.49,257.11L218.84,257.36L219.03,256.16L219.99,255.77L220.18,256.35L220.56,253.66L220.76,252.39L221.91,250.77L222.1,250.15L222.87,248.84L223.06,246.76L224.02,243.3L224.21,243.26L226.71,239.26L226.9,239.25L227.09,239.23L227.28,237.58L228.82,232.79L229.39,232.51L230.74,236.97L230.93,233.34L231.12,231.11L232.08,230.38L232.27,219.21L232.85,222.25L233.43,219.23L234.19,207L236.11,191.59L236.88,183.66L237.46,181.35L237.65,180.61L237.84,176.82L238.8,171.64L238.99,170.51L239.18,170.1L239.38,171.37L239.57,171L240.14,170.09L241.68,163.57L241.87,162.22L242.83,157.53L243.02,156.99L244.56,148.01L244.75,147.74L245.9,143.6L246.09,143.05L247.25,134.88L247.44,133.67L248.4,131.49L248.59,131.49L248.97,130.47L249.55,128.99L250.13,127.19L250.32,126.09L252.43,123.72L252.62,121.18L253.97,110.03L254.16,107.79L255.12,105.48L255.5,106.17L255.69,106.04L256.84,106.1L258.38,102.42L258.96,100.96L259.15,97.1L259.72,94.87L260.3,95.11L260.49,95.3L260.68,95.88L260.88,95.6L261.07,91.65L262.03,89.92L262.22,93.26L262.99,92.68L263.18,94.91L265.1,83.26L265.67,83.08L267.02,81.18L267.21,80.04L267.59,82.22L267.79,82.01L268.36,81.91L268.55,81.91L268.75,80.73L269.13,78.29L270.09,77.91L270.28,77.91L270.47,76.73L271.43,75.71L271.63,76.22L271.82,77.14L272.39,76.74L272.59,75.43L273.93,70.59L274.12,70.59L275.46,60.27L275.66,60.7L276.81,59.82L277,60.44L277.19,60.54L277.77,58.88L279.3,52.14L279.5,52.14L281.03,50.26L281.22,45.36L281.8,44.83L281.99,43.23L283.14,35.96L283.34,37.27L285.06,52.49L285.25,62.46L286.02,70.14L286.6,69.05L287.17,21.98L287.56,69.47L287.94,67.72L288.52,65.33L289.29,57.91L289.86,58.26L290.44,54.75L290.63,51.67L291.59,56.29L291.97,55.93L292.55,56.44L292.74,56.61L292.93,60.46L293.13,60.63L293.32,64.88L294.09,65.77L294.28,64.77L294.66,62.3L295.24,62.85L295.62,61.28L296,61.57L296.58,61.74L297.35,57.14L297.92,60.39L298.69,62.49L299.27,61.91L299.46,61.63L299.65,61.86L299.84,62.76L300.04,62.74L300.61,63.92L300.8,63.17L301,63.63L301.19,67.81L302.34,80.9L302.72,80.39L303.3,85.47L304.07,103.25L305.99,113.83L306.18,110.35L306.56,116.14L306.75,112.49L307.33,113.6L308.1,116.76L308.67,113.68L309.44,105.76L310.02,106.01L310.21,106.41L310.79,105.52L311.36,105.84L312.13,109.31L312.71,108.34L313.28,106.54L313.47,107.14L314.05,107.88L314.43,108.26L314.63,107.32L314.82,107.09L315.39,109.36L318.27,125.91L318.46,126.33L318.85,126.73L319.42,127.64L320.19,131.04L320.77,132L322.5,136.43L322.69,138.86L324.03,152.72L324.22,154.7L324.8,155.1L324.99,156.34L326.91,161.09L327.49,161.55L328.25,165.94L328.83,166L329.02,166.37L329.41,165.95L329.6,165.23L332.09,165.42L332.29,163.82L333.05,164.07L333.25,162.37L333.63,162.04L334.21,162.25L335.55,160.91L335.74,164.1L336.32,166.15L336.89,165.83L337.47,166.55L337.66,165.58L338.62,165.63L338.81,166.86L341.12,168.61L341.31,168.61L341.5,168.61L341.69,166.9L343.04,166.59L343.61,167.44L345.34,167.59L345.53,169.77L345.72,169.13L346.3,170.46L347.64,174.82L347.83,174.91L348.41,175.83L348.99,175.51L349.75,173.4L350.33,173.4L350.71,173.4L350.91,176.14L352.06,178.01L352.25,180.26L353.4,181.77L353.59,182.32L356.47,186.31L357.05,186.64L357.43,187.67L357.62,188.36L358.97,191.63L359.16,194.1L360.31,194.73L360.5,196.54L361.46,198.16L361.66,200.29L362.62,200.99L362.81,199.82L363,200.24L363.19,198.33L365.49,199.1L365.69,199.97L366.45,200.22L366.65,199.83L367.03,199.83L367.22,201.32L368.57,202.55L369.14,203.88L370.87,209.04L371.06,209.79L373.94,216.11L375.86,223.7L377.78,234.57L377.97,236.41L379.32,240.1L379.89,240.1L380.66,242.84L381.24,243.23L382,245.2L382.58,245.97L383.92,248.44L384.12,248.97L384.69,250.25L385.27,250.25L385.46,250.32L385.65,249.77L385.84,249.44L386.99,250.52L387.19,251.39L387.38,251.35L387.95,252.08L390.07,253.49L390.64,253.49L391.22,252.92L391.41,253.13L392.37,252.65L392.56,252.74L392.75,252.02L393.33,252.22L394.67,252.02L394.87,253.01L396.02,255.12L396.21,255.1L396.78,255.44L397.36,255.36L398.13,254.98L400.05,254.98L401.39,256.8L401.58,260.97L403.5,265.54L404.08,265.76L405.61,267.19L405.81,265.89L406.77,265.57L406.96,266.2L408.3,268.24L408.49,268.43L410.8,272.13L410.99,272.32L412.14,276.37L412.33,276.94L415.02,278.92L416.17,278.42L416.94,278.09L417.52,277.9L418.86,278.52L419.05,279.79L421.74,282.51L421.93,282.51L424.24,283.15L424.43,283.27L425.77,285.26L425.96,285.43L427.31,286.03L427.5,286.31L428.27,286.9L428.46,286.8L430.38,269.98L430.95,269.2L433.07,272.83L433.64,272.75L434.41,272.25L434.99,272.25L435.56,271.31L435.75,271.76L436.33,272.01L437.67,272.54L437.86,272.54L440.36,272.87L440.55,272.51L440.74,272.25L440.94,272.47L441.7,272.47L442.47,272.47L443.05,272.28L443.43,272.43L443.62,271.98L443.82,271.71L445.93,271.18L446.12,270.76L447.85,269.65L448.42,269.77L451.3,270.2L451.49,269.53L453.8,268.69L453.99,268.63L454.18,268.32L454.57,268.75L455.14,268.74L457.06,267.29L457.25,266.17L458.21,265.31L458.4,264.07L459.94,260.95L460.52,260.44L461.28,260.05L461.86,259.29L462.44,258.4L462.63,257.27L463.97,255.66L464.55,255.12L466.27,243.3L468.58,241.78L469.35,240.41L469.92,240.6L470.5,238.97L470.69,239.35L471.27,238.21L472.03,232.17L472.61,230.71L473.95,216.04L474.15,214.51L475.3,207.25L475.49,207.32L475.68,208.08L476.06,207.39L476.64,207.79L476.83,206.87L477.02,208.6L477.41,207.72L477.98,208.89L478.75,210.91L479.33,209.89L480.1,206.29L480.86,203.66L481.25,200.65L481.44,200.83L482.02,199.87L482.59,201.48L482.78,201.39L483.36,200.86L483.55,201.32L483.94,200.61L484.13,199.71L484.9,199.16L485.09,198.42L486.43,197.64L486.62,198.49L487.97,197.13L488.16,197.12L489.5,198.17L490.08,197.37L491.42,194.19L491.61,194.29L491.81,194.29L492.77,193.55L492.96,194.46L494.3,191.55L494.49,190L495.84,191.62L496.8,191.5L497.18,192.41L497.37,191.96L497.56,190.7L498.33,191.13L498.52,196.83L499.87,219.44L500.06,222.87L500.83,226.17L501.02,225.49L501.21,224.29L501.4,224.47L501.6,223.95L502.17,222.47L503.52,219.76L503.71,219.95L505.24,223.19L505.43,222.96L505.63,222.48L506.2,223.29L506.97,224.79L507.55,224.79L507.74,224.79L507.93,222.29L510.81,211.54L511,211.54L512.15,211.55L512.35,212.52L513.31,212.46L513.5,213.23L514.27,213.44L514.46,213.54L514.65,213.54L516.38,210.08L517.72,206.32L518.3,206.32L518.87,205.78L519.06,205.87L519.64,206.46L520.02,205.53L520.41,206.05L520.98,206.84L521.18,207.33L521.56,206.68L521.75,206.58L522.71,205.31L522.9,204.52L524.06,203.76L524.25,203.67L525.21,201.99L525.4,201.89L525.59,202.09L525.78,201.59L526.36,200.57L526.93,195.56L527.13,183.7L527.7,182.68L527.89,179.9L528.09,179.49L528.28,182.06L529.24,188.52L529.43,187.78L530.58,178.8L530.77,178.21L531.16,177.74L531.73,175.51L532.31,176.6L533.08,176.3L533.46,174.31L533.85,174.94L534.42,174.46L534.61,175.23L535,173.69L535.19,166.6L535.96,162.17L536.34,163.63L536.53,163.69L537.11,160.72L537.3,154.92L539.22,129.49L539.8,126.13L540.18,121.83L541.72,115.2L542.87,78.16L543.25,78.68L543.83,80.14L544.02,78.35L544.4,81.05L544.6,84.81L545.17,84.81L545.36,82.5L546.51,75.57L546.71,76.63L546.9,71.4L547.28,75.19L547.86,76.19L548.24,71.12L548.63,75.37L549.2,75.06L549.39,75.06L549.59,74.3L549.78,69.79L550.74,68.43L551.89,56.54L552.08,52.8L552.27,52.01L552.47,47.24L552.66,48.14L553.23,46.71L553.62,45.62L553.81,43.25L554.77,41.78L554.96,42.05L555.15,43.15L555.34,42.22L556.5,37.29L557.26,37.5L557.46,36.34L558.03,39.06L558.61,39.03L559.18,36.01L559.38,36.87L559.95,37.54L560.72,36.13L561.3,35.73L561.87,35.04L562.06,36.41L562.83,35.81L563.02,34.47L564.18,37.62L564.37,37.21L565.71,29.66L565.9,29.42L567.25,21.19L567.44,20.01L568.01,20.3L568.21,19.63L568.4,19.27L568.59,19.05L568.78,16.54L569.36,16.03L569.55,16.52L569.74,15.12L570.89,15.72L571.09,17.56L571.28,17.94L571.47,16.79L572.05,17.09L572.81,15.41L573.39,18.2L574.16,21.13L574.73,22.04L575.5,38.37L576.08,36.76L576.84,35.24L577.42,35.57L577.8,43.47L578,46.22L580.88,71.87L581.45,71.8L582.03,74.2L582.22,72.84L583.18,73.8L583.56,74.26L584.14,72.83L584.72,76.65L586.25,84.91L586.83,88.41L587.02,85.41L587.21,80.9L588.55,85.83L588.75,82.83L588.94,83.57L589.51,82.49L589.71,82.26L589.9,83.49L591.24,81.05L591.43,82.33L591.63,82.33L592.2,83.29L594.89,91.52L595.08,91.94L596.23,87.71L596.42,90.62L596.81,95.65L597,113.15L597.58,114.96L597.77,119.35L597.96,120.11L598.15,117.53L599.11,111.2L599.3,112.65L599.5,119.83L599.69,119.49L600.26,122.71L600.46,125.4L601.03,124.22L601.61,127.31L602.18,125.03L602.38,127.71L603.14,130.42L603.34,130.08L603.53,128.88L603.72,129.24L604.3,128.91L604.49,131.85L604.68,132.53L604.87,142.55L605.83,153.7L606.02,152.8L606.21,153.12L606.41,156.21L607.75,176.48L609.67,177.19L610.44,189.18L611.01,190.21L611.21,190.15L611.4,191.39L611.59,192.03L611.78,197.04L614.09,226.15L614.28,226.66L615.24,227.86L615.43,228.01L616.39,229.87L616.58,229.27L616.77,229.71L616.96,227.3L617.92,224.64L618.12,225.21L618.31,224.96L618.5,222.99L619.46,223.75L619.65,226.01L621.19,230.17L621.76,230.83L622.34,233.5L622.53,233.05L623.11,233.37L623.68,234.89L623.88,235.53L625.03,238.16L625.22,238.84L627.52,241.32L627.71,240.72L627.91,240.69L630.59,239.74L631.17,239.74L632.51,240.36L632.71,239.92L634.63,240.65L635.2,240.74L635.78,241.94L635.97,241.85L636.54,242.3L638.46,244.78L638.66,245.59L640,247.85" style="vector-effect: non-scaling-stroke; fill: none; stroke: rgb(31, 119, 180); stroke-opacity: 1; stroke-width: 2px; opacity: 1;"/></g><g class="points"/><g class="text"/></g></g></g><g class="overplot"><g class="xy2" transform="translate(60,60)" clip-path="url(#clip9002a4xy2plot)"><g class="scatterlayer mlayer"><g class="trace scatter tracec34d36" style="stroke-miterlimit: 2; opacity: 1;"><g class="fills"/><g class="errorbars"/><g class="lines"><path class="js-line" d="M0,281.81L3.07,283.89L3.84,283.16L4.99,285.66L5.18,284.66L7.1,282.68L7.68,283.73L8.25,282.11L8.45,282.28L9.02,282.35L9.41,282.27L9.6,285.08L10.56,285.2L10.75,284.72L12.09,284.79L12.29,284.33L13.44,286.18L13.63,286.09L16.32,286.37L16.51,286.09L17.47,286.02L17.66,285.32L18.43,285.51L18.62,284.93L19.2,284.74L19.77,284.24L20.54,284.19L21.12,283.69L22.46,283.64L22.65,283.79L23.8,284.82L25.34,283.97L25.53,284.31L25.72,283.61L25.91,282.89L26.87,282.56L27.07,281.92L28.03,281.05L28.22,281.8L31.29,283.02L31.87,283.5L32.63,283.62L33.21,283.55L33.79,284.72L33.98,284.53L34.55,284.46L35.32,283.5L35.9,284.07L36.66,283.69L37.24,283.78L38.01,284.62L38.58,284.57L40.5,284.45L40.7,284.31L41.27,283.76L41.46,284L41.85,284.5L42.81,284.91L43,284.6L43.19,285.17L43.38,284.93L43.96,284.91L44.54,282.78L44.73,283.43L45.3,283.43L47.03,284.74L48.76,284.48L49.91,283.98L50.1,283.23L52.6,283.02L52.79,282.92L53.75,282.37L53.94,281.55L54.9,281.72L55.09,280.59L56.05,281.13L56.24,281.01L57.4,281.94L57.59,281.12L57.97,280.6L58.16,280.23L58.93,279.06L59.32,279.71L59.51,280L61.62,278.73L61.81,279.35L62,278.37L63.35,278.65L63.54,279.76L64.12,279.09L64.5,279.44L65.46,280.19L66.03,278.73L66.23,278.9L66.8,278.6L68.15,278.48L68.34,278.73L69.49,278.48L69.68,278.08L70.26,278.65L71.03,277.48L71.6,277.74L72.18,277.53L72.95,277.74L73.52,277.53L74.1,276.71L74.29,277.63L75.44,277.86L75.63,277.41L76.21,277.22L76.4,276.23L76.98,274.96L77.55,275.03L77.94,275.46L78.13,274.55L78.32,274.79L78.9,274.17L79.09,274.51L79.28,277.21L79.47,278.49L79.66,278L80.24,278.09L80.82,277.28L81.01,278.23L81.97,277.58L82.16,278.84L82.93,277.94L83.12,279.19L83.31,278.77L83.7,279.21L84.27,278.75L84.46,278.86L84.66,278.26L84.85,277.91L85.61,278.02L85.81,277.54L86.38,277.38L86.96,277.65L88.69,276.47L88.88,276.75L90.22,277.26L90.41,278.24L91.18,278L91.37,277.75L91.57,277.23L91.76,277.93L92.33,278.21L92.72,277.8L92.91,278.65L95.6,278.02L95.79,279.82L96.75,278.72L96.94,277.58L97.71,277.31L97.9,276.4L98.48,276.77L99.05,276.45L99.63,276.89L99.82,275.3L100.4,275.51L102.51,274.63L103.08,275.49L104.43,273.68L104.62,273.73L105.19,272.75L105.77,273.68L105.96,274.33L106.54,274.03L107.11,274.45L107.31,274.31L107.5,275L107.69,275.09L108.65,276.31L108.84,275.96L109.03,275.7L109.8,274.68L109.99,274.96L110.19,274.72L111.53,274.66L112.49,275.79L113.26,276.73L113.83,277.45L114.22,276.98L114.41,273.77L115.18,274.28L115.37,273.42L116.71,271.49L116.9,271.95L117.29,274.09L117.86,273.68L118.06,273.31L118.44,272.42L118.63,273.4L119.21,274.16L119.98,270.35L120.55,270.35L122.47,270.63L122.66,270.89L123.82,271.02L124.01,271.66L124.78,273.49L125.16,272.65L125.35,272.03L127.27,270.42L127.46,270.95L128.04,273.68L128.61,273.14L129.38,272.37L130.15,272.89L130.34,273.23L130.73,272.7L131.3,273L131.69,272.68L132.07,273.19L132.65,273.1L133.03,272.1L133.22,271.3L133.99,269.35L134.18,270.05L134.37,270.44L135.33,271.26L135.52,271.31L136.1,270.86L136.68,271.17L140.13,271.33L140.71,271.58L142.05,274.19L142.24,273.88L142.82,272.4L143.4,273.12L143.97,272.24L144.16,272.88L144.93,271.95L145.51,272.47L146.08,273.42L146.85,272.02L147.43,272.4L147.62,272.37L147.81,273.69L148.19,273.07L148.77,272.55L149.35,272.78L149.54,272.24L150.31,272.51L150.5,273.71L150.69,273.54L150.88,274.76L151.65,274.32L151.84,273.91L152.03,272.84L152.23,273.91L152.8,274.61L153.57,275.86L154.15,274.81L154.91,277.04L155.49,277.22L157.02,279.97L157.22,278.72L157.6,277.72L158.18,277.94L158.37,278.79L158.56,277.83L159.52,278.32L159.71,277.63L160.29,277.91L160.86,277.65L161.44,276.53L161.63,276.62L162.21,276.77L162.4,277.82L162.98,277.63L163.74,277.92L163.94,276.37L165.47,273.65L166.43,274.21L166.62,273.49L166.81,274.2L167.01,273.82L167.58,273.69L168.35,273.25L168.93,273.82L169.31,273.96L169.5,274.43L170.46,272.71L170.65,271.3L170.85,272.33L172,273.06L172.38,274.3L173.73,272.6L175.07,273.29L175.64,272.73L176.41,271.73L176.99,271.86L178.33,273.71L178.52,272.62L178.72,272.01L179.1,272.42L179.68,272.39L180.44,272.02L181.02,272.28L181.21,272.15L181.6,272.75L182.36,273.94L182.94,275.73L183.13,276.26L183.9,276.37L184.09,276.86L184.28,274.43L184.48,275.73L185.05,275.73L185.82,274.23L186.39,274.49L186.97,274.77L187.16,273.47L188.12,272.44L188.31,271.88L188.51,272.75L190.43,273.67L191,270.85L191.19,270.88L191.77,270.56L191.96,271.57L192.54,270.9L193.11,271.3L193.88,269.31L194.46,269.22L195.03,269.15L195.22,268.04L195.99,268.89L196.18,267.26L198.68,266.92L198.87,266.03L200.41,268.01L200.6,268.17L201.37,267.64L201.56,266.56L201.75,268.13L201.94,267.84L202.52,267.77L203.29,268.55L203.86,268.66L204.25,268.22L204.44,270.2L205.4,271.72L205.59,271.53L206.74,271.59L206.93,271.9L207.32,272.62L207.89,272.1L208.09,272.39L208.28,271.35L208.47,271.84L208.66,270.65L210.58,269.04L210.77,269.18L211.35,267.72L211.93,267.82L212.31,266.27L213.27,267.53L214.04,267.14L214.61,266.2L215.19,265.4L215.38,267.44L216.15,266.49L216.34,265.47L217.3,264.1L217.49,264.61L217.68,264.82L217.88,264.52L218.07,263.73L219.22,263.01L219.41,263.2L220.76,261.83L221.33,261.61L221.52,260.72L221.91,261.08L222.1,261.76L223.44,259.86L224.02,259.3L224.21,258.71L224.79,259.01L225.36,258.73L226.71,260.59L226.9,260.4L227.09,260.61L227.47,260.14L228.05,260.03L228.43,259.95L228.63,259.54L228.82,259.2L229.59,258.54L229.78,257.92L229.97,257.98L230.16,260.23L232.27,257.77L232.47,256.65L232.66,256.35L232.85,257.36L233.43,257.89L234.19,256.48L236.11,255.18L236.5,255.05L236.69,256.59L236.88,256.35L237.46,256.52L238.22,255.56L238.8,254.94L238.99,254.68L239.18,255.31L239.38,256.14L240.34,256.25L240.53,256.85L240.91,257.14L241.49,255.05L241.68,255.07L241.87,256.48L242.83,259.75L243.02,259.09L243.22,257.85L243.6,258.58L244.18,258.24L244.75,257.79L244.94,258.22L245.52,258.22L245.71,258.43L245.9,258.17L246.09,260.31L247.63,257.36L248.21,257.77L248.4,256.91L248.78,257.29L248.97,258.56L250.13,259.95L250.32,259.37L250.89,259.37L251.47,259.22L251.66,259.93L253.97,257.27L254.16,258.92L256.46,256.05L256.65,255.13L256.84,255.5L258.38,255.76L259.15,256.61L259.34,256.97L259.53,257.19L259.72,256.25L261.07,253.19L261.64,253.19L262.03,253.7L262.22,254.3L262.41,253.98L262.99,254.71L263.37,254.62L263.56,255.95L264.33,255.99L264.52,255.13L265.1,255.6L265.67,254.77L265.87,255.31L266.06,254L266.25,253.06L267.02,252.23L267.21,252.93L268.55,251.3L268.75,252.08L268.94,251.82L269.13,252.25L270.09,252.14L271.43,253.3L271.63,254.15L272.59,254.22L272.78,254.56L277,247.15L277.19,247.5L277.77,248.08L277.96,248.14L278.15,249.29L279.3,247.45L279.5,247.22L279.88,247.24L280.84,247.52L281.8,245.59L281.99,245.51L282.38,244.76L282.57,246.71L283.14,247.75L283.72,247.37L283.91,246.56L285.83,244.32L286.02,246.32L286.21,245.82L286.41,246.86L286.6,246.57L287.17,246.73L287.94,247.21L288.52,246.49L289.29,244.09L289.86,244.74L290.05,244.82L290.25,243.78L290.63,244.86L291.21,244.14L292.74,244.88L292.93,244.43L293.13,244.97L293.32,244.51L293.89,243.05L294.28,243.68L294.47,245.84L295.43,243.76L295.62,243.91L295.81,244.97L296,244.84L296.58,244.61L297.35,242.93L297.92,243.08L299.27,242.22L299.46,242.93L300.61,241.02L300.8,240.98L301.19,241.91L301.38,241.39L301.96,240.58L302.34,241.06L302.53,240.25L302.72,241.16L303.88,242.55L304.07,241.58L306.18,238.85L306.37,236.19L307.71,233.97L307.91,234.8L308.1,234.7L309.25,234.55L309.44,232.72L311.36,232.18L311.55,232.03L311.75,232.18L311.94,233.7L312.71,232.99L312.9,233.28L313.09,233.9L314.05,232.6L314.24,231.89L314.63,232.22L314.82,231.1L315.78,238L316.16,237.44L316.74,238.04L317.12,239.41L317.5,238.79L318.08,238.08L318.85,237.83L319.42,238.02L320,238.35L320.19,237.57L320.77,237.57L320.96,238.89L321.34,237.36L321.54,237.54L322.3,234.9L323.46,232.16L323.65,232.66L324.03,234.88L324.22,234.57L324.8,234.57L326.14,224.57L326.33,224.76L326.53,226.59L326.72,227.04L326.91,225.84L327.49,226.46L328.83,231.18L329.02,229.95L329.41,236.17L329.6,234.03L330.17,231.99L330.37,232.28L330.56,230.99L332.09,232.26L332.29,229.35L332.86,228.37L333.05,229.89L333.44,231.62L333.63,231.06L334.21,230.14L334.4,230.04L334.59,228.77L334.78,229.54L334.97,228.02L335.55,226.81L336.32,227.29L336.89,228L337.08,227.56L337.28,227.81L337.47,229.75L337.66,231.89L338.24,228.64L338.62,231.68L339,229.62L339.58,232.05L339.96,229.27L340.92,230.95L341.5,229.44L341.69,231.76L342.27,231.33L342.46,232.41L342.65,233.16L342.84,237.77L344,240.39L344.19,240.39L344.38,240.39L345.34,241.2L347.07,237.04L347.64,236.96L348.41,239.91L348.99,237.88L349.37,237.54L349.56,238.27L349.75,238.21L350.33,238.21L350.52,240.41L351.67,236.92L352.06,237.71L352.25,237.79L353.02,239.25L353.21,238.4L354.55,241.56L354.75,240.04L355.7,241.57L355.9,241.67L356.09,243.55L356.47,241.47L357.05,241.51L357.43,241.81L357.62,241.41L357.82,240.06L358.58,238.75L358.78,240.66L360.31,235.03L360.5,233.2L361.27,233.88L361.46,232.89L361.66,233.03L361.85,231.78L362.42,232.49L362.62,232.25L362.81,231.26L363.77,232.53L363.96,232.19L364.15,230.75L364.34,231.01L364.54,232.61L366.45,234.45L366.65,232.89L367.03,233.3L367.22,232.19L367.8,231.62L367.99,229.99L368.18,226.47L368.57,227.52L369.14,227.52L369.91,224.98L370.49,225.5L370.68,225.63L370.87,226.84L371.06,227.85L371.25,225.91L371.83,227.2L372.02,227.6L372.21,226.68L372.41,226.39L373.37,226.39L373.56,226.19L373.75,225.22L373.94,226.41L375.86,232.75L376.05,232.87L376.24,235.94L376.63,235.33L377.2,237.13L377.4,234.63L377.97,237.72L378.55,237.19L378.93,241.63L379.32,241.25L379.89,241.92L380.47,236.53L380.66,237.07L381.24,237.66L381.62,236.28L381.81,237.23L382,238.48L382.58,240.48L382.77,239.8L382.96,238.93L383.16,237.58L383.35,240.85L383.92,242.48L384.12,243.29L384.31,242.24L384.69,242.66L385.27,240.91L385.46,240.99L385.65,238.6L386.03,239.43L386.61,237.17L387.38,241.55L387.95,241.73L388.34,239.84L388.53,239.94L388.72,241.53L389.3,242.14L389.49,241.07L390.64,243.99L390.83,243.99L391.41,240.32L392.37,241.55L392.56,245.83L392.75,244.62L393.33,244.1L393.52,244.68L393.71,243.35L393.91,241.75L394.1,241.37L394.67,243.05L395.06,243.29L396.02,240.91L396.21,241.85L396.4,241.61L396.59,239.33L396.78,238.34L397.36,239.73L397.55,241.92L397.94,239.37L398.13,239.47L400.24,237.35L400.43,238.36L401.39,238.44L401.58,237.7L402.74,235.48L402.93,235.44L403.31,236.53L403.5,235.86L404.08,236.34L404.85,238.22L405.42,237.35L406.77,234.95L406.96,235.13L407.15,234.95L407.34,232.59L407.53,233.8L408.11,234.81L408.88,232.75L409.45,231.94L409.65,232.13L409.84,231.1L410.8,229.92L410.99,230.27L412.33,228.69L412.53,225.95L412.91,223.95L413.49,224.45L413.87,223.93L414.06,225.77L415.02,227.08L416.17,227.2L416.56,227.32L416.75,228.21L417.52,232.69L417.71,230.75L417.9,230.75L419.44,238.48L419.63,238.22L420.2,238.22L420.4,239.31L420.78,238.54L420.97,237.92L421.74,236.51L421.93,238.16L423.08,234.73L423.28,235.72L423.47,235.74L424.24,239.29L424.43,236.22L424.62,235.84L424.81,233.64L425,233.62L425.58,232.67L425.77,234.82L426.35,234.32L426.92,229.82L428.27,234.01L428.46,233.3L429.03,230.13L429.61,228.93L429.99,229.32L430.19,226.15L430.95,223.28L431.34,223.4L431.53,225.27L431.72,225.6L432.3,224.62L433.64,232.89L433.83,230.07L434.03,230.07L434.22,228.77L434.99,230.68L435.18,228.89L435.37,231.76L435.75,229.5L436.33,229.01L436.71,227.39L436.9,228.3L437.1,230.7L438.06,229.28L438.25,228L439.02,227.28L439.21,229.13L439.59,224.01L439.78,225.09L440.36,224.8L441.9,222.2L442.09,222.39L442.28,222.16L442.47,224.26L443.24,223.75L443.43,221.93L443.62,218.97L443.82,220.91L444.39,218.93L446.31,213.92L446.5,212.92L447.27,210.93L447.46,211.47L447.65,212.24L447.85,213.2L448.42,211.73L449.19,209.42L449.77,209.05L450.53,207.44L451.11,204.6L451.69,204.23L451.88,205.95L452.65,207.34L452.84,205.85L453.03,206.66L453.22,205.01L453.8,204.74L453.99,204.05L454.18,204.58L454.37,205.64L454.57,206.03L455.14,204.05L455.33,204.31L455.72,203.78L455.91,205.42L456.68,206.05L456.87,205.23L457.25,201.63L457.83,202.62L458.02,202.49L458.21,199.67L458.4,194.13L458.6,194.87L459.17,194.28L459.36,192.87L459.75,194.81L459.94,194.87L460.52,194.28L460.71,195.22L460.9,195.22L461.09,194.21L461.28,193.78L461.86,195.04L462.05,194.52L462.44,190.53L463.2,195.98L463.4,194.07L464.74,189.96L464.93,193.93L465.12,193.19L465.31,193.54L465.89,193.54L468.58,201.37L468.77,195.71L469.15,194.69L469.35,198.43L469.92,196.74L470.11,193.37L470.31,191.38L470.69,194.34L471.27,194.34L472.03,199.68L472.61,202.7L472.8,203.24L472.99,200.83L473.19,204.41L473.38,203.28L473.95,198.88L474.34,196.62L475.3,207.41L475.49,201.9L476.64,221.65L476.83,214.17L477.22,223.05L477.41,221.73L477.98,220.21L478.56,210.67L478.75,216.8L479.33,214.91L479.52,214.98L479.71,217.63L479.9,214.27L480.1,216.49L480.86,210.98L481.06,209.84L481.25,213.86L481.44,213.86L482.02,212.99L482.78,202.76L483.36,205.04L483.55,207.56L483.74,204.29L483.94,204.93L484.13,204.75L484.7,203.13L484.9,204.69L485.09,201.12L485.28,203.92L486.43,205.99L486.81,204.38L487.39,205.43L488.16,210.81L488.73,206.53L489.5,210.81L490.08,210.81L490.46,206.8L490.85,209.72L491.42,208.27L493.15,194.77L493.34,199.97L494.11,197.94L494.3,198.39L494.49,196.74L494.88,198.73L495.45,197.29L495.64,195.71L495.84,196.09L496.8,196.48L497.56,191.84L498.14,185.05L498.33,187.48L498.52,183.57L498.72,179.01L498.91,180.94L499.48,178.4L499.68,174.47L500.25,175.63L500.83,174.61L501.21,171.2L501.4,173.61L501.6,160.01L502.17,140.54L502.56,141.75L502.75,147.46L502.94,149.62L503.52,149.5L503.71,146.91L503.9,143.91L504.28,147.25L504.86,147.58L505.05,151.6L505.63,150.62L506.2,146.91L506.78,153.95L506.97,150.77L507.55,149.6L507.93,143.66L508.31,146.39L508.89,148.87L509.27,142.79L509.47,144.85L509.66,149.58L510.23,149.58L510.43,152.89L510.62,148.56L511,149.77L511.58,146.27L511.77,135.13L512.15,142.64L512.35,146.15L512.92,145.4L513.11,145.63L513.31,150.98L514.65,144.39L516.38,128.27L516.95,123.82L517.14,126.47L517.34,128.65L517.72,132.62L518.3,130.82L519.06,129.25L519.64,132.56L519.83,132.6L520.02,138.58L521.75,122.77L522.33,127.75L522.52,130.61L522.71,123.88L522.9,126.1L523.1,118.99L523.67,106.33L524.06,111.23L524.25,111.9L524.44,114.57L525.01,108.72L525.21,111.83L525.59,110.06L525.78,107.44L526.36,111.04L526.55,103.01L526.93,105.85L527.13,97.01L527.7,91.45L527.89,93.01L528.09,95.57L529.05,97.36L529.24,94.16L529.43,93.93L529.62,95.93L530.39,93.98L530.58,95.85L530.77,96.22L530.97,91.59L531.73,91.21L531.93,92.45L532.31,85.14L533.08,79.56L533.46,71.36L533.65,59.15L533.85,64.9L534.42,56.69L534.61,55.86L534.81,63.77L535,48.62L535.19,51.18L535.76,51.18L536.34,32.44L536.53,42.97L537.11,40.08L537.88,58.96L538.45,48.18L539.8,35.82L539.99,35.55L540.18,33.43L541.72,31.45L541.91,27.19L542.48,33.68L543.25,49.69L543.83,42.99L545.17,74.89L545.36,69.74L545.55,75.09L545.75,60.93L545.94,65.72L546.51,64.08L546.71,63.51L546.9,64.01L547.09,72.97L547.28,74.81L547.86,67.33L548.24,84.63L548.43,81.5L548.63,68.64L549.2,73.21L549.39,71.78L549.59,65.02L549.78,51.3L550.74,56.27L550.93,61.63L551.12,54.18L551.31,55.51L551.89,59.51L552.08,58.73L552.27,59.63L552.47,64.87L552.66,63.84L553.23,71.08L553.43,72.03L553.62,66.87L553.81,71.25L554,64.26L554.58,58.2L554.77,58.73L554.96,62.12L555.34,68.26L556.5,67.71L556.69,68.07L557.26,77.58L557.46,76.45L557.65,86.21L557.84,85.07L558.03,77.27L558.61,82.87L558.8,80.68L558.99,77.39L559.38,78.55L560.34,69.82L560.53,70.3L561.49,64.54L561.68,63.61L561.87,68.09L562.06,62.43L562.64,65.15L562.83,69.99L563.22,65.1L563.41,65.08L564.18,62.56L564.37,65.57L564.56,62.49L564.75,69.52L565.33,73.01L565.52,72.6L565.71,68.97L566.86,60.15L567.05,60.3L567.25,63.97L568.21,60.53L568.4,64.33L568.59,65.13L568.78,59.45L569.74,51.37L569.93,65.85L570.7,70.45L570.89,68.24L571.09,65.13L571.47,67.41L572.05,69.82L572.24,74.27L572.62,68.76L572.81,67.73L573.39,67.26L573.58,63.99L573.97,62.28L574.16,64.41L574.73,64.39L575.5,70.13L576.08,71.97L576.84,85.71L577.42,79.72L578.76,62.77L578.96,62.73L580.3,50.72L580.49,56.65L581.45,53L581.64,54.11L583.18,68.56L583.37,67.88L583.56,69.05L584.14,67.97L584.33,76.97L586.25,80.91L586.83,80.44L587.02,82.69L587.21,81.03L587.4,75.57L588.36,66.25L588.55,69.16L588.75,67.67L588.94,72.04L589.51,73.28L589.9,73.05L590.09,68.27L590.28,73.16L590.86,72.27L591.05,72.29L591.24,72.5L591.43,64.5L591.63,64.48L592.2,57.89L592.39,56.05L592.59,63.63L592.78,63.65L592.97,62.59L593.74,63.88L593.93,61.81L594.89,49.76L595.08,56.94L595.46,58.31L595.66,65.98L596.62,58.48L596.81,56.22L597.58,61.64L597.77,54.9L598.34,61.66L598.92,67.4L599.11,67.67L599.3,58.97L600.26,69.74L600.46,64.43L600.65,56.23L601.03,57.55L601.61,53.25L602.38,58.33L603.14,30.52L603.72,51.56L604.3,48.35L605.64,15.1L605.83,29.61L607.17,53.72L607.37,52.45L607.56,66.68L607.75,64.07L609.67,54.08L610.05,47.26L610.25,48.98L610.44,56.85L611.01,59.48L611.21,49.39L612.74,67.7L612.93,76.24L613.7,86.59L613.89,84.38L614.09,81.06L614.47,90.73L615.04,102.99L615.24,101.48L615.43,90.96L616.39,102.97L616.58,97.04L617.16,86.34L617.73,85.91L617.92,85.66L618.12,89.26L618.31,83.78L618.5,86.32L619.08,87.17L619.27,80.95L619.65,91.59L619.84,94.72L621.19,102.19L621.76,105.85L621.96,106.13L622.15,97.47L622.53,104.17L623.11,103.29L623.3,101.84L623.49,102.78L623.68,105.66L624.84,121.44L625.03,110.86L625.22,115.75L626.37,117.41L626.56,118.52L627.14,127.75L627.91,119.95L628.48,121.12L628.67,114.92L629.06,121.55L629.25,120.33L629.83,118.8L630.02,124.73L630.4,119.86L630.59,113.96L631.17,113.96L631.36,110.69L631.75,108.48L632.51,115.36L632.71,113.81L632.9,114.6L633.09,120.18L633.86,131.49L634.05,127.99L634.24,123.85L634.43,132.93L634.63,131.91L635.2,131.91L635.39,127.73L635.78,133.79L635.97,129.94L636.54,130.06L638.08,150.94L638.27,152.12L638.66,139.38L639.23,144.52L639.42,144.54L639.62,139.85L640,130.56" style="vector-effect: non-scaling-stroke; fill: none; stroke: rgb(255, 127, 14); stroke-opacity: 1; stroke-width: 2px; opacity: 1;"/></g><g class="points"/><g class="text"/></g></g></g></g><path class="xlines-above crisp" style="fill: none;" d="M0,0"/><path class="ylines-above crisp" style="fill: none;" d="M0,0"/><g class="overlines-above"><path class="xy2-x crisp" style="fill: none;" d="M0,0"/><path class="xy2-y crisp" style="fill: none;" d="M0,0"/></g><g class="xaxislayer-above"><g class="xtick"><text text-anchor="middle" x="0" y="385" transform="translate(101.66,0)" style="font-family: 'Open Sans', verdana, arial, sans-serif; font-size: 12px; fill: rgb(68, 68, 68); fill-opacity: 1; white-space: pre; opacity: 1;">2014-01-01</text></g><g class="xtick"><text text-anchor="middle" x="0" y="385" style="font-family: 'Open Sans', verdana, arial, sans-serif; font-size: 12px; fill: rgb(68, 68, 68); fill-opacity: 1; white-space: pre; opacity: 1;" transform="translate(241.79,0)">2016-01-01</text></g><g class="xtick"><text text-anchor="middle" x="0" y="385" style="font-family: 'Open Sans', verdana, arial, sans-serif; font-size: 12px; fill: rgb(68, 68, 68); fill-opacity: 1; white-space: pre; opacity: 1;" transform="translate(382.11,0)">2018-01-01</text></g><g class="xtick"><text text-anchor="middle" x="0" y="385" style="font-family: 'Open Sans', verdana, arial, sans-serif; font-size: 12px; fill: rgb(68, 68, 68); fill-opacity: 1; white-space: pre; opacity: 1;" transform="translate(522.24,0)">2020-01-01</text></g><g class="xtick"><text text-anchor="middle" x="0" y="385" style="font-family: 'Open Sans', verdana, arial, sans-serif; font-size: 12px; fill: rgb(68, 68, 68); fill-opacity: 1; white-space: pre; opacity: 1;" transform="translate(662.57,0)">2022-01-01</text></g></g><g class="yaxislayer-above"><g class="ytick"><text text-anchor="end" x="49" y="4.199999999999999" transform="translate(0,336.07)" style="font-family: 'Open Sans', verdana, arial, sans-serif; font-size: 12px; fill: rgb(68, 68, 68); fill-opacity: 1; white-space: pre; opacity: 1;">−50</text></g><g class="ytick"><text text-anchor="end" x="49" y="4.199999999999999" style="font-family: 'Open Sans', verdana, arial, sans-serif; font-size: 12px; fill: rgb(68, 68, 68); fill-opacity: 1; white-space: pre; opacity: 1;" transform="translate(0,259.34000000000003)">0</text></g><g class="ytick"><text text-anchor="end" x="49" y="4.199999999999999" style="font-family: 'Open Sans', verdana, arial, sans-serif; font-size: 12px; fill: rgb(68, 68, 68); fill-opacity: 1; white-space: pre; opacity: 1;" transform="translate(0,182.62)">50</text></g><g class="ytick"><text text-anchor="end" x="49" y="4.199999999999999" style="font-family: 'Open Sans', verdana, arial, sans-serif; font-size: 12px; fill: rgb(68, 68, 68); fill-opacity: 1; white-space: pre; opacity: 1;" transform="translate(0,105.89)">100</text></g></g><g class="overaxes-above"><g class="xy2-x"/><g class="xy2-y"><g class="y2tick"><text text-anchor="start" x="711" y="4.199999999999999" transform="translate(0,331.1)" style="font-family: 'Open Sans', verdana, arial, sans-serif; font-size: 12px; fill: rgb(255, 0, 0); fill-opacity: 1; white-space: pre; opacity: 1;">20</text></g><g class="y2tick"><text text-anchor="start" x="711" y="4.199999999999999" style="font-family: 'Open Sans', verdana, arial, sans-serif; font-size: 12px; fill: rgb(255, 0, 0); fill-opacity: 1; white-space: pre; opacity: 1;" transform="translate(0,288.27)">40</text></g><g class="y2tick"><text text-anchor="start" x="711" y="4.199999999999999" style="font-family: 'Open Sans', verdana, arial, sans-serif; font-size: 12px; fill: rgb(255, 0, 0); fill-opacity: 1; white-space: pre; opacity: 1;" transform="translate(0,245.44)">60</text></g><g class="y2tick"><text text-anchor="start" x="711" y="4.199999999999999" style="font-family: 'Open Sans', verdana, arial, sans-serif; font-size: 12px; fill: rgb(255, 0, 0); fill-opacity: 1; white-space: pre; opacity: 1;" transform="translate(0,202.61)">80</text></g><g class="y2tick"><text text-anchor="start" x="711" y="4.199999999999999" style="font-family: 'Open Sans', verdana, arial, sans-serif; font-size: 12px; fill: rgb(255, 0, 0); fill-opacity: 1; white-space: pre; opacity: 1;" transform="translate(0,159.78)">100</text></g><g class="y2tick"><text text-anchor="start" x="711" y="4.199999999999999" style="font-family: 'Open Sans', verdana, arial, sans-serif; font-size: 12px; fill: rgb(255, 0, 0); fill-opacity: 1; white-space: pre; opacity: 1;" transform="translate(0,116.96000000000001)">120</text></g><g class="y2tick"><text text-anchor="start" x="711" y="4.199999999999999" style="font-family: 'Open Sans', verdana, arial, sans-serif; font-size: 12px; fill: rgb(255, 0, 0); fill-opacity: 1; white-space: pre; opacity: 1;" transform="translate(0,74.13)">140</text></g></g></g></g><g class="subplot xy2"/></g><g class="polarlayer"/><g class="ternarylayer"/><g class="geolayer"/><g class="funnelarealayer"/><g class="pielayer"/><g class="iciclelayer"/><g class="treemaplayer"/><g class="sunburstlayer"/><g class="glimages"/><defs id="topdefs-9002a4"><g class="clips"/><clipPath id="legend9002a4"><rect width="138" height="48" x="0" y="0"/></clipPath></defs><g class="layer-above"><g class="imagelayer"/><g class="shapelayer"/></g><g class="infolayer"><g class="legend" pointer-events="all" transform="translate(124,90.19999999999999)"><rect class="bg" shape-rendering="crispEdges" style="stroke: rgb(68, 68, 68); stroke-opacity: 1; fill: rgb(255, 255, 255); fill-opacity: 1; stroke-width: 0px;" width="138" height="48" x="0" y="0"/><g class="scrollbox" transform="" clip-path="url(#legend9002a4)"><g class="groups"><g class="traces" style="opacity: 1;" transform="translate(0,14.5)"><text class="legendtext" text-anchor="start" x="40" y="4.680000000000001" style="font-family: 'Open Sans', verdana, arial, sans-serif; font-size: 12px; fill: rgb(68, 68, 68); fill-opacity: 1; white-space: pre;">DRAM spot yoy</text><g class="layers" style="opacity: 1;"><g class="legendfill"/><g class="legendlines"><path class="js-line" d="M5,0h30" style="fill: none; stroke: rgb(31, 119, 180); stroke-opacity: 1; stroke-width: 2px;"/></g><g class="legendsymbols"><g class="legendpoints"/></g></g><rect class="legendtoggle" x="0" y="-9.5" width="132.28125" height="19" style="fill: rgb(0, 0, 0); fill-opacity: 0;"/></g><g class="traces" style="opacity: 1;" transform="translate(0,33.5)"><text class="legendtext" text-anchor="start" x="40" y="4.680000000000001" style="font-family: 'Open Sans', verdana, arial, sans-serif; font-size: 12px; fill: rgb(68, 68, 68); fill-opacity: 1; white-space: pre;">TSM</text><g class="layers" style="opacity: 1;"><g class="legendfill"/><g class="legendlines"><path class="js-line" d="M5,0h30" style="fill: none; stroke: rgb(255, 127, 14); stroke-opacity: 1; stroke-width: 2px;"/></g><g class="legendsymbols"><g class="legendpoints"/></g></g><rect class="legendtoggle" x="0" y="-9.5" width="132.28125" height="19" style="fill: rgb(0, 0, 0); fill-opacity: 0;"/></g></g></g><rect class="scrollbar" rx="20" ry="3" width="0" height="0" style="fill: rgb(128, 139, 164); fill-opacity: 1;" x="0" y="0"/></g><g class="g-gtitle"><text class="gtitle" x="400" y="30" text-anchor="middle" dy="0em" style="font-family: 'Open Sans', verdana, arial, sans-serif; font-size: 17px; fill: rgb(68, 68, 68); opacity: 1; font-weight: normal; white-space: pre;"><tspan style="font-weight:bold">TSM vs. DRAM spot price YOY</tspan></text></g><g class="g-xtitle"/><g class="g-ytitle"/><g class="g-y2title"/></g></svg>