<svg class="main-svg" xmlns="http://www.w3.org/2000/svg" xmlns:xlink="http://www.w3.org/1999/xlink" width="700" height="500" style="" viewBox="0 0 700 500"><rect x="0" y="0" width="700" height="500" style="fill: rgb(255, 255, 255); fill-opacity: 1;"/><defs id="defs-6ee400"><g class="clips"><clipPath id="clip6ee400xyplot" class="plotclip"><rect width="540" height="402"/></clipPath><clipPath id="clip6ee400xy2plot" class="plotclip"><rect width="540" height="402"/></clipPath><clipPath class="axesclip" id="clip6ee400x"><rect x="60" y="0" width="540" height="500"/></clipPath><clipPath class="axesclip" id="clip6ee400y"><rect x="0" y="60" width="700" height="402"/></clipPath><clipPath class="axesclip" id="clip6ee400xy"><rect x="60" y="60" width="540" height="402"/></clipPath><clipPath class="axesclip" id="clip6ee400y2"><rect x="0" y="60" width="700" height="402"/></clipPath><clipPath class="axesclip" id="clip6ee400xy2"><rect x="60" y="60" width="540" height="402"/></clipPath></g><g class="gradients"/><g class="patterns"/></defs><g class="bglayer"><rect class="bg" x="50" y="50" width="560" height="422" style="fill: rgb(229, 236, 246); fill-opacity: 1; stroke-width: 0;"/></g><g class="layer-below"><g class="imagelayer"/><g class="shapelayer"/></g><g class="cartesianlayer"><g class="subplot xy"><g class="layer-subplot"><g class="shapelayer"/><g class="imagelayer"/></g><g class="gridlayer"><g class="x"><path class="xgrid crisp" transform="translate(95.15,0)" d="M0,60v402" style="stroke: rgb(255, 255, 255); stroke-opacity: 1; stroke-width: 1px;"/><path class="xgrid crisp" transform="translate(213.38,0)" d="M0,60v402" style="stroke: rgb(255, 255, 255); stroke-opacity: 1; stroke-width: 1px;"/><path class="xgrid crisp" transform="translate(331.78,0)" d="M0,60v402" style="stroke: rgb(255, 255, 255); stroke-opacity: 1; stroke-width: 1px;"/><path class="xgrid crisp" transform="translate(450.02,0)" d="M0,60v402" style="stroke: rgb(255, 255, 255); stroke-opacity: 1; stroke-width: 1px;"/><path class="xgrid crisp" transform="translate(568.4200000000001,0)" d="M0,60v402" style="stroke: rgb(255, 255, 255); stroke-opacity: 1; stroke-width: 1px;"/></g><g class="y"><path class="ygrid crisp" transform="translate(0,447.9)" d="M60,0h540" style="stroke: rgb(255, 255, 255); stroke-opacity: 1; stroke-width: 1px;"/><path class="ygrid crisp" transform="translate(0,407.05)" d="M60,0h540" style="stroke: rgb(255, 255, 255); stroke-opacity: 1; stroke-width: 1px;"/><path class="ygrid crisp" transform="translate(0,366.2)" d="M60,0h540" style="stroke: rgb(255, 255, 255); stroke-opacity: 1; stroke-width: 1px;"/><path class="ygrid crisp" transform="translate(0,284.5)" d="M60,0h540" style="stroke: rgb(255, 255, 255); stroke-opacity: 1; stroke-width: 1px;"/><path class="ygrid crisp" transform="translate(0,243.64)" d="M60,0h540" style="stroke: rgb(255, 255, 255); stroke-opacity: 1; stroke-width: 1px;"/><path class="ygrid crisp" transform="translate(0,202.79)" d="M60,0h540" style="stroke: rgb(255, 255, 255); stroke-opacity: 1; stroke-width: 1px;"/><path class="ygrid crisp" transform="translate(0,161.94)" d="M60,0h540" style="stroke: rgb(255, 255, 255); stroke-opacity: 1; stroke-width: 1px;"/><path class="ygrid crisp" transform="translate(0,121.09)" d="M60,0h540" style="stroke: rgb(255, 255, 255); stroke-opacity: 1; stroke-width: 1px;"/><path class="ygrid crisp" transform="translate(0,80.24)" d="M60,0h540" style="stroke: rgb(255, 255, 255); stroke-opacity: 1; stroke-width: 1px;"/></g><g class="y2"><path class="y2grid crisp" transform="translate(0,420.86)" d="M60,0h540" style="stroke: rgb(214, 221, 230); stroke-opacity: 1; stroke-width: 1px;"/><path class="y2grid crisp" transform="translate(0,363.85)" d="M60,0h540" style="stroke: rgb(214, 221, 230); stroke-opacity: 1; stroke-width: 1px;"/><path class="y2grid crisp" transform="translate(0,306.84000000000003)" d="M60,0h540" style="stroke: rgb(214, 221, 230); stroke-opacity: 1; stroke-width: 1px;"/><path class="y2grid crisp" transform="translate(0,249.84)" d="M60,0h540" style="stroke: rgb(214, 221, 230); stroke-opacity: 1; stroke-width: 1px;"/><path class="y2grid crisp" transform="translate(0,192.83)" d="M60,0h540" style="stroke: rgb(214, 221, 230); stroke-opacity: 1; stroke-width: 1px;"/><path class="y2grid crisp" transform="translate(0,135.82)" d="M60,0h540" style="stroke: rgb(214, 221, 230); stroke-opacity: 1; stroke-width: 1px;"/><path class="y2grid crisp" transform="translate(0,78.81)" d="M60,0h540" style="stroke: rgb(214, 221, 230); stroke-opacity: 1; stroke-width: 1px;"/></g></g><g class="zerolinelayer"><path class="yzl zl crisp" transform="translate(0,325.35)" d="M60,0h540" style="stroke: rgb(255, 255, 255); stroke-opacity: 1; stroke-width: 2px;"/></g><path class="xlines-below"/><path class="ylines-below"/><g class="overlines-below"><path class="xy2-x"/><path class="xy2-y"/></g><g class="xaxislayer-below"/><g class="yaxislayer-below"/><g class="overaxes-below"><g class="xy2-x"/><g class="xy2-y"/></g><g class="plot" transform="translate(60,60)" clip-path="url(#clip6ee400xyplot)"><g class="scatterlayer mlayer"><g class="trace scatter tracec8e47d" style="stroke-miterlimit: 2; opacity: 1;"><g class="fills"/><g class="errorbars"/><g class="lines"><path class="js-line" d="M61.39,207.23L62.2,221.93L62.36,222.35L63.17,241.63L63.33,241.57L63.49,239.95L65.6,231.5L65.76,229.98L67.05,220.34L67.22,218.47L67.7,218.47L67.86,215.1L68.35,206.57L68.84,207.64L69,205.42L70.46,190.54L70.62,191.64L71.1,186.3L71.27,190.11L71.43,196.72L71.59,200.13L72.24,199.98L72.4,200.24L72.56,200.24L72.72,199.08L72.89,197.74L73.53,198.26L73.7,198.26L74.67,201.48L74.83,201.19L76.12,252.39L76.29,258.16L76.93,266.52L77.1,277.28L77.42,279.86L77.91,278.2L78.07,277.99L78.23,277.29L78.55,277.44L79.04,277.74L80.82,284.27L81.31,283.45L82.77,275.88L82.93,271.02L83.58,271.28L83.74,273.36L84.71,277.69L84.87,277.1L87.14,266.78L87.3,267.59L88.27,267.87L88.43,268.88L89.41,271.12L89.57,276.3L89.73,276.35L89.89,278.34L90.7,285.54L91.03,285.22L91.51,285.48L92.16,285.89L92.65,286.04L92.97,286.17L93.13,286.93L93.94,286.85L94.1,289.71L95.07,289.76L95.24,292.66L96.37,294.13L96.53,294.15L97.18,293.8L97.34,294.35L97.83,294.98L98.31,296.01L99.45,296.93L99.61,296.52L101.07,299.65L101.23,298.04L101.72,298.14L103.17,296.2L104.15,293.22L104.31,292.73L105.12,288.85L105.28,289.19L105.44,289.04L105.76,290.04L106.25,289.22L106.9,291.16L107.38,291.6L108.03,292.86L108.52,292.63L109.17,292.97L109.81,292.97L110.14,293.59L110.3,292.5L111.27,296.15L111.43,299.01L114.35,314.36L114.51,318.14L115.97,324.38L116.45,324.64L116.78,325.58L116.94,326.75L120.34,336.83L120.5,336.92L121.15,337.65L121.31,338.83L122.45,340.56L122.61,340.65L123.91,345.46L124.39,347.15L125.52,350.19L125.69,350.39L127.79,361.14L127.95,360.81L129.09,362.8L129.25,362.36L130.06,363.21L130.22,362.47L130.55,362.23L130.71,362.98L131.19,363.46L131.68,364.3L131.84,363.26L132.33,360.2L132.81,356.85L132.98,357.83L133.46,357.98L133.62,357.48L133.79,366.48L134.6,358.57L135.24,358.67L135.73,358.52L136.86,355.88L137.02,356.47L137.19,357.57L140.59,359.35L140.75,360.05L142.05,360.98L142.53,361.19L144.15,365.22L145.12,365.61L146.58,366.46L147.07,366.68L148.69,367.5L148.85,367.72L154.19,365.81L154.36,365.26L156.3,364.12L156.46,363.13L157.43,362.05L157.59,362.36L157.92,362.35L158.4,363.76L158.57,363.26L159.05,363.5L160.67,362.93L161,362.68L161.16,364.03L161.97,364.63L162.13,364.37L162.45,364.6L162.94,363.93L163.26,363.31L163.43,364L163.59,364.4L164.07,364.52L164.24,366.36L165.53,367.78L165.69,368.11L166.99,367.35L167.47,367.14L167.64,366.54L168.12,366.79L168.77,366.53L169.74,366.4L169.9,367.16L170.23,367L170.39,367.41L170.88,367.83L171.36,368.57L171.52,368.32L172.01,367.93L172.66,371.05L173.31,370.36L174.6,369.29L174.76,369.86L175.9,371.3L176.06,370.65L179.95,367.34L180.11,365.62L181.73,344.63L182.21,344.42L182.54,344.36L182.7,361.65L183.51,342.25L183.67,342.25L183.83,342.06L184,342.52L184.48,342.83L184.81,340.98L184.97,340.5L185.78,341.23L185.94,340.54L186.91,335.14L187.07,334.61L189.66,322.42L190.15,322.32L191.45,318.47L191.61,318.45L192.9,309.97L193.07,309.87L193.55,309.49L193.71,310.26L193.88,313.98L194.69,315.43L194.85,310.6L195.01,307.63L195.82,306.67L195.98,291.79L196.47,295.84L196.95,291.83L197.6,275.54L199.22,255.03L200.35,241.4L200.52,240.42L201.65,226.96L201.81,226.42L201.97,228.11L202.14,227.62L202.62,226.41L204.08,215.93L204.24,211.06L205.21,206.5L205.37,202.92L206.67,194.12L207.16,193.55L207.8,189.26L208.29,184.73L209.75,175.03L209.91,174.71L211.85,166.44L212.02,166.06L212.34,164.91L212.99,164.69L214.61,142.84L215.09,140.95L215.25,140.41L215.58,141.33L215.74,141.16L216.23,141.16L216.71,141.23L218.01,136.34L218.49,134.39L218.66,129.25L219.14,126.28L219.63,126.61L219.79,126.86L219.95,127.63L220.11,127.26L220.28,122L221.09,119.69L221.25,124.14L221.9,123.36L222.06,126.34L223.68,110.83L224.16,110.58L225.3,108.07L225.46,106.55L225.78,109.45L225.94,109.16L226.43,109.03L226.59,109.03L226.75,107.46L227.08,104.21L227.89,103.71L228.05,103.71L228.21,102.14L229.02,100.79L229.18,101.46L229.35,102.68L229.83,102.14L229.99,100.41L232.42,80.22L232.75,80.58L233.23,80.2L233.88,80.59L234.69,75.49L234.85,72.53L236.15,68.02L236.96,67.46L237.12,66.91L237.28,60.38L237.77,59.67L237.93,57.54L238.9,47.86L239.06,49.62L239.23,51.93L239.39,51.26L239.55,60.27L240.36,63.92L240.52,69.87L241.33,93.36L241.49,93.22L241.66,92.29L241.82,91.91L242.3,29.25L242.63,92.48L242.95,90.15L243.44,86.96L244.09,77.09L244.57,77.55L244.73,76.6L244.9,76.36L245.06,72.88L245.22,68.78L245.7,72.72L245.87,73.65L246.03,74.93L246.35,74.45L246.84,75.13L247,75.36L247.16,80.48L247.32,80.71L247.49,86.37L248.13,87.55L248.3,86.21L248.62,82.93L249.11,83.66L249.27,82.97L249.43,81.58L249.75,81.96L250.24,82.19L250.89,76.06L251.37,80.39L252.02,83.18L252.51,82.41L252.67,82.03L253.64,85.09L253.97,84.7L254.13,90.27L255.1,107.69L255.42,107.01L255.91,113.77L256.56,137.44L258.18,151.52L258.34,146.89L258.66,154.6L258.82,149.74L259.31,151.22L259.96,155.43L260.44,151.33L261.09,140.78L261.58,141.12L261.74,141.65L262.23,140.46L262.71,140.88L263.36,145.5L263.85,144.22L264.33,141.82L264.49,142.62L264.98,143.6L265.3,144.11L265.46,142.86L265.63,142.55L266.11,145.58L268.7,168.16L268.87,168.24L269.51,169.91L269.68,172.65L270,173.03L270.16,174.43L271.13,178.34L271.3,179.72L271.94,180.01L272.11,181.61L273.56,205.93L274.05,206.46L275.34,212.48L275.51,213.57L276.32,215.05L276.48,217.77L277.45,220.96L277.61,221.46L278.58,220L278.75,220L280.2,220.2L280.37,218.07L281.01,218.39L281.18,216.14L282.15,215.54L282.31,215.74L283.12,214.2L283.28,218.44L283.77,221.17L284.25,220.75L284.42,220.75L284.74,221.7L284.9,220.41L285.71,220.48L285.87,222.11L287.82,224.44L287.98,224.44L288.14,224.44L288.3,222.17L288.95,221.33L289.44,221.76L289.92,222.89L290.57,223.01L291.38,223.08L292.35,228.38L292.51,229.23L293.81,233.91L293.97,234.06L294.46,233.63L294.62,230.9L295.91,230.81L296.08,234.46L297.05,236.96L297.21,239.95L298.34,242.69L298.51,243.21L299.48,244.62L299.64,246.48L301.75,250.73L301.91,251.36L304.99,263.78L305.15,266.6L305.96,267.54L306.12,265.98L306.28,266.55L306.44,264L306.93,264.13L307.09,265.09L308.06,264.38L308.22,264.9L308.39,265.03L309.2,266.51L309.36,266L309.68,266L309.84,267.98L310.98,269.62L311.46,271.38L312.92,278.26L313.08,279.25L315.51,287.67L317.13,297.77L318.75,312.24L318.91,314.7L321.18,323.25L321.67,323.77L323.13,329.61L323.29,330.22L323.94,330.71L324.1,331.41L325.07,333.12L325.23,333.2L325.55,332.04L325.72,332.19L326.2,332.34L327.98,336.08L328.47,336.14L329.6,337.43L329.77,337L331.87,335.73L332.03,335.68L333.01,335.47L333.17,336.78L334.46,340.09L334.63,340.05L337.54,339.4L337.7,340.02L338.67,341.83L338.84,347.39L340.46,353.46L340.94,353.76L342.24,355.66L342.4,353.93L343.21,353.5L343.37,354.35L344.51,357.06L344.67,357.31L346.93,364.58L347.1,366.49L348.07,368.82L348.23,369.05L350.17,371.28L351.15,370.62L351.79,370.18L352.28,369.92L353.41,370.75L353.58,372.43L355.84,376.06L356,376.06L357.46,376.75L357.95,376.91L358.27,377.81L358.43,378.43L359.41,379.94L359.57,379.94L361.51,381.77L361.67,378.74L363.13,359.37L363.62,358.34L365.4,363.18L365.88,363.07L366.53,362.4L367.02,362.4L367.5,361.15L367.67,361.75L368.15,362.08L369.29,362.79L369.45,362.79L371.55,363.23L371.72,362.74L371.88,362.39L372.04,362.69L372.69,362.69L373.34,362.69L373.82,362.44L374.15,362.64L374.31,362.03L374.47,361.68L376.25,360.97L376.41,360.42L377.87,358.94L378.36,359.1L379.49,359.44L379.65,360L380.14,359.4L380.62,359.47L380.79,359.67L380.95,358.78L381.11,358.58L381.92,358.83L382.08,358.23L382.24,357.73L383.22,357.16L383.38,357.88L385.64,355.8L385.81,354.3L386.62,353.16L386.78,351.51L388.07,347.35L388.56,346.67L389.21,346.16L389.69,345.14L390.18,343.96L390.34,342.45L391.15,340.92L391.31,340.32L391.96,339.6L392.12,337.51L393.42,323.86L395.36,321.84L396.01,320.02L396.5,320.27L399.09,300.53L399.25,293.57L400.55,276.52L401.03,275.88L401.19,275.96L401.36,276.99L402.33,275.38L402.49,277.67L402.81,276.5L403.3,278.06L403.95,280.74L404.43,279.38L405.08,274.6L405.73,271.1L406.05,267.09L406.21,267.33L406.7,266.05L407.19,268.19L407.35,268.08L407.83,267.37L408,267.98L408.32,267.04L408.48,265.83L409.13,265.1L409.29,264.12L409.45,264.11L410.43,263.08L410.59,264.21L411.24,263.95L411.4,263.44L411.88,262.39L412.37,263.15L412.53,263.01L412.69,263.92L413.5,262.72L413.67,261.78L414.64,258.49L414.8,258.63L414.96,258.63L415.77,257.64L415.93,258.86L417.07,254.98L417.23,252.91L418.36,255.06L419.17,254.91L419.5,256.13L419.66,255.52L419.82,253.84L420.47,254.42L420.63,262.01L421.93,296.67L422.09,299.07L422.57,301.07L422.74,300.16L422.9,298.56L423.06,298.79L423.22,298.1L423.71,296.14L424.36,292.26L424.84,292.53L425,292.78L426.3,297.09L426.46,296.78L426.62,296.15L428.4,299.23L428.57,295.9L431,281.58L431.16,281.58L432.13,281.6L432.29,282.89L433.1,282.81L433.26,283.84L433.43,283.6L433.91,284.12L434.07,284.24L434.24,284.24L435.69,279.64L437.47,273.9L437.64,273.9L437.96,274.04L438.45,274.82L438.77,273.59L439.09,274.27L439.58,275.32L439.74,275.99L440.23,274.99L440.71,274.46L442.17,271.23L442.33,271.1L443.31,268.74L443.47,269.01L444.44,263.04L444.6,260.32L445.41,239.48L445.57,238.93L446.54,250.95L446.71,249.95L446.87,244.35L448.65,233.62L448.81,234.44L448.97,234.08L449.14,235.08L449.78,234.67L450.11,232.03L450.43,232.86L450.92,232.23L451.08,233.26L451.4,231.2L451.57,221.76L452.21,215.87L452.54,217.81L452.7,217.89L453.19,213.93L453.35,206.22L454.97,172.37L455.45,167.9L455.78,162.18L457.07,153.35L458.04,104.04L458.37,104.73L458.85,106.67L459.02,104.29L459.34,107.89L459.5,112.9L459.99,112.9L460.15,109.82L461.12,100.59L461.28,102L461.45,95.04L461.77,100.08L462.26,101.41L462.58,94.66L462.9,100.32L463.39,99.91L463.55,99.91L463.71,98.91L463.88,92.9L464.69,91.09L465.82,70.28L465.98,69.23L466.79,62.17L466.95,61.69L468.09,55.61L468.25,55.97L468.41,57.44L469.54,49.64L469.71,49.81L470.19,49.92L470.35,48.37L470.68,50.48L470.84,51.99L471.33,51.96L471.49,49.95L471.81,47.94L471.97,49.08L472.46,49.96L473.11,48.1L473.59,47.57L473.76,47.57L473.92,46.65L474.08,46.65L474.24,48.47L474.89,47.66L475.05,45.88L476.02,50.08L476.18,49.54L477.64,36.01L478.13,35.05L479.42,26.14L479.59,25.66L479.75,25.36L479.91,22.02L480.4,21.33L480.56,21.99L480.72,20.13L480.88,20.1L481.04,20.98L481.69,20.93L481.85,23.37L482.02,23.88L482.18,22.36L482.66,22.75L483.31,20.52L483.8,24.22L484.45,28.13L484.93,29.33L485.58,51.08L486.06,48.94L486.71,46.9L487.2,47.35L488.49,69.89L488.66,76.74L489.79,94.28L489.95,95.25L490.6,95.57L490.76,98.78L491.25,96.95L492.06,98.24L492.38,98.85L492.87,96.94L493.35,102.03L494.65,113.02L495.13,117.69L495.3,113.69L495.46,107.68L496.59,114.25L496.75,110.26L496.92,111.24L497.4,109.81L497.56,109.5L497.73,111.13L498.05,109.96L498.54,108.43L498.7,107.79L499.02,109.59L499.18,109.59L499.99,112.88L500.16,115.55L502.1,122.38L502.26,121.5L502.42,119.96L503.07,116.75L503.23,120.63L503.56,127.32L503.72,150.62L504.21,153.03L504.37,158.87L504.53,159.89L504.69,156.45L504.85,153.84L505.34,153.96L505.5,148.02L506.63,166.93L506.96,164.95L507.12,165.35L507.61,169.46L507.93,166.83L508.09,166.43L508.9,173.61L509.06,173.16L509.23,171.56L509.39,172.03L509.87,171.59L510.04,175.51L510.2,176.41L510.36,189.75L511.17,204.6L511.33,203.4L511.49,203.82L512.79,234.92L514.41,235.86L515.54,253.19L515.7,253.12L516.19,262.29L516.68,272.33L517.81,297.29L517.97,299.76L519.11,303.32L519.27,303.51L520.08,305.99L520.24,305.19L520.4,305.78L520.56,302.57L521.37,299.02L521.54,299.78L521.7,299.45L521.86,296.83L522.51,297.96L522.67,297.84L522.99,301.78L523.8,304.42L525.1,310.82L525.75,310.65L525.91,310.89L529.15,320.59L529.31,320.61L529.47,321.22L529.63,320.42L529.8,320.38L530.28,319.97L530.93,319.75L531.42,319.41L531.74,318.81L532.06,319.12L532.55,319.12L533.68,319.95L533.85,319.36L534.17,319.49L534.33,320.33L535.3,319.48L535.46,320.33L535.95,320.46L536.11,321.6L537.25,322.75L537.41,323L540,329.91" style="vector-effect: non-scaling-stroke; fill: none; stroke: rgb(31, 119, 180); stroke-opacity: 1; stroke-width: 2px; opacity: 1;"/></g><g class="points"/><g class="text"/></g></g></g><g class="overplot"><g class="xy2" transform="translate(60,60)" clip-path="url(#clip6ee400xy2plot)"><g class="scatterlayer mlayer"><g class="trace scatter trace76d5a5" style="stroke-miterlimit: 2; opacity: 1;"><g class="fills"/><g class="errorbars"/><g class="lines"><path class="js-line" d="M0,375.12L1.46,376.34L2.59,377.9L3.24,376.92L3.56,379.19L4.21,380.25L4.37,378.92L5.99,376.28L6.48,377.67L6.96,375.53L7.61,375.85L7.77,375.78L7.94,375.73L8.1,379.48L8.75,379.91L8.91,379.64L9.07,379L9.88,379.73L10.2,379.09L10.37,378.47L11.34,380.94L11.5,380.83L12.8,381.4L13.28,381.76L13.77,381.19L13.93,380.83L14.74,380.74L14.9,379.8L15.55,380.05L15.71,379.27L16.03,378.63L16.2,379.02L16.68,378.36L16.84,377.95L17.33,378.29L17.82,377.63L18.95,377.56L19.11,377.77L20.08,379.14L21.38,377.99L21.54,378.45L21.7,377.51L21.87,376.56L22.68,376.12L22.84,375.28L23.65,374.11L23.81,375.12L24.62,375.37L24.78,375L25.91,376.58L26.08,376.14L27.37,377.9L27.53,377.54L28.02,377.45L29.15,378.66L29.32,377.99L29.8,377.38L30.29,378.13L30.94,377.63L31.42,377.74L32.56,378.79L32.72,378.86L33.2,379.07L33.69,378.73L34.82,377.72L34.99,378.04L35.31,378.7L36.12,379.25L36.28,378.84L36.44,379.59L37.09,379.25L37.25,378.18L37.58,376.42L37.74,377.29L38.22,377.29L38.55,376.85L39.68,379.02L41.14,378.68L42.11,378.02L42.27,377.01L44.22,377.15L44.38,376.74L45.35,375.87L45.51,374.77L46.32,375L46.48,373.5L46.81,374.71L47.29,374.23L47.46,374.07L47.94,375.55L48.43,375.3L48.59,374.2L48.75,374.27L48.91,373.52L49.72,371.46L50.05,372.33L50.21,372.72L51.83,371.6L51.99,371.03L52.15,371.85L52.32,370.55L52.48,370.55L52.96,370.91L53.45,370.91L53.61,372.4L54.1,371.51L54.42,371.96L55.23,372.97L56.36,370.85L56.53,370.73L57.82,371.05L57.98,370.73L59.12,370.59L59.28,370.91L60.25,369.45L60.41,369.7L60.9,369.43L61.06,369.22L61.55,369.7L62.03,369.43L62.52,368.33L62.68,369.57L63.33,370.41L63.65,369.86L63.82,369.27L64.3,369.02L64.46,367.69L64.95,366L65.43,366.1L65.6,366.32L65.76,366.67L65.92,365.46L66.08,365.78L66.57,364.96L66.73,365.4L66.89,369L67.05,370.7L67.7,370.17L67.86,369.51L68.03,369.58L68.19,369.09L68.35,370.35L69,369.91L69.16,369.49L69.32,371.17L69.48,370.7L69.97,369.98L70.62,371.66L71.1,371.05L71.27,371.19L71.43,370.4L71.59,369.93L72.24,370.07L72.4,369.44L72.72,369.72L72.89,369.23L73.37,369.58L74.83,368.02L74.99,368.39L76.12,369.07L76.29,370.38L76.77,370.61L76.93,370.05L77.1,369.72L77.26,369.02L77.42,369.96L77.91,370.33L78.07,370.38L78.23,369.79L78.39,370.91L79.2,370.75L80.5,369.77L80.66,370.07L80.82,372.48L81.47,370.84L81.63,371.01L81.79,369.49L82.44,369.14L82.6,367.92L83.09,368.42L83.58,367.99L84.06,368.58L84.22,366.45L84.71,366.73L84.87,366.62L85.19,366.97L85.84,365.89L86,366.03L86.17,366.38L86.49,365.57L86.98,366.71L88.43,363.75L88.6,363.75L88.76,363.07L89.24,364.31L89.41,365.17L89.89,364.77L90.38,365.33L90.54,365.15L90.7,366.06L90.86,366.17L91.67,367.81L92,366.99L92.16,366.03L93.94,365.47L94.1,365.61L95.07,367.99L95.24,367.27L95.4,366.94L96.05,369.33L96.21,368.72L96.37,368.7L96.53,364.42L97.18,365.1L97.34,363.96L98.48,361.39L98.64,361.99L98.96,364.84L99.45,364.31L99.61,363.82L99.93,362.62L100.1,363.93L100.58,364.94L101.23,359.87L101.72,359.87L103.17,359.4L103.34,360.24L104.31,361.06L104.47,360.76L105.28,364.05L105.6,362.93L105.76,362.11L107.38,359.96L107.55,360.66L108.03,364.31L108.52,363.58L109.17,362.55L109.81,363.25L109.98,363.7L110.3,363L110.79,363.39L111.11,362.97L111.43,363.65L111.92,363.53L112.08,363.39L112.24,362.2L113.05,358.54L113.22,359.47L113.38,359.99L114.35,361.15L114.51,360.78L115.48,360.94L115.64,360.8L117.75,361.22L117.91,360.43L119.86,364.98L120.02,364.56L120.18,363.39L120.5,362.6L120.99,363.56L121.48,362.39L121.64,363.23L122.29,361.99L122.45,362.06L122.61,361.64L122.77,362.69L123.26,363.95L123.42,363.16L123.58,362.63L123.91,362.1L124.39,362.6L124.55,362.56L124.72,364.31L124.88,364.34L125.04,363.49L126.17,362.39L126.66,362.7L126.82,362.75L126.98,364.34L127.14,364.12L127.31,365.74L127.95,365.16L128.12,364.6L128.28,363.18L128.44,364.6L128.93,365.54L129.57,367.21L130.06,365.81L130.71,368.77L131.19,369.01L132.49,372.67L132.65,371.01L132.98,369.69L133.46,369.98L133.62,371.11L133.79,369.83L134.6,370.48L134.76,369.57L135.24,369.93L135.73,369.59L136.21,368.1L136.38,368.22L136.86,368.41L137.02,369.81L137.51,369.57L138.16,369.95L138.32,367.88L139.62,364.27L140.43,365.01L140.59,364.05L140.75,364.99L140.91,364.48L141.4,364.31L142.05,363.74L142.53,364.48L142.86,364.68L143.02,365.3L143.83,363.01L143.99,361.13L144.15,362.51L145.12,363.47L145.45,365.13L146.58,362.87L147.71,363.78L148.2,363.04L148.85,361.71L149.33,361.88L150.47,364.34L150.63,362.89L150.79,362.07L151.12,362.63L151.6,362.58L152.25,362.1L152.74,362.43L152.9,362.27L153.06,362.75L153.22,363.06L155.33,368.53L155.49,365.3L156.14,367.04L156.3,365.69L156.46,367.06L156.78,365.04L157.27,365.37L157.76,365.76L157.92,364.03L158.57,363.52L158.73,362.65L158.89,361.9L159.05,363.06L160.67,364.29L161.16,360.53L161.32,360.58L161.81,360.15L161.97,361.5L162.45,360.6L162.94,361.13L163.59,358.48L164.07,358.36L164.56,358.27L164.72,356.8L165.37,357.93L165.53,355.76L167.47,356.12L167.64,355.3L167.8,354.12L168.12,354.94L168.77,356.41L168.93,356.15L169.26,356.97L169.74,356.41L169.9,356.27L170.07,354.82L170.23,356.92L170.88,356.44L171.04,357.25L172.17,357.62L172.33,357.04L173.31,361.69L173.47,361.45L174.28,361.57L174.44,361.52L174.93,362.89L175.57,362.58L175.73,361.21L175.9,361.86L176.06,360.27L176.54,359.4L177.68,358.12L177.84,358.32L178.97,355.09L179.14,354.44L180.11,356.27L180.43,355.57L180.59,355.59L181.57,353.28L181.73,356L182.38,354.73L182.54,353.38L183.35,351.55L183.51,352.23L183.67,352.5L183.83,352.1L184,351.05L184.48,349.88L184.97,350.1L185.13,350.35L186.26,348.53L186.75,348.23L186.91,347.05L187.4,348.43L187.88,346.33L188.21,347.48L188.53,345.9L189.02,345.15L189.18,344.38L189.66,344.78L190.15,344.4L191.28,346.88L191.45,346.63L191.61,346.9L191.93,346.28L192.42,346.13L192.58,346.33L192.74,346.03L192.9,345.48L193.88,343.33L194.04,343.4L194.2,346.4L195.82,343.05L195.98,343.13L196.14,341.63L196.3,341.23L196.47,342.58L196.95,343.28L197.6,341.4L199.22,339.68L199.54,339.51L199.71,341.55L199.87,341.23L200.35,341.45L201.65,339.01L201.81,339.86L202.14,340.95L202.62,340.13L203.27,342.28L203.76,339.51L203.92,339.53L204.08,341.4L204.89,345.75L205.05,344.88L205.21,343.23L205.54,344.2L206.02,343.75L206.51,343.15L206.67,343.73L207.16,343.73L207.32,344L207.48,343.65L207.64,346.5L208.94,342.58L209.42,343.13L209.59,341.98L209.75,343.2L209.91,342.48L210.07,344.18L211.04,346.03L211.21,345.25L211.69,345.25L212.18,345.05L212.34,346L214.28,342.45L214.45,344.65L216.39,340.83L216.55,339.61L216.71,340.11L218.01,340.45L218.66,341.58L218.82,342.05L218.98,342.35L219.14,341.1L219.63,338.66L219.79,339.56L220.11,337.08L220.28,337.03L221.09,337.71L221.25,338.51L221.41,338.08L221.9,339.06L222.06,339.21L222.22,338.93L222.38,340.7L223.03,340.75L223.19,339.61L223.52,340.43L223.68,340.23L224.16,339.13L224.33,339.86L224.49,338.11L224.65,336.86L225.3,335.76L225.62,336.16L225.78,336.48L226.59,334.51L226.75,335.56L226.92,335.21L227.08,335.78L227.89,335.63L228.86,336.88L229.02,337.18L229.35,338.31L229.83,337.81L229.99,338.41L230.16,338.86L230.48,337.68L230.97,336.13L232.42,332.16L232.59,332.53L233.72,328.98L233.88,329.46L234.37,330.23L234.53,330.31L234.69,331.83L235.66,329.38L235.82,329.08L236.15,329.11L236.96,329.48L237.93,326.81L238.09,326.73L238.25,325.81L238.42,328.41L238.9,329.78L240.04,327.36L240.2,327.56L241.17,325.22L241.33,327.88L241.49,327.22L241.66,328.6L241.82,328.22L242.3,328.42L242.63,328.58L242.79,329.4L243.76,326.35L243.92,325.17L244.09,324.91L244.57,325.78L244.73,325.88L244.9,324.5L245.22,325.94L245.7,324.99L245.87,325.29L246.03,324.99L246.35,325.91L246.84,325.65L247.16,325.37L247.32,326.09L247.49,325.47L247.97,323.53L248.3,324.37L248.46,327.24L249.27,324.47L249.43,324.68L249.59,326.09L250.24,325.6L250.4,324.22L252.51,322.42L252.67,323.37L253.8,320.78L253.97,321.63L254.13,322.01L254.29,321.32L254.78,320.24L254.94,319.65L255.1,320.88L255.26,319.81L255.42,321.01L256.39,322.86L256.56,321.58L258.34,317.93L258.5,314.4L259.63,311.45L259.8,312.55L260.93,312.22L261.09,309.78L262.23,309.68L262.71,309.06L262.87,308.86L263.04,309.06L263.2,311.09L263.85,310.14L264.01,310.52L264.17,311.34L265.14,308.68L265.3,309.11L265.46,309.11L265.63,307.63L266.44,316.81L266.76,316.06L267.25,316.86L267.57,318.68L267.89,317.86L268.38,316.91L268.7,317.11L269.03,316.58L269.51,316.83L270,317.27L270.16,316.24L270.65,316.24L270.81,317.99L271.13,315.96L271.3,316.19L271.94,312.68L272.43,308.98L272.92,309.04L273.08,309.7L273.4,312.65L273.56,312.24L274.05,312.24L275.18,298.93L275.34,299.19L275.51,301.62L275.67,302.21L275.83,300.62L276.32,301.45L276.8,301.32L277.94,314.37L278.1,311.52L278.58,308.81L278.75,309.19L278.91,307.47L280.2,309.16L280.37,305.29L280.85,303.98L281.01,306.01L281.34,308.32L281.5,307.57L281.99,306.34L282.15,306.22L282.31,304.52L282.47,305.55L282.63,303.52L283.12,301.91L283.61,301.68L284.25,303.5L284.42,302.91L284.58,303.24L284.74,305.83L284.9,308.68L285.39,304.34L285.55,306.86L285.71,308.39L285.87,305.65L286.03,305.65L286.52,308.88L286.84,305.19L287.65,307.42L288.14,305.42L288.3,308.5L288.79,307.93L288.95,309.37L289.11,310.37L289.27,316.5L290.41,319.99L290.57,319.99L291.38,321.06L291.54,320.17L291.7,318.91L292.19,319.27L292.35,317.4L293.32,315.42L293.49,317.09L293.65,315.83L293.81,317.96L293.97,319.35L294.78,316.19L295.1,317.09L295.59,317.09L295.75,320.01L296.24,317.34L296.72,315.37L297.86,318.47L298.02,317.34L299.15,321.55L299.32,319.52L300.13,321.56L300.29,321.69L300.45,324.2L300.77,321.43L301.26,321.48L301.58,321.87L301.75,321.35L301.91,319.55L302.56,317.81L302.72,320.34L304.01,312.85L304.18,310.43L304.66,310.4L304.82,311.32L305.31,308.53L305.79,309.48L305.96,309.16L306.12,307.84L306.44,307.89L306.93,309.53L307.25,307.15L307.41,307.5L307.58,309.63L309.2,312.09L309.36,310L309.68,310.56L309.84,309.08L310.33,308.31L310.49,306.15L310.65,301.46L310.98,302.85L311.46,302.85L312.11,299.48L312.6,300.16L312.76,300.35L312.92,301.96L313.08,303.3L313.25,300.72L313.73,302.43L313.89,302.96L314.22,301.35L314.38,301.64L315.03,301.35L315.35,299.79L315.51,301.38L318.27,315.65L318.43,312.32L319.72,321.64L320.05,321.14L320.53,322.03L321.02,314.86L321.18,315.57L321.67,316.36L321.99,314.51L322.15,315.78L322.32,317.44L322.8,320.11L323.13,318.05L323.29,316.26L324.1,323.85L324.26,322.45L324.42,322.45L324.58,323.01L325.07,320.69L325.23,320.79L325.39,317.6L325.72,318.71L326.2,315.7L326.85,321.53L327.34,321.77L327.66,319.26L327.82,319.39L327.98,321.5L328.47,322.32L328.63,320.9L329.77,324.78L329.93,320.9L330.09,320.85L330.25,319.9L331.06,321.53L331.22,327.23L332.52,321.29L333.01,323.54L333.33,323.85L334.14,320.69L334.3,321.93L334.46,321.61L334.63,318.58L334.79,317.26L335.27,319.1L335.43,322.03L335.76,318.63L335.92,318.76L337.54,316.86L337.7,315.94L338.03,317.47L338.19,317.39L338.67,317.39L339.97,313.41L340.13,313.8L340.29,314.86L340.94,314.59L341.1,314.94L341.59,317.1L342.08,315.94L343.7,309.61L343.86,311.22L344.34,312.56L345.48,308.74L345.64,309L346.61,306.05L346.77,306.52L347.1,306.81L347.91,304.41L348.07,300.77L348.39,298.11L348.88,298.76L349.04,298.05L349.2,298.08L349.36,300.53L350.17,302.27L351.15,302.43L351.47,302.59L351.63,303.78L353.9,317.44L354.06,317.1L354.55,317.1L354.71,318.55L355.19,316.7L355.68,315.46L356,317.02L356.98,312.46L357.14,313.78L357.3,313.8L357.46,318.05L357.95,318.52L358.11,314.43L359.08,309.71L359.24,312.58L359.57,310.77L359.73,311.9L360.22,305.93L361.35,311.5L361.51,310.55L362.48,304.74L362.65,304.87L362.81,305.25L362.97,301.03L363.62,297.21L363.94,297.38L364.1,299.87L364.27,300.3L364.75,299L365.88,310.01L366.05,306.25L366.21,306.25L366.37,304.52L367.02,307.06L367.18,304.68L367.34,308.5L367.67,305.49L368.15,304.84L368.48,302.68L368.64,303.9L368.8,307.09L369.61,305.2L369.77,303.49L370.42,302.54L370.58,305.01L370.91,298.19L371.55,299.24L371.72,298.57L373.17,295.72L373.34,298.52L373.98,297.84L374.15,295.42L374.96,291.42L376.25,287.66L377.38,280.78L377.55,281.49L377.87,283.8L378.36,281.84L379,278.77L379.49,278.28L380.14,276.13L380.62,272.35L381.11,271.86L381.27,274.14L381.92,275.99L382.08,274.01L382.24,275.09L382.41,272.89L382.89,272.54L383.05,271.61L383.38,273.73L383.54,274.25L384.51,271.26L384.67,273.43L385.32,274.28L385.48,273.19L385.81,268.4L386.29,269.71L386.45,269.54L387.59,256.73L387.75,257.08L388.07,259.4L388.56,258.6L388.72,259.86L388.88,259.86L389.05,258.52L389.21,257.95L389.69,259.62L389.86,258.93L390.18,253.63L390.83,260.88L390.99,258.33L391.15,257.15L392.12,252.86L392.29,258.14L392.45,257.15L393.1,257.62L393.26,258.55L393.42,258.25L395.36,268.04L395.85,259.15L396.01,264.13L396.5,261.89L396.82,254.75L397.14,258.69L397.63,258.69L398.28,265.8L398.76,269.82L398.93,270.53L399.09,267.33L399.25,272.09L399.41,270.59L399.9,264.73L400.22,261.72L401.03,276.09L401.19,268.75L402.17,295.04L402.33,285.09L402.65,296.91L402.81,295.15L403.3,293.13L403.79,280.43L403.95,288.59L404.43,286.08L404.6,286.16L404.76,289.69L405.73,280.84L405.89,279.33L406.21,284.67L406.7,283.51L406.86,278.33L407.02,281.01L407.19,273.46L407.35,269.9L408,276.29L408.16,271.94L408.32,272.79L408.48,272.55L408.97,270.4L409.13,272.46L409.29,267.72L409.45,271.44L410.43,274.2L410.75,272.05L411.24,273.46L411.88,280.62L412.37,274.92L413.02,280.62L413.5,280.62L413.83,275.27L414.15,279.16L414.64,277.23L416.09,259.26L416.26,266.18L417.23,261.88L417.39,262.21L417.55,264.54L418.04,262.62L418.2,260.52L419.17,261.54L419.33,260.49L419.5,260.35L419.66,255.36L419.82,255.36L420.31,246.32L420.47,249.57L420.63,244.35L420.79,238.28L420.95,240.86L421.44,237.48L421.6,232.24L421.76,234.73L422.09,233.79L422.57,232.43L422.9,227.89L423.06,231.1L423.22,213L423.71,187.08L424.19,196.28L424.36,199.16L424.84,199L425,195.56L425.16,191.57L425.49,196L425.97,196.45L426.14,201.8L426.62,200.5L427.11,195.56L427.59,204.93L427.76,200.69L428.24,199.14L428.57,191.24L428.89,194.87L429.38,198.17L429.7,190.07L430.02,199.11L430.51,199.11L430.67,203.52L430.83,197.75L431.16,199.36L431.64,194.7L431.81,179.87L432.29,194.54L432.78,193.54L432.94,193.85L433.1,200.97L434.24,192.21L435.69,170.74L436.18,164.82L436.34,168.35L436.5,171.25L436.83,176.53L437.31,174.14L437.96,172.05L438.45,176.45L438.61,176.51L438.77,184.47L440.23,163.42L440.71,170.05L440.88,173.86L441.04,164.9L441.2,167.85L441.36,158.39L441.85,141.54L442.33,148.95L442.5,152.51L443.63,143.02L444.12,147.81L445.25,121.73L445.41,123.81L446.38,129.6L446.54,125.34L446.71,125.04L446.87,127.69L447.52,125.1L447.68,127.58L447.84,128.08L448,121.91L448.65,121.41L448.81,123.06L449.78,105.91L449.95,102.92L451.08,74.35L451.24,84.88L452.21,51.17L452.38,53.01L452.54,43.18L452.7,57.2L453.19,53.35L453.83,78.48L454.32,64.13L455.61,47.32L455.78,44.49L457.07,41.87L457.23,36.2L457.88,57.31L458.04,48.38L458.21,65.97L458.37,66.14L458.85,57.23L459.99,99.68L460.15,92.84L460.31,99.96L460.47,81.11L460.64,87.48L461.12,85.3L461.28,84.54L461.45,85.21L461.61,97.14L461.77,99.58L462.26,89.63L462.58,112.66L462.74,108.48L462.9,91.37L463.39,97.45L463.55,95.54L463.71,86.55L463.88,68.29L464.69,74.9L464.85,82.04L465.01,72.12L465.17,73.89L465.66,79.21L465.82,78.17L465.98,79.38L466.14,86.35L466.3,84.98L466.79,94.62L466.95,95.88L467.11,89.01L467.28,94.84L467.44,85.54L467.92,77.47L468.09,78.17L468.25,82.68L468.57,90.86L469.54,90.14L469.71,90.61L470.19,103.27L470.35,101.76L470.52,114.76L470.68,113.25L470.84,102.85L471.33,110.3L471.49,107.39L471.65,103.02L471.97,104.56L473.11,89.13L473.59,89.13L474.08,90.64L474.24,83.1L474.73,86.72L474.89,93.16L475.37,86.63L476.02,83.27L476.35,83.19L476.99,97.18L477.16,96.65L477.32,91.81L478.29,80.07L478.45,80.27L478.61,85.15L479.42,80.57L479.59,85.63L479.75,86.7L479.91,79.14L480.72,68.38L480.88,87.65L481.53,93.78L481.69,90.83L481.85,86.7L482.83,98.87L482.99,94.57L484.28,82.91L484.45,85.74L484.93,85.72L485.09,90.94L486.06,95.8L486.23,105.69L486.71,114.09L487.2,106.11L488.66,79.42L488.82,78.5L489.63,67.51L489.79,75.4L490.6,70.54L490.76,72.03L490.92,76.5L491.09,77.4L491.25,85.97L492.38,91.91L492.87,90.48L493.19,103.24L493.35,103.16L494.65,107.7L495.13,107.08L495.3,110.07L496.43,88.19L496.75,90.08L496.92,95.89L497.4,97.55L497.73,97.24L497.89,90.87L498.05,97.38L498.7,96.23L498.86,96.51L499.83,74.61L499.99,84.7L500.16,84.73L500.32,83.32L500.97,85.04L501.13,82.27L501.94,66.23L502.1,75.79L502.59,87.83L503.07,81.65L503.23,87.66L503.56,74.83L503.72,81.51L504.21,82.05L504.37,73.08L504.85,82.08L505.34,89.71L505.5,90.08L505.66,78.5L506.47,92.83L506.63,85.76L507.61,70.89L507.77,72.7L508.25,77.65L508.9,40.63L509.39,68.63L509.87,64.36L511.01,20.1L511.17,39.41L512.63,88.76L512.79,85.28L514.41,71.99L514.73,62.91L514.9,65.2L515.06,75.67L515.54,79.17L515.7,65.74L517,90.12L517.16,101.49L517.81,115.26L517.97,112.32L518.13,107.91L518.46,120.77L518.94,137.09L519.11,135.08L519.27,121.08L520.08,137.06L520.24,129.17L520.73,114.93L521.21,114.36L521.37,114.02L521.54,118.82L522.51,107.75L522.67,114.9L522.99,126.09L523.8,130.66L524.78,141.27L524.94,129.75L525.26,138.66L525.75,137.5L525.91,135.57L526.23,140.65L526.39,146.27L526.88,144.68L527.04,154.53L527.2,161.65L527.37,147.58L527.53,154.08L528.5,156.29L528.66,157.77L529.15,170.06L529.8,159.67L530.28,161.23L530.44,152.97L530.77,161.8L530.93,160.18L531.42,158.13L531.58,166.03L531.9,159.55L532.06,151.69L532.55,151.69L532.71,147.35L533.04,144.4L533.68,153.56L533.85,151.49L534.01,152.54L534.82,175.02L534.98,170.37L535.14,164.86L535.3,176.95L535.95,175.58L536.11,170.02L536.44,178.09L536.6,172.96L537.08,173.13L538.54,202.49L538.7,187.98L538.87,185.53L539.35,192.37L539.51,192.4L539.68,186.16L540,173.79" style="vector-effect: non-scaling-stroke; fill: none; stroke: rgb(255, 127, 14); stroke-opacity: 1; stroke-width: 2px; opacity: 1;"/></g><g class="points"/><g class="text"/></g></g></g></g><path class="xlines-above crisp" style="fill: none;" d="M0,0"/><path class="ylines-above crisp" style="fill: none;" d="M0,0"/><g class="overlines-above"><path class="xy2-x crisp" style="fill: none;" d="M0,0"/><path class="xy2-y crisp" style="fill: none;" d="M0,0"/></g><g class="xaxislayer-above"><g class="xtick"><text text-anchor="middle" x="0" y="485" transform="translate(95.15,0)" style="font-family: 'Open Sans', verdana, arial, sans-serif; font-size: 12px; fill: rgb(68, 68, 68); fill-opacity: 1; white-space: pre; opacity: 1;">2014-01-01</text></g><g class="xtick"><text text-anchor="middle" x="0" y="485" style="font-family: 'Open Sans', verdana, arial, sans-serif; font-size: 12px; fill: rgb(68, 68, 68); fill-opacity: 1; white-space: pre; opacity: 1;" transform="translate(213.38,0)">2016-01-01</text></g><g class="xtick"><text text-anchor="middle" x="0" y="485" style="font-family: 'Open Sans', verdana, arial, sans-serif; font-size: 12px; fill: rgb(68, 68, 68); fill-opacity: 1; white-space: pre; opacity: 1;" transform="translate(331.78,0)">2018-01-01</text></g><g class="xtick"><text text-anchor="middle" x="0" y="485" style="font-family: 'Open Sans', verdana, arial, sans-serif; font-size: 12px; fill: rgb(68, 68, 68); fill-opacity: 1; white-space: pre; opacity: 1;" transform="translate(450.02,0)">2020-01-01</text></g><g class="xtick"><text text-anchor="middle" x="0" y="485" style="font-family: 'Open Sans', verdana, arial, sans-serif; font-size: 12px; fill: rgb(68, 68, 68); fill-opacity: 1; white-space: pre; opacity: 1;" transform="translate(568.4200000000001,0)">2022-01-01</text></g></g><g class="yaxislayer-above"><g class="ytick"><text text-anchor="end" x="49" y="4.199999999999999" transform="translate(0,447.9)" style="font-family: 'Open Sans', verdana, arial, sans-serif; font-size: 12px; fill: rgb(68, 68, 68); fill-opacity: 1; white-space: pre; opacity: 1;">−60</text></g><g class="ytick"><text text-anchor="end" x="49" y="4.199999999999999" style="font-family: 'Open Sans', verdana, arial, sans-serif; font-size: 12px; fill: rgb(68, 68, 68); fill-opacity: 1; white-space: pre; opacity: 1;" transform="translate(0,407.05)">−40</text></g><g class="ytick"><text text-anchor="end" x="49" y="4.199999999999999" style="font-family: 'Open Sans', verdana, arial, sans-serif; font-size: 12px; fill: rgb(68, 68, 68); fill-opacity: 1; white-space: pre; opacity: 1;" transform="translate(0,366.2)">−20</text></g><g class="ytick"><text text-anchor="end" x="49" y="4.199999999999999" style="font-family: 'Open Sans', verdana, arial, sans-serif; font-size: 12px; fill: rgb(68, 68, 68); fill-opacity: 1; white-space: pre; opacity: 1;" transform="translate(0,325.35)">0</text></g><g class="ytick"><text text-anchor="end" x="49" y="4.199999999999999" style="font-family: 'Open Sans', verdana, arial, sans-serif; font-size: 12px; fill: rgb(68, 68, 68); fill-opacity: 1; white-space: pre; opacity: 1;" transform="translate(0,284.5)">20</text></g><g class="ytick"><text text-anchor="end" x="49" y="4.199999999999999" style="font-family: 'Open Sans', verdana, arial, sans-serif; font-size: 12px; fill: rgb(68, 68, 68); fill-opacity: 1; white-space: pre; opacity: 1;" transform="translate(0,243.64)">40</text></g><g class="ytick"><text text-anchor="end" x="49" y="4.199999999999999" style="font-family: 'Open Sans', verdana, arial, sans-serif; font-size: 12px; fill: rgb(68, 68, 68); fill-opacity: 1; white-space: pre; opacity: 1;" transform="translate(0,202.79)">60</text></g><g class="ytick"><text text-anchor="end" x="49" y="4.199999999999999" style="font-family: 'Open Sans', verdana, arial, sans-serif; font-size: 12px; fill: rgb(68, 68, 68); fill-opacity: 1; white-space: pre; opacity: 1;" transform="translate(0,161.94)">80</text></g><g class="ytick"><text text-anchor="end" x="49" y="4.199999999999999" style="font-family: 'Open Sans', verdana, arial, sans-serif; font-size: 12px; fill: rgb(68, 68, 68); fill-opacity: 1; white-space: pre; opacity: 1;" transform="translate(0,121.09)">100</text></g><g class="ytick"><text text-anchor="end" x="49" y="4.199999999999999" style="font-family: 'Open Sans', verdana, arial, sans-serif; font-size: 12px; fill: rgb(68, 68, 68); fill-opacity: 1; white-space: pre; opacity: 1;" transform="translate(0,80.24)">120</text></g></g><g class="overaxes-above"><g class="xy2-x"/><g class="xy2-y"><g class="y2tick"><text text-anchor="start" x="611" y="4.199999999999999" transform="translate(0,420.86)" style="font-family: 'Open Sans', verdana, arial, sans-serif; font-size: 12px; fill: rgb(255, 0, 0); fill-opacity: 1; white-space: pre; opacity: 1;">20</text></g><g class="y2tick"><text text-anchor="start" x="611" y="4.199999999999999" style="font-family: 'Open Sans', verdana, arial, sans-serif; font-size: 12px; fill: rgb(255, 0, 0); fill-opacity: 1; white-space: pre; opacity: 1;" transform="translate(0,363.85)">40</text></g><g class="y2tick"><text text-anchor="start" x="611" y="4.199999999999999" style="font-family: 'Open Sans', verdana, arial, sans-serif; font-size: 12px; fill: rgb(255, 0, 0); fill-opacity: 1; white-space: pre; opacity: 1;" transform="translate(0,306.84000000000003)">60</text></g><g class="y2tick"><text text-anchor="start" x="611" y="4.199999999999999" style="font-family: 'Open Sans', verdana, arial, sans-serif; font-size: 12px; fill: rgb(255, 0, 0); fill-opacity: 1; white-space: pre; opacity: 1;" transform="translate(0,249.84)">80</text></g><g class="y2tick"><text text-anchor="start" x="611" y="4.199999999999999" style="font-family: 'Open Sans', verdana, arial, sans-serif; font-size: 12px; fill: rgb(255, 0, 0); fill-opacity: 1; white-space: pre; opacity: 1;" transform="translate(0,192.83)">100</text></g><g class="y2tick"><text text-anchor="start" x="611" y="4.199999999999999" style="font-family: 'Open Sans', verdana, arial, sans-serif; font-size: 12px; fill: rgb(255, 0, 0); fill-opacity: 1; white-space: pre; opacity: 1;" transform="translate(0,135.82)">120</text></g><g class="y2tick"><text text-anchor="start" x="611" y="4.199999999999999" style="font-family: 'Open Sans', verdana, arial, sans-serif; font-size: 12px; fill: rgb(255, 0, 0); fill-opacity: 1; white-space: pre; opacity: 1;" transform="translate(0,78.81)">140</text></g></g></g></g><g class="subplot xy2"/></g><g class="polarlayer"/><g class="ternarylayer"/><g class="geolayer"/><g class="funnelarealayer"/><g class="pielayer"/><g class="iciclelayer"/><g class="treemaplayer"/><g class="sunburstlayer"/><g class="glimages"/><defs id="topdefs-6ee400"><g class="clips"/><clipPath id="legend6ee400"><rect width="138" height="48" x="0" y="0"/></clipPath></defs><g class="layer-above"><g class="imagelayer"/><g class="shapelayer"/></g><g class="infolayer"><g class="legend" pointer-events="all" transform="translate(114,100.19999999999999)"><rect class="bg" shape-rendering="crispEdges" style="stroke: rgb(68, 68, 68); stroke-opacity: 1; fill: rgb(255, 255, 255); fill-opacity: 1; stroke-width: 0px;" width="138" height="48" x="0" y="0"/><g class="scrollbox" transform="" clip-path="url(#legend6ee400)"><g class="groups"><g class="traces" style="opacity: 1;" transform="translate(0,14.5)"><text class="legendtext" text-anchor="start" x="40" y="4.680000000000001" style="font-family: 'Open Sans', verdana, arial, sans-serif; font-size: 12px; fill: rgb(68, 68, 68); fill-opacity: 1; white-space: pre;">DRAM spot yoy</text><g class="layers" style="opacity: 1;"><g class="legendfill"/><g class="legendlines"><path class="js-line" d="M5,0h30" style="fill: none; stroke: rgb(31, 119, 180); stroke-opacity: 1; stroke-width: 2px;"/></g><g class="legendsymbols"><g class="legendpoints"/></g></g><rect class="legendtoggle" x="0" y="-9.5" width="132.28125" height="19" style="fill: rgb(0, 0, 0); fill-opacity: 0;"/></g><g class="traces" style="opacity: 1;" transform="translate(0,33.5)"><text class="legendtext" text-anchor="start" x="40" y="4.680000000000001" style="font-family: 'Open Sans', verdana, arial, sans-serif; font-size: 12px; fill: rgb(68, 68, 68); fill-opacity: 1; white-space: pre;">TSM</text><g class="layers" style="opacity: 1;"><g class="legendfill"/><g class="legendlines"><path class="js-line" d="M5,0h30" style="fill: none; stroke: rgb(255, 127, 14); stroke-opacity: 1; stroke-width: 2px;"/></g><g class="legendsymbols"><g class="legendpoints"/></g></g><rect class="legendtoggle" x="0" y="-9.5" width="132.28125" height="19" style="fill: rgb(0, 0, 0); fill-opacity: 0;"/></g></g></g><rect class="scrollbar" rx="20" ry="3" width="0" height="0" style="fill: rgb(128, 139, 164); fill-opacity: 1;" x="0" y="0"/></g><g class="g-gtitle"><text class="gtitle" x="350" y="30" text-anchor="middle" dy="0em" style="font-family: 'Open Sans', verdana, arial, sans-serif; font-size: 17px; fill: rgb(68, 68, 68); opacity: 1; font-weight: normal; white-space: pre;"><tspan style="font-weight:bold">TSM vs. DRAM spot price YOY</tspan></text></g><g class="g-xtitle"/><g class="g-ytitle"/><g class="g-y2title"/></g></svg>