<svg class="main-svg" xmlns="http://www.w3.org/2000/svg" xmlns:xlink="http://www.w3.org/1999/xlink" width="1200" height="600" style="" viewBox="0 0 1200 600"><rect x="0" y="0" width="1200" height="600" style="fill: rgb(255, 255, 255); fill-opacity: 1;"/><defs id="defs-74e616"><g class="clips"><clipPath id="clip74e616xyplot" class="plotclip"><rect width="1040" height="502"/></clipPath><clipPath id="clip74e616xy2plot" class="plotclip"><rect width="1040" height="502"/></clipPath><clipPath class="axesclip" id="clip74e616x"><rect x="60" y="0" width="1040" height="600"/></clipPath><clipPath class="axesclip" id="clip74e616y"><rect x="0" y="60" width="1200" height="502"/></clipPath><clipPath class="axesclip" id="clip74e616xy"><rect x="60" y="60" width="1040" height="502"/></clipPath><clipPath class="axesclip" id="clip74e616y2"><rect x="0" y="60" width="1200" height="502"/></clipPath><clipPath class="axesclip" id="clip74e616xy2"><rect x="60" y="60" width="1040" height="502"/></clipPath></g><g class="gradients"/><g class="patterns"/></defs><g class="bglayer"><rect class="bg" x="50" y="50" width="1060" height="522" style="fill: rgb(229, 236, 246); fill-opacity: 1; stroke-width: 0;"/></g><g class="layer-below"><g class="imagelayer"/><g class="shapelayer"/></g><g class="cartesianlayer"><g class="subplot xy"><g class="layer-subplot"><g class="shapelayer"/><g class="imagelayer"/></g><g class="gridlayer"><g class="x"><path class="xgrid crisp" transform="translate(223.76,0)" d="M0,60v502" style="stroke: rgb(255, 255, 255); stroke-opacity: 1; stroke-width: 1px;"/><path class="xgrid crisp" transform="translate(388.42,0)" d="M0,60v502" style="stroke: rgb(255, 255, 255); stroke-opacity: 1; stroke-width: 1px;"/><path class="xgrid crisp" transform="translate(552.86,0)" d="M0,60v502" style="stroke: rgb(255, 255, 255); stroke-opacity: 1; stroke-width: 1px;"/><path class="xgrid crisp" transform="translate(717.52,0)" d="M0,60v502" style="stroke: rgb(255, 255, 255); stroke-opacity: 1; stroke-width: 1px;"/><path class="xgrid crisp" transform="translate(881.95,0)" d="M0,60v502" style="stroke: rgb(255, 255, 255); stroke-opacity: 1; stroke-width: 1px;"/><path class="xgrid crisp" transform="translate(1046.6100000000001,0)" d="M0,60v502" style="stroke: rgb(255, 255, 255); stroke-opacity: 1; stroke-width: 1px;"/></g><g class="y"><path class="ygrid crisp" transform="translate(0,477.75)" d="M60,0h1040" style="stroke: rgb(255, 255, 255); stroke-opacity: 1; stroke-width: 1px;"/><path class="ygrid crisp" transform="translate(0,390.55)" d="M60,0h1040" style="stroke: rgb(255, 255, 255); stroke-opacity: 1; stroke-width: 1px;"/><path class="ygrid crisp" transform="translate(0,303.35)" d="M60,0h1040" style="stroke: rgb(255, 255, 255); stroke-opacity: 1; stroke-width: 1px;"/><path class="ygrid crisp" transform="translate(0,216.16)" d="M60,0h1040" style="stroke: rgb(255, 255, 255); stroke-opacity: 1; stroke-width: 1px;"/><path class="ygrid crisp" transform="translate(0,128.95999999999998)" d="M60,0h1040" style="stroke: rgb(255, 255, 255); stroke-opacity: 1; stroke-width: 1px;"/></g><g class="y2"><path class="y2grid crisp" transform="translate(0,505.69)" d="M60,0h1040" style="stroke: rgb(214, 221, 230); stroke-opacity: 1; stroke-width: 1px;"/><path class="y2grid crisp" transform="translate(0,444.06)" d="M60,0h1040" style="stroke: rgb(214, 221, 230); stroke-opacity: 1; stroke-width: 1px;"/><path class="y2grid crisp" transform="translate(0,382.44)" d="M60,0h1040" style="stroke: rgb(214, 221, 230); stroke-opacity: 1; stroke-width: 1px;"/><path class="y2grid crisp" transform="translate(0,320.81)" d="M60,0h1040" style="stroke: rgb(214, 221, 230); stroke-opacity: 1; stroke-width: 1px;"/><path class="y2grid crisp" transform="translate(0,259.19)" d="M60,0h1040" style="stroke: rgb(214, 221, 230); stroke-opacity: 1; stroke-width: 1px;"/><path class="y2grid crisp" transform="translate(0,197.56)" d="M60,0h1040" style="stroke: rgb(214, 221, 230); stroke-opacity: 1; stroke-width: 1px;"/><path class="y2grid crisp" transform="translate(0,135.94)" d="M60,0h1040" style="stroke: rgb(214, 221, 230); stroke-opacity: 1; stroke-width: 1px;"/><path class="y2grid crisp" transform="translate(0,74.31)" d="M60,0h1040" style="stroke: rgb(214, 221, 230); stroke-opacity: 1; stroke-width: 1px;"/></g></g><g class="zerolinelayer"/><path class="xlines-below"/><path class="ylines-below"/><g class="overlines-below"><path class="xy2-x"/><path class="xy2-y"/></g><g class="xaxislayer-below"/><g class="yaxislayer-below"/><g class="overaxes-below"><g class="xy2-x"/><g class="xy2-y"/></g><g class="plot" transform="translate(60,60)" clip-path="url(#clip74e616xyplot)"><g class="scatterlayer mlayer"><g class="trace scatter trace3ce628" style="stroke-miterlimit: 2; opacity: 1;"><g class="fills"/><g class="errorbars"/><g class="lines"><path class="js-line" d="M0,95.79L0.9,71.88L1.58,76.76L1.8,79.73L2.03,105.79L2.25,125.92L2.48,116.08L3.15,120.7L4.73,63.21L4.96,77.86L5.18,76.98L5.41,69.22L5.63,75.01" style="vector-effect: non-scaling-stroke; fill: none; stroke: rgb(31, 119, 180); stroke-opacity: 1; stroke-width: 2px; opacity: 1;"/><path class="js-line" d="M6.31,60.69L6.53,57.48L6.76,34.61L7.88,75.65L8.11,70.04L8.33,91.5L8.78,107.02L11.04,101.9L11.94,141.86" style="vector-effect: non-scaling-stroke; fill: none; stroke: rgb(31, 119, 180); stroke-opacity: 1; stroke-width: 2px; opacity: 1;"/><path class="js-line" d="M12.61,143.93L12.84,150.97L13.06,138.86L13.29,131.3L14.19,153.2L14.42,150.63L14.64,149.29L14.87,161.95L15.77,185.02L15.99,176.11L16.22,181.74L16.44,182.71L16.67,179.84L17.34,189.34L17.57,207.42L18.02,239.73L18.25,226.97L18.92,226.21L19.37,253.18L19.82,246.76L20.72,262.14L22.07,306.41L22.3,270.2L22.53,271.57L22.75,242.11L23.65,284.71L23.88,280.38L24.1,291.85L24.55,310.31L25.23,305.22L26.13,311.66L27.03,274.17L27.48,294.77L27.71,293.27L28.38,277.23L29.06,260.25L29.28,263.91L29.96,262.62L30.18,258.65L30.41,274.83L30.63,271.08L30.86,284.7L32.44,300.74L33.11,296.62L33.34,288.4L33.79,298.21L34.01,309.57L35.36,339.86L35.59,339.72L36.94,322.13L37.17,304.19L37.84,308.41L38.07,306.25L38.52,315.36L38.74,304.61L39.42,295.24L40.32,260.29L41,257.52L41.9,273L42.57,269.02L42.8,276.24L43.02,269.59L43.25,259.9L43.47,259.66L44.15,257.59L45.05,265.93L45.73,266.34L46.18,262.66L46.4,265.76L46.63,264.76" style="vector-effect: non-scaling-stroke; fill: none; stroke: rgb(31, 119, 180); stroke-opacity: 1; stroke-width: 2px; opacity: 1;"/><path class="js-line" d="M47.3,271.25L47.75,269.22L47.98,277.19L48.88,288.49L49.11,284.71L49.33,287.72L50.68,292.92L50.91,292.43L51.13,292.82L51.36,286.96L52.71,295.13L52.93,309.85L54.51,330.37L55.19,315.03L56.09,325.34L56.76,325.01L58.57,296.1L59.92,296.62L60.14,295.71L60.37,287.07L60.59,287.46L62.4,281.86L64.65,226.23L64.87,247.47L65.32,248.09L65.55,258.88L66.22,259.94L66.45,257.73L66.9,275.5L67.13,297.17" style="vector-effect: non-scaling-stroke; fill: none; stroke: rgb(31, 119, 180); stroke-opacity: 1; stroke-width: 2px; opacity: 1;"/><path class="js-line" d="M67.8,311.56L68.7,284.42L69.38,294.84L71.18,337.02L71.41,329.67L71.63,330.79L71.86,345.64L72.76,361.01L72.98,365.72L73.21,355.81L73.43,361.5L74.11,366.51L75.69,338.41L75.91,343.36L77.26,351.68L77.49,353.84L77.71,354.21L77.94,357.34L78.84,361.33L79.06,355.73L79.29,354.94L79.51,349.24L80.42,336.24L80.64,336.33L80.87,341.22L81.09,341.2L81.32,342.1L82.22,340.94L82.44,343.63L84.47,317.13L85.15,316.49L85.37,315.7L85.6,317.29L85.82,316.83L86.05,312.36L86.95,298.3L87.4,300.97L87.62,304.09L88.53,301.97L90.33,302.81L90.78,313.29L91.45,308.17L91.68,306.14L91.9,310.7L92.13,312.63L92.35,311.57L93.03,314.21L93.26,313.41L93.48,320.98L93.93,313.68L94.61,312.62L96.18,291.34L96.41,294.17L96.63,295.02L96.86,303.78L97.99,315L98.21,313.05L98.44,308.72L98.66,314.62L99.34,310.93L101.36,288.1L101.59,296.1L101.82,294.91L102.94,282.83L103.39,288.28L104.07,282.68L104.29,281.52L104.52,284.61L104.74,283.66L104.97,279.17L105.64,276.53L105.87,281.54L106.55,286.92L107.22,281.6L107.9,264.25L108.12,278.52" style="vector-effect: non-scaling-stroke; fill: none; stroke: rgb(31, 119, 180); stroke-opacity: 1; stroke-width: 2px; opacity: 1;"/><path class="js-line" d="M109.02,205.02L109.47,210.43L109.7,214.49L110.37,218.3L110.83,218.14L111.05,214.08L111.28,210.22L111.95,213.37L112.85,193.37L113.53,187.91L113.75,203.66L114.2,183.19L114.43,180.01L116.01,191.38L116.91,189.96L117.58,180.32L118.26,184.17L118.48,184.44L118.71,183.45L120.29,168.96L120.51,175.91L121.64,183.06L121.86,180.87L122.09,180.31L122.31,181.55L122.99,184.26L123.66,202.31L123.89,198.87L124.57,203.02L124.79,203.63L125.02,208.49L125.47,223.92L126.14,222.68L126.82,216.01L127.04,219.71L127.72,214.48L127.94,214.83L128.17,225.06L128.4,229.91L128.62,226.54" style="vector-effect: non-scaling-stroke; fill: none; stroke: rgb(31, 119, 180); stroke-opacity: 1; stroke-width: 2px; opacity: 1;"/><path class="js-line" d="M129.3,234.55L129.75,246.95L130.2,243.24L130.87,238.02L131.1,238.92L131.32,244.64L132.45,256.59L132.67,257.94L134.48,282.85L134.7,272.73L135.6,291.07L135.83,283.18L136.28,257.79L136.5,258.16L137.18,254.7L138.08,246.39L138.98,241.19L139.43,248.42L139.66,245.91L140.33,242.18L140.56,241.66L140.78,243.39L141.23,238.31L141.91,239.08L142.81,220.72L145.06,222.6L145.29,218.26L145.51,222.4L145.74,228.6L146.64,229.4L146.87,224.3L147.09,223.85L147.32,217.89L148.22,203.03L148.44,211.5L150.24,252.68L150.7,249.14L151.37,252.32L151.6,244.7L151.82,255.73L152.05,265.48L152.27,263.96L152.95,268.43L153.62,274.09L153.85,268.63L154.52,264.51L154.75,266.33L154.98,268.28L155.2,268.76L155.43,268.56L156.1,268.72L156.33,269.89L156.55,260.83L156.78,259.32L157,251.1L157.68,234.04L157.9,240.61L158.13,242.61L158.35,247.2L158.58,244.7L159.25,244.79L159.71,234.32L159.93,237.83L160.16,247.31L160.83,256.79L161.06,251.07L161.28,244.6L162.63,222.43L162.86,214.53L163.08,213.14L163.31,215.46" style="vector-effect: non-scaling-stroke; fill: none; stroke: rgb(31, 119, 180); stroke-opacity: 1; stroke-width: 2px; opacity: 1;"/><path class="js-line" d="M164.44,202.81L164.89,174.74L165.56,179.2L166.01,187.69L166.24,181.64L166.46,155.14L167.81,113.91L168.04,119.06L170.29,133.14L170.52,129.35L170.74,137.19L170.97,138.24L171.87,153.44L172.09,152.38L172.77,159.18L173.45,171.44L173.67,171.87L173.9,176.64L174.12,177.75L174.35,174.23L175.02,175.67L175.25,182.73L175.47,193.94L175.92,190.98L176.6,188.68L177.05,175.7L177.28,181.64L177.5,184.62L178.85,196.79L179.08,204.08L179.98,210.99L180.2,198.71L180.43,196.16L180.65,202.59L181.33,209.87L181.56,200.51L183.13,189.54L183.36,171.84L183.81,156.76" style="vector-effect: non-scaling-stroke; fill: none; stroke: rgb(31, 119, 180); stroke-opacity: 1; stroke-width: 2px; opacity: 1;"/><path class="js-line" d="M185.16,164.3L185.38,167.48L186.06,163.98L186.74,168.38L186.96,170.47L187.64,169.89L187.86,167.16L188.31,170.2L188.54,168.5L189.21,144.27L189.89,127.56L190.11,132.22" style="vector-effect: non-scaling-stroke; fill: none; stroke: rgb(31, 119, 180); stroke-opacity: 1; stroke-width: 2px; opacity: 1;"/><path class="js-line" d="M191.24,86.38L193.04,122.35L193.27,120.65L193.94,123.16L194.39,123.8L194.62,121.68L195.52,115.47L195.75,117.39L195.97,117.13L196.2,118.68L196.42,112.5L197.1,108.84L197.32,112.73L197.77,127.62L198,126.68L198.67,125.21L199.12,122.59L199.35,124.76L199.58,128.61L201.83,153.61L202.05,154.97L202.28,159.32L202.5,158.83L203.4,155.47L203.63,153.8L203.86,158.11L204.08,155.9L204.31,158.51" style="vector-effect: non-scaling-stroke; fill: none; stroke: rgb(31, 119, 180); stroke-opacity: 1; stroke-width: 2px; opacity: 1;"/><path class="js-line" d="M204.98,161.09L205.21,164.09L205.43,160.72L205.66,156.34L205.88,158.85L206.56,158.17L206.78,149.6L207.01,151.17L207.23,158.5L208.14,130.25L208.36,131.56L208.59,134.74L210.16,151.77L210.39,151.04L210.61,147.97L211.51,124.89L211.74,130.3L211.96,132.8L213.09,157.28L213.32,151.38L213.77,161.05L214.44,157.94L214.67,162.33L215.12,158.75L215.34,158.04L216.69,183.6L216.92,176.13L217.6,174.29L217.82,177.68L218.05,182.28L218.27,167.8L219.85,222.53L220.07,216.8L220.75,219.37L220.97,221.03L221.2,220.74L221.43,215.58L222.33,204.28L222.55,209.94L222.78,211.56L223,204.36L223.9,192.71L224.13,186.79L224.58,173.63L224.8,175.76" style="vector-effect: non-scaling-stroke; fill: none; stroke: rgb(31, 119, 180); stroke-opacity: 1; stroke-width: 2px; opacity: 1;"/><path class="js-line" d="M227.06,179.77L227.51,192.33L227.73,186.32L227.96,183.14L228.63,177.84L228.86,179.66L229.08,181.24L230.21,185.57L230.44,181.56L230.89,174.73L231.11,175.8L231.79,179.26L233.36,167.83L233.59,167.5L233.81,167.04L234.04,162.64L234.26,161.21L234.94,162.92L235.62,158.64L235.84,161.28L236.74,166.02L236.97,164.39L237.19,162.42L238.09,151.77L238.32,133.53L239.67,113.17L239.9,116.31L240.57,127.83L241.25,132.17L243.05,114.24L243.27,118.94L244.85,157.55L245.08,149.04L245.3,149.52L245.98,142.96L246.88,142.55L247.55,151.95L248.46,168.97L249.13,173.61L250.03,185.7L250.71,188.7L251.38,162.96L251.61,169.03L252.29,170.94L252.51,173.86L252.74,163.3L253.86,141.89L254.09,148.53L254.76,174.08L257.02,184.32L257.24,183.27L257.47,197.33L258.59,215.81L258.82,218.84L259.27,209.77L259.49,224.45L260.62,239.06L260.84,232.19L261.07,226.36L261.75,229.6L261.97,216.58L262.42,219.28L262.65,221.7L263.32,228.03L263.55,221.71L263.77,221.6L264,228.69L264.22,228.16L264.9,230.85L265.58,244.18L265.8,239.04" style="vector-effect: non-scaling-stroke; fill: none; stroke: rgb(31, 119, 180); stroke-opacity: 1; stroke-width: 2px; opacity: 1;"/><path class="js-line" d="M266.48,244.6L266.93,223.71L268.05,234.28L268.28,236.24L268.5,231.58L269.63,230.04L269.85,232.76L270.31,246.27L270.53,246.14L271.21,256.85L271.43,257.39L271.66,266L272.11,258.77" style="vector-effect: non-scaling-stroke; fill: none; stroke: rgb(31, 119, 180); stroke-opacity: 1; stroke-width: 2px; opacity: 1;"/><path class="js-line" d="M273.46,239.02L274.36,249.22L274.59,248.63L275.04,262.82L275.26,258.95L275.94,264.6L276.16,261.89L276.39,274.64L276.61,266.63L276.84,267.36L277.51,276.92L277.96,272.51L278.41,289.39L279.09,294.53L279.32,276.87L279.77,284.52L279.99,286.51L280.89,271.27L281.34,274.81L281.57,280.83L282.92,289.33L283.14,301.72L284.27,306.93L284.5,303.56L285.62,310.67L285.85,331.14L286.3,312.36" style="vector-effect: non-scaling-stroke; fill: none; stroke: rgb(31, 119, 180); stroke-opacity: 1; stroke-width: 2px; opacity: 1;"/><path class="js-line" d="M286.97,323.62L287.42,338.3L287.65,331.9L287.88,321.49L288.55,317.21L288.78,322.38L289,322.4L289.23,314.9L290.35,338.24L290.58,338.99L292.16,365.26L292.38,351.15L293.28,355.07L293.51,347.71L294.86,362.11L295.08,363.08L295.31,355.78L295.76,356.24L296.43,346.05L296.89,353.09L297.11,352.71L297.34,343.56L299.81,375.59L300.04,370.58L300.26,373L300.49,363.92" style="vector-effect: non-scaling-stroke; fill: none; stroke: rgb(31, 119, 180); stroke-opacity: 1; stroke-width: 2px; opacity: 1;"/><path class="js-line" d="M301.17,374.54L302.07,386.49L302.74,374.01L303.42,353.93L303.64,363.8L306.12,387.53L306.35,387.14L306.57,388.84L307.47,397.71L309.27,399.38L309.5,403.92L309.72,398.86L309.95,395.89L310.63,399.1L310.85,398.9L311.08,392.38L311.3,391.93L311.53,395.97L312.2,402.15L312.43,396.55L313.1,390.08L313.78,394.31L314.68,383.35L315.36,385.21L315.58,392.67L316.03,388.83L316.26,388.13L317.16,391.93L317.38,393.68L317.83,402.31L318.51,399.66L318.74,402.2L319.19,400.64L319.41,400.77L320.31,405.74L320.54,410.08L320.76,409.86L320.99,416.54" style="vector-effect: non-scaling-stroke; fill: none; stroke: rgb(31, 119, 180); stroke-opacity: 1; stroke-width: 2px; opacity: 1;"/><path class="js-line" d="M321.66,390.67L322.11,383.12L322.34,376.51L323.69,390.92L323.92,398.19L324.14,400.73L324.82,400.12L325.04,399.02L325.27,397.73L325.49,399.34L325.72,405.2L326.39,401.85L326.62,406.1L327.29,414.99L327.97,418.65L328.2,414.14L328.65,421.37L328.87,427.3L329.55,424.77L330,438.93L330.45,432.81L331.12,434.51L331.57,443.98L332.03,443.73L332.7,442.01L333.6,453.9L334.28,456L334.5,452.87L334.73,456.06L334.95,457.44" style="vector-effect: non-scaling-stroke; fill: none; stroke: rgb(31, 119, 180); stroke-opacity: 1; stroke-width: 2px; opacity: 1;"/><path class="js-line" d="M336.76,462.4L337.43,461.36L337.66,457.36L337.88,460.22L338.11,452.96L339.23,464.66L339.46,461.23L339.68,457.58L339.91,461.03L340.58,469.44L341.26,452.03L341.49,453.99L342.16,459.07L342.39,459.29L342.61,462.24L343.74,458.75L343.96,456.84L344.19,456.13L344.41,459.07L345.54,467.87L345.77,466.98L345.99,461.99L346.89,451.29L347.12,451.46L347.34,454.94L347.79,441.96L348.47,443.25L348.69,446.98L348.92,441.14L349.37,445.26L350.27,440.68L350.5,444.46L350.95,439.97L351.62,441.95L352.52,448.08L353.2,448.89L354.1,439.61L354.78,435.46L355.23,441.64L356.35,414.55L356.58,417.89L356.8,414.29L357.03,412.76L357.93,407.95L358.15,408.41L358.38,409.82L358.61,407.29L358.83,402.25L360.18,412.15L360.41,416.01L361.53,422.86L361.76,419.01L361.98,420.34" style="vector-effect: non-scaling-stroke; fill: none; stroke: rgb(31, 119, 180); stroke-opacity: 1; stroke-width: 2px; opacity: 1;"/><path class="js-line" d="M362.88,420.34L363.56,426.95L364.24,422.95L365.14,428.53L365.81,426.55L366.04,426.21L366.26,424.32L366.49,418.97L366.71,422.66L367.39,429.16L367.62,429.75L367.84,429.5L368.07,433.91L369.42,439.79L369.64,439.52L370.54,437.36L370.77,439.85L371.44,437.38L372.12,437.17L373.02,426.69L373.7,426.54L373.92,427.92L374.15,419.89L374.6,411.51L375.27,409.78L375.72,416.04L376.18,412.27L376.85,409.3L377.75,421.52L378.43,421.84L378.88,421.48L381.58,436.6L381.81,432.97L382.48,437.5" style="vector-effect: non-scaling-stroke; fill: none; stroke: rgb(31, 119, 180); stroke-opacity: 1; stroke-width: 2px; opacity: 1;"/><path class="js-line" d="M383.16,437.59L383.61,437.03L383.83,438.28L384.06,436.09L384.96,438.1L385.64,443.38L386.31,445.02L386.76,439.84L386.99,441.4L387.21,442.29L389.69,450.32L391.49,451.54L391.94,452.02L392.62,452.96L393.29,449.98L393.52,447.98L394.2,450.55L394.42,450.48L394.65,449.08L394.87,447.13L395.1,448.59L395.77,453.61L396,455.45L396.45,453.8L396.67,449.6L397.35,452.32L397.57,449.93L398.02,453.94L398.25,452.98L398.93,446.94L399.83,432.01L400.5,438.64L400.95,446.87L401.4,444.51L402.08,441.24L402.3,442.68L402.53,441.05L402.76,440.46L402.98,434.81" style="vector-effect: non-scaling-stroke; fill: none; stroke: rgb(31, 119, 180); stroke-opacity: 1; stroke-width: 2px; opacity: 1;"/><path class="js-line" d="M403.66,431.2L405.23,388.46L405.46,392.36L405.68,394.29L406.81,407.35L407.03,397.13L408.39,351.47L408.61,357.2L408.84,373.77L410.41,327.38L411.54,309.73L412.44,335.03L413.12,342.91L413.34,348.32L413.57,347.07L413.79,333.61L414.92,375.36L415.14,363.41L415.37,366.37L415.59,358.03L416.27,361.67L416.95,372.12L417.17,371.53" style="vector-effect: non-scaling-stroke; fill: none; stroke: rgb(31, 119, 180); stroke-opacity: 1; stroke-width: 2px; opacity: 1;"/><path class="js-line" d="M417.85,383.21L418.07,384.19L418.3,389.25L418.52,395.62L418.75,393.92L419.42,387.79L420.1,393.51L420.32,397.74L421,405.88L421.23,404.93L423.03,404.57L423.25,398.68L423.48,404.49" style="vector-effect: non-scaling-stroke; fill: none; stroke: rgb(31, 119, 180); stroke-opacity: 1; stroke-width: 2px; opacity: 1;"/><path class="js-line" d="M424.15,411.3L424.83,425.75L425.06,418.9L425.73,418.97L425.96,427.52L426.41,417.42L426.63,423.02L427.31,427.08L427.53,424.39L427.76,424.44L429.11,437.04L429.34,444.07L430.46,422.47L430.69,431.06L431.36,445.1L432.26,444.24L432.49,436.52L432.94,440.46L433.61,439.27L433.84,437.3L434.07,426.34L434.52,414.89L435.19,415.08L435.42,424.58L435.87,431.96L436.09,435.67L436.99,419.41L437.22,431.78L437.44,441.19L438.35,393.41L440.15,437.56L440.37,438.33L440.6,437.29L440.82,443.86L442.17,466.04L442.4,458.62L443.08,450.08L443.3,457.07L443.98,470.22" style="vector-effect: non-scaling-stroke; fill: none; stroke: rgb(31, 119, 180); stroke-opacity: 1; stroke-width: 2px; opacity: 1;"/><path class="js-line" d="M444.65,467.89L445.1,476.9L445.33,470.63L445.55,466.78L446.23,449.53L446.45,451.2L446.68,460.85L447.13,466.47L447.81,457.4L448.03,456.02L448.26,459.74L448.48,456.02L448.71,456.8L449.61,454.04L451.64,418.27L451.86,422.6L452.76,379.38L453.21,387.88L453.44,387.36L455.01,417.26L455.69,423.06L456.59,435.76L457.27,439.96L458.17,427.82L458.84,412.03L459.74,430.25L460.42,431.75L460.87,430.23L461.32,433.52L462,433.9L462.22,430.65L462.45,435.27L462.67,437.22L462.9,432.14L463.57,434.52L463.8,436.71L464.02,426.09L465.15,414.75L465.38,365.02L465.6,352.01L466.73,373.54L467.63,394.51L468.3,376.73L468.53,368.85L468.75,377.59L468.98,383.6L470.56,408.72L470.78,399.55L471.68,415.98L471.91,412.93L473.71,418.2L473.94,418.49L474.61,421.89L475.51,430.27L476.19,428.67L476.41,433.65L476.64,420.86L477.09,437.28L477.76,436.14L477.99,439.52L478.22,436.31L478.44,423.63L478.67,430.62" style="vector-effect: non-scaling-stroke; fill: none; stroke: rgb(31, 119, 180); stroke-opacity: 1; stroke-width: 2px; opacity: 1;"/><path class="js-line" d="M479.34,428.04L479.57,428.46L479.79,432.77L480.02,425.5L480.24,430.22L480.92,430.8L481.59,444.63L481.82,439.05L482.5,445.34L482.95,435.91L483.17,443.37L483.4,447.34L484.07,445.57L484.3,451.2L484.52,456.12L484.97,451.4L485.65,453.84L486.1,437.13L486.32,442.48L486.55,447.27L487.45,452.53L487.68,449.59L487.9,449.41L488.8,442.67L489.03,447.93L489.48,453.83L489.7,452.08L490.38,448.06L490.6,449.51L490.83,444.82L491.96,451.73L492.18,451.39L492.41,453.63L492.63,451.24L493.53,445.81L494.43,427.47L495.11,420.89L495.33,422.95L495.56,416.54L496.69,434.25L496.91,435.56L497.14,435.73L497.36,431.94L498.26,434.66L498.49,430.09L498.71,430.31L498.94,423.46L499.16,427.39" style="vector-effect: non-scaling-stroke; fill: none; stroke: rgb(31, 119, 180); stroke-opacity: 1; stroke-width: 2px; opacity: 1;"/><path class="js-line" d="M499.84,429.21L500.52,441.03L500.74,438.98L502.99,442.28L503.89,447.73L504.57,446.03L504.8,445.98L505.02,442.54L506.15,417.18L506.6,420.47L506.82,418.06L507.05,399.06L507.72,405.7L507.95,410.8L508.62,409.03L509.3,418.27L509.75,410.83L509.98,422.37L510.88,434.12L511.1,435.36L511.33,438.72L511.78,436.68L512.45,436.62L512.68,433.68L512.9,440.12L513.13,439.31L513.35,436.27L514.26,441.63L514.48,445.55L514.93,444.42L515.61,446.97L515.83,444.64L516.28,447.17L516.51,445.76L517.18,444.48L517.41,445.13L517.63,435.08L517.86,432.33L518.09,435.86L518.76,435.19L519.44,438.79L519.66,435.04" style="vector-effect: non-scaling-stroke; fill: none; stroke: rgb(31, 119, 180); stroke-opacity: 1; stroke-width: 2px; opacity: 1;"/><path class="js-line" d="M520.56,403.99L521.01,406.65L521.24,401.6L522.59,389.13L522.82,389.21L523.49,393.45L523.72,397.19L523.94,389.26L524.39,396.58L525.07,401.25L525.52,399.81L525.74,402.14L526.65,398.87L526.87,403.77L527.32,410.68L527.55,410.5L528.22,411.47L528.45,412.7L528.67,412.55L529.8,401.6L530.02,401.7L530.25,409.47L531.38,413.97L531.6,410.58L532.95,423.15L533.18,425.01L533.85,422.57L534.53,423.09L534.98,422.25L535.2,422.54L535.43,425.77L536.33,417.16L536.56,419.69L536.78,421.47L537.68,417.38L537.91,421.29L538.13,422.58L538.36,420.88L538.58,419.89L539.26,418.5L539.48,419.02L539.71,407.2L540.16,403.62" style="vector-effect: non-scaling-stroke; fill: none; stroke: rgb(31, 119, 180); stroke-opacity: 1; stroke-width: 2px; opacity: 1;"/><path class="js-line" d="M540.84,401.04L541.29,399.87L541.51,402.56L541.74,400.11L542.41,400.78L542.64,402.68L542.86,402.37L543.09,397.66L543.31,394.72L543.99,395.14L544.21,399.18L544.89,402.72L545.57,399.06L545.79,399.8L546.02,403.53L546.24,403.93L546.47,402.66L547.14,401.39L547.37,398.68L547.59,397.25L547.82,364.9L548.04,362.28L548.72,363.14L548.95,368.32L549.4,368.57L550.3,363.07L550.52,364.92L550.75,366.58L551.87,367.97L552.32,367.84L552.55,366.95L553.45,364.52L553.68,365.53L553.9,365.82L554.13,365.66L554.35,366.4L556.6,371.72L556.83,371.51L557.05,372.23L557.28,372.69L558.18,370.16L558.41,370.52L558.63,370.08L558.86,371.66L559.76,367.54L559.98,368.26L560.43,370.17L560.66,370.04L561.33,373.92L561.56,375.87L561.78,375.51L562.01,371.92L562.24,370.19L562.91,300.18L563.14,302.59L563.59,302.33L563.81,300.75L564.49,301.09L564.71,304.5L564.94,305.13L565.16,300.59L565.39,303.4L566.06,300.84L566.29,302.45L566.52,299.95L566.74,295.56L567.64,291.25L567.87,284.99L568.09,292.65L568.54,283.88L569.22,289.56L569.44,289.13L569.67,291.41L571.25,265.94L571.47,275.77L571.7,280.08L572.37,278.65L572.6,282.09L573.27,276.87L573.95,277.45L574.17,279.11L574.62,278.93L574.85,278.2" style="vector-effect: non-scaling-stroke; fill: none; stroke: rgb(31, 119, 180); stroke-opacity: 1; stroke-width: 2px; opacity: 1;"/><path class="js-line" d="M575.75,276.22L575.98,278.99L576.2,277.06L576.43,273.54L577.78,266.85L578,257.93L578.68,237.11L579.35,238.6L579.58,245.31L580.26,247.68L580.48,241.3L580.93,243.24" style="vector-effect: non-scaling-stroke; fill: none; stroke: rgb(31, 119, 180); stroke-opacity: 1; stroke-width: 2px; opacity: 1;"/><path class="js-line" d="M582.73,244.12L584.08,252.76L584.31,247.75L585.21,249.2L585.44,246.13L585.89,244.91L586.56,240.93L587.46,253.28L588.14,254.37L588.82,255.65L589.04,260.29L589.94,267.73L590.17,264.52L590.39,265.46L590.62,265.53L591.29,266.64L591.74,264.32L591.97,266.2L592.19,266.9L592.87,268.46L593.32,267.85L593.55,266.81L594.45,266.7L594.67,266.94L595.35,251.77L596.47,253.88L596.7,254.55L596.92,253.15L597.6,245.3L597.83,246.77L598.05,241.1L598.28,241.4L598.5,239.05L600.75,220.97L600.98,223.81L601.2,225.29L601.43,232.63L601.65,246.39" style="vector-effect: non-scaling-stroke; fill: none; stroke: rgb(31, 119, 180); stroke-opacity: 1; stroke-width: 2px; opacity: 1;"/><path class="js-line" d="M602.56,227.42L602.78,228.02L603.01,227.61L603.23,224.52L604.58,212.39L604.81,207.86L605.48,208.3L605.71,218.84L605.93,223.6L606.39,219.48L607.06,209.32L607.96,190.06L609.09,187.2L609.31,169.8L609.54,178.55L610.21,188.61L610.44,187.66L610.66,194.39L611.79,176.05L612.02,183.02L612.24,188.25L612.69,196.06L613.37,195.14L613.59,196.36L613.82,192.91L614.27,180L614.94,180.45L615.62,178.06L615.85,179.66L617.42,188.5L618.1,181.34L619.68,126.11L620.13,126.91L620.35,125.6L621.48,128.46L621.7,126.5L621.93,145.54L622.15,141.6L622.83,141.27L623.28,132.22L623.5,140.17L623.73,138.47L624.41,140.53L624.63,146.3L625.08,146.02L626.66,168.48L626.88,164.71L627.56,167.58L628.46,152.26L629.14,159.41L629.36,157.72L629.59,162.23L630.71,211.07L630.94,209.94L631.39,216.17L631.61,215.88L632.29,220.32L632.51,215.28L633.19,216.01L633.87,220.06L635.67,201.4L635.89,206.84L636.12,205.81L636.34,209.02" style="vector-effect: non-scaling-stroke; fill: none; stroke: rgb(31, 119, 180); stroke-opacity: 1; stroke-width: 2px; opacity: 1;"/><path class="js-line" d="M638.6,210.68L638.82,216.83L639.27,210.32L639.5,215.03L640.17,201.57L640.4,201.61L640.62,193.28L640.85,191.71L641.07,198L641.75,203.01L641.98,198.02L642.43,204.16L642.65,200.94L643.33,193.41L643.78,206.16L644,199.55L644.23,197.63L645.8,206.4L646.48,205.59L647.16,199.44L647.38,177.77L648.06,180.11L648.28,172.64L649.63,162.34L649.86,172.76L650.08,170.4L650.31,171.21L650.53,181.33L651.21,172.42L651.44,154.74L652.11,175.11L652.79,173.7L653.46,176.87L653.69,179.85L655.94,158.71L656.17,158.79L656.39,161.39L656.62,157.77L656.84,159.46" style="vector-effect: non-scaling-stroke; fill: none; stroke: rgb(31, 119, 180); stroke-opacity: 1; stroke-width: 2px; opacity: 1;"/><path class="js-line" d="M657.74,156.07L657.97,159.43L658.42,155.68L659.09,153.28L660,141.87L660.67,124.79L661.12,125.27L661.35,116.83L661.57,112.01L662.25,117.06L662.47,105.36L662.92,118.24L663.15,115.15L663.82,115.25L664.05,118.97L664.28,98L665.63,48.87L665.85,73.77L666.98,118.62L667.2,109.94L667.43,105.91L669.23,102.39L669.46,97.74L670.13,110.94L670.81,143.91L671.03,143.19L671.71,149.99L672.16,146.37L672.38,148.29L672.61,161.8L673.51,170.29L673.74,164.41L673.96,161.81L674.19,162.5L674.86,166.88L675.31,165.9L675.54,169.19L675.76,154.62L677.34,211.52" style="vector-effect: non-scaling-stroke; fill: none; stroke: rgb(31, 119, 180); stroke-opacity: 1; stroke-width: 2px; opacity: 1;"/><path class="js-line" d="M678.02,215.6L678.47,208.68L679.59,209.5L680.04,196.18L680.27,199.99L680.49,203.7L681.17,215.72L681.62,215.47L681.85,210.94L682.75,200.86L682.97,206.73L683.65,218.95" style="vector-effect: non-scaling-stroke; fill: none; stroke: rgb(31, 119, 180); stroke-opacity: 1; stroke-width: 2px; opacity: 1;"/><path class="js-line" d="M684.77,156.31L685.9,164.69L686.13,161.31L686.35,162.11L686.58,161.74L686.8,153.38L687.48,146.38L687.7,153.13L688.15,154.1L688.38,148.51L689.73,166.36L689.95,160.47L690.86,152.82L691.08,144.92L692.21,129.93L692.43,140.42L692.66,141.64L692.88,136.37L693.11,139.9L693.78,130.27L694.01,130.48L694.23,124.96L694.46,122.75L694.68,109.95L696.04,84.47L696.26,94L696.94,99.49L697.16,117.01L697.84,133.1" style="vector-effect: non-scaling-stroke; fill: none; stroke: rgb(31, 119, 180); stroke-opacity: 1; stroke-width: 2px; opacity: 1;"/><path class="js-line" d="M698.51,144.14L698.74,153.38L698.96,142.32L699.19,131.39L699.42,132.31L700.09,130.79L701.89,153.17L702.12,149.59L703.47,134.48L703.7,134.77L704.15,129L704.82,115.26L705.05,114.38L705.27,117.83L706.62,102.54L706.85,97.7L707.97,120.36L708.2,116.68L708.43,115.79L710,101.14L710.23,107.32L710.45,102.53L711.13,109.43L711.58,113.53L711.8,109.61L712.03,105.42L712.71,102.91L713.16,103.93L713.38,107.7L714.28,96.97L714.51,101.42L714.73,103.84L714.96,101.2L715.18,89.78L716.53,84.07L716.76,74.25L717.66,75.66L717.89,73.72L718.34,63" style="vector-effect: non-scaling-stroke; fill: none; stroke: rgb(31, 119, 180); stroke-opacity: 1; stroke-width: 2px; opacity: 1;"/><path class="js-line" d="M720.59,63.16L720.81,61.2L721.04,62.47L721.26,47.98L722.39,25.1L722.62,29.19L723.07,32.85L723.74,40.44L723.97,46.04L724.19,42.05L724.42,35.25L724.64,32.7L725.32,43.27L725.54,43.03L725.77,51.81L727.35,74.62L727.57,69.36L729.15,109.68L729.37,110.35L730.28,98.12L730.73,101.01L730.95,87.98L731.63,86.61L731.85,92.82L732.08,96.93L732.3,88.17L732.53,88.76L733.65,99.92L733.88,96.69L734.1,95.32L734.78,93.38L735.01,96.71L735.68,82.71L736.36,72.48L736.81,71.23L737.93,90.13L738.16,89.63L738.38,88.16L738.83,80.21" style="vector-effect: non-scaling-stroke; fill: none; stroke: rgb(31, 119, 180); stroke-opacity: 1; stroke-width: 2px; opacity: 1;"/><path class="js-line" d="M739.96,83.43L740.19,77.03L740.41,80.61L741.09,90.48L741.31,89.97L741.54,84.53L741.76,86.01L741.99,85.93L742.66,84.89L743.11,83.1L743.34,76.92L744.24,72.04L744.47,71.68L744.69,72.27L744.92,75.23L746.49,27.56L746.72,41.66L748.97,54.27L749.2,60.17L749.42,59.61L749.65,62.16L750.77,79.91L751,77.93L751.45,86.19L752.12,83.66L752.35,91.94L752.58,82.69L752.8,91.18L753.03,86.43L753.7,96.72L753.93,114.61L755.5,159.36L755.73,144.77L756.18,131.07L756.86,130.07L757.31,128.15L758.43,142.33L758.66,133.85L759.11,126.98L759.33,127.31" style="vector-effect: non-scaling-stroke; fill: none; stroke: rgb(31, 119, 180); stroke-opacity: 1; stroke-width: 2px; opacity: 1;"/><path class="js-line" d="M760.01,134.41L760.23,136.73L760.46,134.19L760.68,129.06L762.26,118.31L762.49,119.85L763.39,108.79L763.61,113.57L763.84,112.37L764.06,112.2L764.74,118.72L764.96,110.6L765.19,120.36L765.41,110.84L765.64,116.17L766.32,98.79L766.54,106.09L767.89,131.42L768.34,137.68L768.57,143.69L769.47,151.09L769.69,151.29L769.92,152.09L770.15,151.18L770.37,144.1L771.27,148.82L771.5,150.41L771.95,138.27L772.62,151.38L773.07,151.51L773.3,149.27L773.52,152.32L774.88,130.46L775.78,131.96L776.45,145.57L776.68,138L777.35,127.76L777.8,130.37L778.03,124.39L778.25,136.27L778.93,132.87L779.16,131.75L779.61,136.43L779.83,130.09" style="vector-effect: non-scaling-stroke; fill: none; stroke: rgb(31, 119, 180); stroke-opacity: 1; stroke-width: 2px; opacity: 1;"/><path class="js-line" d="M780.51,136.72L780.73,137.09L780.96,132.79L781.41,134.17L782.08,128.23L782.31,133.93L782.76,134.2L782.98,131.78L784.11,143.22L784.34,137.57L784.56,137.73L785.24,128.39L785.91,139.75L786.14,137.49L786.81,140.06L787.26,141.29L787.49,146.93L788.39,150.56L788.62,145.8L789.29,143.03L789.97,147.16L790.42,149.22L790.64,153.42L791.99,169.33L792.22,170.57L792.45,167.33L793.12,170.97L793.8,179.78L794.02,173.94" style="vector-effect: non-scaling-stroke; fill: none; stroke: rgb(31, 119, 180); stroke-opacity: 1; stroke-width: 2px; opacity: 1;"/><path class="js-line" d="M794.7,157.17L796.27,170.97L796.5,171.14L796.95,166.56L797.85,170.3L798.3,164.53L798.53,171L798.75,169.44L799.65,172.77L799.88,174.27L800.1,158.55L800.33,165.17L801,163.25L802.81,157.98L803.03,160.8L803.26,169.37L803.48,163.85L804.16,164.37L804.38,158.33L804.83,160.82L805.06,162.58L805.74,158.16L805.96,164.86L806.41,162.45L806.64,167.63L807.31,177.1L807.76,174.97L807.99,173.48L808.21,172.19L808.89,172.6L809.11,172.43L809.34,169.6L809.56,174.44L809.79,175.97L810.69,171.9L810.92,175.2L811.14,179.07L811.37,176.49L812.04,176.39L812.72,186.27L812.94,181.07L813.62,169.46L814.07,172.04L814.29,173.11L814.52,175.74" style="vector-effect: non-scaling-stroke; fill: none; stroke: rgb(31, 119, 180); stroke-opacity: 1; stroke-width: 2px; opacity: 1;"/><path class="js-line" d="M815.2,176.6L817,192.21L817.22,187.9L817.45,189.52L817.67,188.28L818.35,190.37L818.57,190.18L818.8,190.55L819.03,191.62L819.93,182.06L820.15,188.66L820.38,193.28L820.6,192.03L820.83,184.81L821.5,181.97L821.73,182.64L822.18,186.5L824.66,208.92L824.88,208.64L826.68,226.54L826.91,222.56" style="vector-effect: non-scaling-stroke; fill: none; stroke: rgb(31, 119, 180); stroke-opacity: 1; stroke-width: 2px; opacity: 1;"/><path class="js-line" d="M829.39,224.06L829.61,225.6L829.84,234.85L830.96,252.28L831.19,244.71L831.41,253.12L831.86,250.56L832.54,257.96L832.77,268.71L833.22,264.14L833.44,261.5L834.34,278.83L834.57,264.06L834.79,266.88L835.02,255.12" style="vector-effect: non-scaling-stroke; fill: none; stroke: rgb(31, 119, 180); stroke-opacity: 1; stroke-width: 2px; opacity: 1;"/><path class="js-line" d="M835.69,257.15L836.6,262.34L837.27,255.9L837.5,260.54L837.95,255.51L838.17,258L838.85,248L839.07,251.82L839.3,253.15L839.52,263.58L839.75,260.45L840.42,254.05L840.65,252.9L840.88,254.49L841.1,255.62L842,243.27L842.23,245.14L842.45,244.79L843.8,266.47L844.03,268.73L844.25,271.39L844.48,262.24L845.15,258.05L845.38,263.48L845.61,263.87L845.83,269.3L846.06,267.16L846.73,271.48L847.18,274.38L847.41,272.52L847.63,265.25L848.31,262.57L848.53,257.59L848.98,241.85L850.34,203.42L850.79,205.43L851.46,202.58L852.36,213.08L853.04,207.3L853.26,211.51L853.49,207.81L853.71,204.02L853.94,202.65L854.62,203.14L854.84,212.99L855.29,203.35L855.52,208.58" style="vector-effect: non-scaling-stroke; fill: none; stroke: rgb(31, 119, 180); stroke-opacity: 1; stroke-width: 2px; opacity: 1;"/><path class="js-line" d="M856.19,214.63L856.64,212.11L856.87,214.32L857.09,214.62L857.77,210.44L857.99,212.51L858.22,216.87L859.57,230.99L859.8,232.03L860.02,229.88L860.25,232.77L860.92,237.25L861.15,240.4L861.37,238.24L862.5,244.17L862.72,251.79L862.95,241.46L863.18,234.71L864.08,217.42L864.3,226.38L864.53,230.63L865.65,262.5L865.88,261.64L866.1,258.25L866.33,252.21L866.55,252.6L867.23,250.27L867.91,262.22L868.13,254.19L868.81,252.69L870.38,273.84L870.61,268.07L870.83,273.28L871.06,269.15L871.28,264.89L872.19,256.72L872.41,251.64L872.86,251.29L873.54,247.61L873.76,249.68L873.99,242.37L874.44,246.75L875.11,253.49L875.56,252.19L875.79,259.96L876.01,253.4L876.69,233.74L876.92,192.55L877.59,201.18L878.27,200.31L878.49,201.43L878.72,188.27L878.94,167.09L879.17,174.75L879.84,186.78L880.07,186.52L880.29,181.92L880.52,186.68L880.75,181.02L881.42,182.7L881.65,183.17L881.87,191.46L883,174.33L883.22,181.15L886.6,206.07L886.83,200.66L887.73,195.13L887.95,204L888.63,185.96L889.3,194.09L890.21,209.34" style="vector-effect: non-scaling-stroke; fill: none; stroke: rgb(31, 119, 180); stroke-opacity: 1; stroke-width: 2px; opacity: 1;"/><path class="js-line" d="M890.88,212.11L891.33,211.28L891.56,214.15L891.78,204.51L892.46,210.95L892.68,205.07L892.91,192.29L893.36,201.3L894.04,197.52L894.49,184.68L894.94,187.49L895.61,183.18L895.84,185.15L896.06,180.79L896.29,177.21L896.51,169.2L897.19,172.22L898.09,180L898.77,184.63L898.99,189L899.44,188.48L899.67,185.92L901.02,178.39L901.24,178.01L901.92,188.5L902.37,185.91L902.59,179.36L902.82,179.25L903.5,174.25L903.72,172.36L903.95,177.13L905.07,190.2L905.3,184.89L906.65,163.33L906.87,161.8L907.1,153.84L907.55,161.82L908.23,168.62L908.45,167.33L908.68,179.32L909.13,189.08L909.8,182.21L910.7,171.91" style="vector-effect: non-scaling-stroke; fill: none; stroke: rgb(31, 119, 180); stroke-opacity: 1; stroke-width: 2px; opacity: 1;"/><path class="js-line" d="M911.38,171.42L911.6,173.46L911.83,170.81L912.06,169.3L912.28,163.41L912.96,165.7L913.18,166.89L913.41,166.74L915.21,162.62L916.11,158L916.34,155.35L916.56,156.79L916.79,146.92L917.01,151.53" style="vector-effect: non-scaling-stroke; fill: none; stroke: rgb(31, 119, 180); stroke-opacity: 1; stroke-width: 2px; opacity: 1;"/><path class="js-line" d="M917.69,159.93L917.91,162.92L918.14,157.31L918.36,150.27L918.59,155.87L919.26,150.82L919.49,142.54L920.16,144.43L920.84,136.03L922.42,153.13L922.64,151.69L922.87,152.32L923.09,155.79L924.89,178.41L925.8,180.64L926.25,181.01L926.47,182.43L927.15,178.24L927.37,182.05L927.82,190.33L928.05,189.83L928.72,196.54L929.17,198.99L929.4,205.91L930.53,213.08L930.75,218.7L930.98,223.88L931.2,247.03L932.78,181.71L933.45,182.84L933.68,181.1L935.03,193.37L935.26,190.71L935.93,198.1L936.61,201.14L937.06,195.24L937.28,199.24L937.51,200.75L938.18,212.24L938.41,211.71L938.64,206.99L938.86,205.16L939.09,208.92L939.76,210.56L940.21,212.22L940.44,220.52L940.66,225.06L941.56,212.07L941.79,202.81L942.01,211.49L942.24,218.6L943.37,227.66L943.59,221.05L943.82,220.13L944.49,228.19L944.94,237.14L945.17,230.77L945.39,231.45L946.07,236.37L946.29,231.16L947.65,255.6L947.87,253.42L948.1,254.3L948.32,252.93L948.55,248.06L949.22,247.78L949.45,251.17L949.67,260.36L950.12,254.66L950.8,258.52L951.25,256.61L951.47,272.57L951.7,276.39" style="vector-effect: non-scaling-stroke; fill: none; stroke: rgb(31, 119, 180); stroke-opacity: 1; stroke-width: 2px; opacity: 1;"/><path class="js-line" d="M952.38,274.3L952.6,271.76L952.83,279.26L953.95,269.38L954.18,264.7L954.4,265.21L954.63,264.98L954.85,263.41L955.98,255.1L956.21,260.83L956.43,260.34L957.11,268.89L957.56,270.16L957.78,268.01L958.01,267.29L958.68,279.86L958.91,279.57L959.13,191.77L959.58,187.75L960.26,194.25L961.16,188.28L961.84,184.91L962.29,198.77L962.74,194.96L963.86,194.39L964.31,194.51L964.99,187.28L965.44,178.15L965.67,190.34L967.47,184.73L968.14,177.43L968.37,171.35L968.59,177.34L968.82,182.69L969.72,192.62L970.17,191.97L970.4,190.24L970.62,188.24L971.3,195.28L971.75,196.97L971.97,191.44L972.2,193.64" style="vector-effect: non-scaling-stroke; fill: none; stroke: rgb(31, 119, 180); stroke-opacity: 1; stroke-width: 2px; opacity: 1;"/><path class="js-line" d="M972.87,200.93L973.78,219.45L974.45,222.71L975.35,231.59L976.03,230.25L976.25,227.43L976.48,233.23L976.7,232.84L976.93,233.32L977.6,242.22L978.06,239.95L978.28,241.12L978.51,244.29L979.41,252.01L979.63,249.2L979.86,243.6L980.76,231.83L980.98,222.54L981.43,220.82L981.66,224.99L982.33,200.21L983.01,206.28L983.24,205.2L983.91,198.1L984.14,198.45L984.36,202.47L984.81,189.11L985.49,189.38L985.71,193.69L986.16,199.58L986.39,198.89L987.29,193.78L987.97,177.37L988.64,176.6L988.87,176.01L989.09,184.39L989.32,184.14L989.54,195.26L990.22,203.48L990.44,191.67L991.12,174.07L991.8,176.04L992.47,159.71L992.7,169.38" style="vector-effect: non-scaling-stroke; fill: none; stroke: rgb(31, 119, 180); stroke-opacity: 1; stroke-width: 2px; opacity: 1;"/><path class="js-line" d="M994.95,162.69L995.85,137.54L996.53,143.26L997.2,156.26L997.43,154.16L998.1,157.58L998.33,156.06L998.55,167.34L998.78,164.24L999,171.29L999.68,173.18L1001.48,154.49L1001.71,156.07L1002.16,168.79L1002.83,166.57L1003.51,183.86L1003.73,177.61L1004.41,182.43L1005.31,170.87L1005.99,166.02L1006.21,163.72L1006.44,170.55L1006.89,158.79L1008.01,155.53L1010.04,116.17L1010.72,126.45L1011.17,116.52L1011.39,109.57L1012.52,79.94L1012.74,98.29L1012.97,83.7L1013.19,95" style="vector-effect: non-scaling-stroke; fill: none; stroke: rgb(31, 119, 180); stroke-opacity: 1; stroke-width: 2px; opacity: 1;"/><path class="js-line" d="M1014.55,88.45L1016.12,118.56L1016.35,116.01L1017.02,114.72L1017.47,117.98L1017.7,121.62L1017.93,120.07L1018.6,124.47L1019.5,106.42L1020.18,109.74L1021.75,138.11L1021.98,135.51L1022.2,132.18L1022.43,119.09L1022.66,124.74L1023.33,137.46L1023.78,128.59L1024.01,137.11L1024.23,143.03L1025.81,163.92L1026.48,160.58L1026.71,160.3L1026.94,153.7L1027.16,155.61L1027.39,153.93L1028.06,156.71L1028.29,153.17L1028.51,156.63L1028.74,162.52L1028.96,160.2" style="vector-effect: non-scaling-stroke; fill: none; stroke: rgb(31, 119, 180); stroke-opacity: 1; stroke-width: 2px; opacity: 1;"/><path class="js-line" d="M1030.54,172.61L1031.89,179.09L1032.12,175.97L1033.02,171.82L1033.24,177.05L1033.69,178.49" style="vector-effect: non-scaling-stroke; fill: none; stroke: rgb(31, 119, 180); stroke-opacity: 1; stroke-width: 2px; opacity: 1;"/><path class="js-line" d="M1034.37,186.4L1035.04,180.05L1035.27,183.21L1036.62,191.32L1036.85,186.08L1038.2,202.12L1038.42,194.56L1039.32,200.16L1039.55,189.48L1040,177.18" style="vector-effect: non-scaling-stroke; fill: none; stroke: rgb(31, 119, 180); stroke-opacity: 1; stroke-width: 2px; opacity: 1;"/></g><g class="points"/><g class="text"/></g></g></g><g class="overplot"><g class="xy2" transform="translate(60,60)" clip-path="url(#clip74e616xy2plot)"><g class="scatterlayer mlayer"><g class="trace scatter trace831c07" style="stroke-miterlimit: 2; opacity: 1;"><g class="fills"/><g class="errorbars"/><g class="lines"><path class="js-line" d="M88.3,25.1L94.61,81.43L101.59,126.52L108.35,161.79L115.33,203.18L122.09,243.74L129.07,277.96L136.05,302.46L142.81,340.48L149.79,348.51L156.55,367.89L163.53,381.88L170.52,413.7L177.05,434.17L184.03,450.79L190.79,473.3L197.77,473.09L204.53,468.18L211.51,471.88L218.5,465.47L225.25,454.86L232.24,462.87L239,469.06L245.98,476.9L252.96,460.75L259.27,443.03L266.25,431.81L273.01,413.66L279.99,406.73L286.75,400.48L293.73,382.08L307.47,363.1L314.46,365.06L321.21,356.27L328.2,352.58L335.18,340.3L341.49,345.64L355.23,337.23L362.21,326.99L368.97,324.26L375.95,333.16L389.69,341.2L396.67,340.78L403.43,327.79L410.41,285.52L417.4,285.39L423.7,269.42L430.69,274.8L437.44,286.36L444.43,298.8L451.18,293.73L458.17,298.32L465.15,304.36L471.91,292.47L478.89,295.38L485.65,300.93L492.63,311.84L499.61,282.97L506.15,290.19L513.13,269.07L519.89,276.54L526.87,265.34L533.63,248.37L540.61,237L547.59,234.24L554.35,220.43L561.33,211.48L568.09,197.79L575.07,176.92L582.06,153.38L588.36,144.11L595.35,151.33L602.11,123.51L609.09,122.63L615.85,128.53L622.83,121.59L629.81,111.99L636.57,125.43L643.55,128.95L650.31,133.08L657.29,173.78L664.28,208.41L670.58,216.66L684.32,246.5L691.31,256.43L698.06,272.75L705.05,276.31L712.03,282.92L718.79,296.1L732.53,312.18L739.51,315.99L746.49,301.3L752.8,316.88L759.78,310.48L766.54,319.91L773.52,327.17L780.28,331.53L787.26,341.58L794.25,341.82L801,337.41L807.99,337.61L814.75,336.98L821.73,325.68L828.71,276.58L835.24,290.48L842.23,284.92L848.98,278.45L855.97,272.81L862.72,260.79L876.69,243.47L883.45,227.69L890.43,223.2L897.19,221.56L904.17,223.15L911.15,283.67L917.46,253.39L924.44,245.19L931.2,245.35L938.18,247.28L944.94,254.1L951.93,268.7L958.91,283.95L965.67,306.31L979.41,323.45L986.39,335.26L993.37,353.22L999.68,386.07L1006.66,398.05L1013.42,424.91L1020.4,438.89L1027.16,429.4L1034.14,441.59" style="vector-effect: non-scaling-stroke; fill: none; stroke: rgb(255, 127, 14); stroke-opacity: 1; stroke-width: 2px; opacity: 1;"/></g><g class="points"/><g class="text"/></g></g></g></g><path class="xlines-above crisp" style="fill: none;" d="M0,0"/><path class="ylines-above crisp" style="fill: none;" d="M0,0"/><g class="overlines-above"><path class="xy2-x crisp" style="fill: none;" d="M0,0"/><path class="xy2-y crisp" style="fill: none;" d="M0,0"/></g><g class="xaxislayer-above"><g class="xtick"><text text-anchor="middle" x="0" y="585" transform="translate(223.76,0)" style="font-family: 'Open Sans', verdana, arial, sans-serif; font-size: 12px; fill: rgb(68, 68, 68); fill-opacity: 1; white-space: pre; opacity: 1;">2012-01-01</text></g><g class="xtick"><text text-anchor="middle" x="0" y="585" style="font-family: 'Open Sans', verdana, arial, sans-serif; font-size: 12px; fill: rgb(68, 68, 68); fill-opacity: 1; white-space: pre; opacity: 1;" transform="translate(388.42,0)">2014-01-01</text></g><g class="xtick"><text text-anchor="middle" x="0" y="585" style="font-family: 'Open Sans', verdana, arial, sans-serif; font-size: 12px; fill: rgb(68, 68, 68); fill-opacity: 1; white-space: pre; opacity: 1;" transform="translate(552.86,0)">2016-01-01</text></g><g class="xtick"><text text-anchor="middle" x="0" y="585" style="font-family: 'Open Sans', verdana, arial, sans-serif; font-size: 12px; fill: rgb(68, 68, 68); fill-opacity: 1; white-space: pre; opacity: 1;" transform="translate(717.52,0)">2018-01-01</text></g><g class="xtick"><text text-anchor="middle" x="0" y="585" style="font-family: 'Open Sans', verdana, arial, sans-serif; font-size: 12px; fill: rgb(68, 68, 68); fill-opacity: 1; white-space: pre; opacity: 1;" transform="translate(881.95,0)">2020-01-01</text></g><g class="xtick"><text text-anchor="middle" x="0" y="585" style="font-family: 'Open Sans', verdana, arial, sans-serif; font-size: 12px; fill: rgb(68, 68, 68); fill-opacity: 1; white-space: pre; opacity: 1;" transform="translate(1046.6100000000001,0)">2022-01-01</text></g></g><g class="yaxislayer-above"><g class="ytick"><text text-anchor="end" x="49" y="4.199999999999999" transform="translate(0,477.75)" style="font-family: 'Open Sans', verdana, arial, sans-serif; font-size: 12px; fill: rgb(68, 68, 68); fill-opacity: 1; white-space: pre; opacity: 1;">0.15</text></g><g class="ytick"><text text-anchor="end" x="49" y="4.199999999999999" style="font-family: 'Open Sans', verdana, arial, sans-serif; font-size: 12px; fill: rgb(68, 68, 68); fill-opacity: 1; white-space: pre; opacity: 1;" transform="translate(0,390.55)">0.2</text></g><g class="ytick"><text text-anchor="end" x="49" y="4.199999999999999" style="font-family: 'Open Sans', verdana, arial, sans-serif; font-size: 12px; fill: rgb(68, 68, 68); fill-opacity: 1; white-space: pre; opacity: 1;" transform="translate(0,303.35)">0.25</text></g><g class="ytick"><text text-anchor="end" x="49" y="4.199999999999999" style="font-family: 'Open Sans', verdana, arial, sans-serif; font-size: 12px; fill: rgb(68, 68, 68); fill-opacity: 1; white-space: pre; opacity: 1;" transform="translate(0,216.16)">0.3</text></g><g class="ytick"><text text-anchor="end" x="49" y="4.199999999999999" style="font-family: 'Open Sans', verdana, arial, sans-serif; font-size: 12px; fill: rgb(68, 68, 68); fill-opacity: 1; white-space: pre; opacity: 1;" transform="translate(0,128.95999999999998)">0.35</text></g></g><g class="overaxes-above"><g class="xy2-x"/><g class="xy2-y"><g class="y2tick"><text text-anchor="start" x="1111" y="4.199999999999999" transform="translate(0,505.69)" style="font-family: 'Open Sans', verdana, arial, sans-serif; font-size: 12px; fill: rgb(255, 0, 0); fill-opacity: 1; white-space: pre; opacity: 1;">10</text></g><g class="y2tick"><text text-anchor="start" x="1111" y="4.199999999999999" style="font-family: 'Open Sans', verdana, arial, sans-serif; font-size: 12px; fill: rgb(255, 0, 0); fill-opacity: 1; white-space: pre; opacity: 1;" transform="translate(0,444.06)">12</text></g><g class="y2tick"><text text-anchor="start" x="1111" y="4.199999999999999" style="font-family: 'Open Sans', verdana, arial, sans-serif; font-size: 12px; fill: rgb(255, 0, 0); fill-opacity: 1; white-space: pre; opacity: 1;" transform="translate(0,382.44)">14</text></g><g class="y2tick"><text text-anchor="start" x="1111" y="4.199999999999999" style="font-family: 'Open Sans', verdana, arial, sans-serif; font-size: 12px; fill: rgb(255, 0, 0); fill-opacity: 1; white-space: pre; opacity: 1;" transform="translate(0,320.81)">16</text></g><g class="y2tick"><text text-anchor="start" x="1111" y="4.199999999999999" style="font-family: 'Open Sans', verdana, arial, sans-serif; font-size: 12px; fill: rgb(255, 0, 0); fill-opacity: 1; white-space: pre; opacity: 1;" transform="translate(0,259.19)">18</text></g><g class="y2tick"><text text-anchor="start" x="1111" y="4.199999999999999" style="font-family: 'Open Sans', verdana, arial, sans-serif; font-size: 12px; fill: rgb(255, 0, 0); fill-opacity: 1; white-space: pre; opacity: 1;" transform="translate(0,197.56)">20</text></g><g class="y2tick"><text text-anchor="start" x="1111" y="4.199999999999999" style="font-family: 'Open Sans', verdana, arial, sans-serif; font-size: 12px; fill: rgb(255, 0, 0); fill-opacity: 1; white-space: pre; opacity: 1;" transform="translate(0,135.94)">22</text></g><g class="y2tick"><text text-anchor="start" x="1111" y="4.199999999999999" style="font-family: 'Open Sans', verdana, arial, sans-serif; font-size: 12px; fill: rgb(255, 0, 0); fill-opacity: 1; white-space: pre; opacity: 1;" transform="translate(0,74.31)">24</text></g></g></g></g><g class="subplot xy2"/></g><g class="polarlayer"/><g class="ternarylayer"/><g class="geolayer"/><g class="funnelarealayer"/><g class="pielayer"/><g class="iciclelayer"/><g class="treemaplayer"/><g class="sunburstlayer"/><g class="glimages"/><defs id="topdefs-74e616"><g class="clips"/><clipPath id="legend74e616"><rect width="88" height="48" x="0" y="0"/></clipPath></defs><g class="layer-above"><g class="imagelayer"/><g class="shapelayer"/></g><g class="infolayer"><g class="legend" pointer-events="all" transform="translate(164,110.19999999999999)"><rect class="bg" shape-rendering="crispEdges" style="stroke: rgb(68, 68, 68); stroke-opacity: 1; fill: rgb(255, 255, 255); fill-opacity: 1; stroke-width: 0px;" width="88" height="48" x="0" y="0"/><g class="scrollbox" transform="" clip-path="url(#legend74e616)"><g class="groups"><g class="traces" style="opacity: 1;" transform="translate(0,14.5)"><text class="legendtext" text-anchor="start" x="40" y="4.680000000000001" style="font-family: 'Open Sans', verdana, arial, sans-serif; font-size: 12px; fill: rgb(68, 68, 68); fill-opacity: 1; white-space: pre;">trace 0</text><g class="layers" style="opacity: 1;"><g class="legendfill"/><g class="legendlines"><path class="js-line" d="M5,0h30" style="fill: none; stroke: rgb(31, 119, 180); stroke-opacity: 1; stroke-width: 2px;"/></g><g class="legendsymbols"><g class="legendpoints"/></g></g><rect class="legendtoggle" x="0" y="-9.5" width="82.46875" height="19" style="fill: rgb(0, 0, 0); fill-opacity: 0;"/></g><g class="traces" style="opacity: 1;" transform="translate(0,33.5)"><text class="legendtext" text-anchor="start" x="40" y="4.680000000000001" style="font-family: 'Open Sans', verdana, arial, sans-serif; font-size: 12px; fill: rgb(68, 68, 68); fill-opacity: 1; white-space: pre;">trace 1</text><g class="layers" style="opacity: 1;"><g class="legendfill"/><g class="legendlines"><path class="js-line" d="M5,0h30" style="fill: none; stroke: rgb(255, 127, 14); stroke-opacity: 1; stroke-width: 2px;"/></g><g class="legendsymbols"><g class="legendpoints"/></g></g><rect class="legendtoggle" x="0" y="-9.5" width="82.46875" height="19" style="fill: rgb(0, 0, 0); fill-opacity: 0;"/></g></g></g><rect class="scrollbar" rx="20" ry="3" width="0" height="0" style="fill: rgb(128, 139, 164); fill-opacity: 1;" x="0" y="0"/></g><g class="g-gtitle"><text class="gtitle" x="600" y="30" text-anchor="middle" dy="0em" style="font-family: 'Open Sans', verdana, arial, sans-serif; font-size: 17px; fill: rgb(68, 68, 68); opacity: 1; font-weight: normal; white-space: pre;"><tspan style="font-weight:bold">test</tspan></text></g><g class="g-xtitle"/><g class="g-ytitle"/><g class="g-y2title"/></g></svg>